<?xml version="1.0" encoding="utf-8" standalone="no"?>
<!DOCTYPE svg PUBLIC "-//W3C//DTD SVG 1.1//EN"
  "http://www.w3.org/Graphics/SVG/1.1/DTD/svg11.dtd">
<svg xmlns:xlink="http://www.w3.org/1999/xlink" width="360pt" height="288pt" viewBox="0 0 360 288" xmlns="http://www.w3.org/2000/svg" version="1.1">
 <metadata>
  <rdf:RDF xmlns:dc="http://purl.org/dc/elements/1.1/" xmlns:cc="http://creativecommons.org/ns#" xmlns:rdf="http://www.w3.org/1999/02/22-rdf-syntax-ns#">
   <cc:Work>
    <dc:type rdf:resource="http://purl.org/dc/dcmitype/StillImage"/>
    <dc:date>2022-10-07T11:30:54.160102</dc:date>
    <dc:format>image/svg+xml</dc:format>
    <dc:creator>
     <cc:Agent>
      <dc:title>Matplotlib v3.5.2, https://matplotlib.org/</dc:title>
     </cc:Agent>
    </dc:creator>
   </cc:Work>
  </rdf:RDF>
 </metadata>
 <defs>
  <style type="text/css">*{stroke-linejoin: round; stroke-linecap: butt}</style>
 </defs>
 <g id="figure_1">
  <g id="patch_1">
   <path d="M 0 288 
L 360 288 
L 360 0 
L 0 0 
L 0 288 
z
" style="fill: none"/>
  </g>
  <g id="axes_1">
   <g id="patch_2">
    <path d="M 45 252 
L 324 252 
L 324 34.56 
L 45 34.56 
z
" style="fill: #ffffff"/>
   </g>
   <g id="matplotlib.axis_1">
    <g id="xtick_1">
     <g id="line2d_1">
      <path d="M 57.681818 252 
L 57.681818 34.56 
" clip-path="url(#p78b48a09c5)" style="fill: none; stroke-dasharray: 2.96,1.28; stroke-dashoffset: 0; stroke: #b0b0b0; stroke-width: 0.8"/>
     </g>
     <g id="line2d_2">
      <defs>
       <path id="m989db864b1" d="M 0 0 
L 0 3.5 
" style="stroke: #000000; stroke-width: 0.8"/>
      </defs>
      <g>
       <use xlink:href="#m989db864b1" x="57.681818" y="252" style="stroke: #000000; stroke-width: 0.8"/>
      </g>
     </g>
     <g id="text_1">
      <!-- 0 -->
      <g transform="translate(54.500568 266.598437)scale(0.1 -0.1)">
       <defs>
        <path id="DejaVuSans-30" d="M 2034 4250 
Q 1547 4250 1301 3770 
Q 1056 3291 1056 2328 
Q 1056 1369 1301 889 
Q 1547 409 2034 409 
Q 2525 409 2770 889 
Q 3016 1369 3016 2328 
Q 3016 3291 2770 3770 
Q 2525 4250 2034 4250 
z
M 2034 4750 
Q 2819 4750 3233 4129 
Q 3647 3509 3647 2328 
Q 3647 1150 3233 529 
Q 2819 -91 2034 -91 
Q 1250 -91 836 529 
Q 422 1150 422 2328 
Q 422 3509 836 4129 
Q 1250 4750 2034 4750 
z
" transform="scale(0.015625)"/>
       </defs>
       <use xlink:href="#DejaVuSans-30"/>
      </g>
     </g>
    </g>
    <g id="xtick_2">
     <g id="line2d_3">
      <path d="M 108.921488 252 
L 108.921488 34.56 
" clip-path="url(#p78b48a09c5)" style="fill: none; stroke-dasharray: 2.96,1.28; stroke-dashoffset: 0; stroke: #b0b0b0; stroke-width: 0.8"/>
     </g>
     <g id="line2d_4">
      <g>
       <use xlink:href="#m989db864b1" x="108.921488" y="252" style="stroke: #000000; stroke-width: 0.8"/>
      </g>
     </g>
     <g id="text_2">
      <!-- 20 -->
      <g transform="translate(102.558988 266.598437)scale(0.1 -0.1)">
       <defs>
        <path id="DejaVuSans-32" d="M 1228 531 
L 3431 531 
L 3431 0 
L 469 0 
L 469 531 
Q 828 903 1448 1529 
Q 2069 2156 2228 2338 
Q 2531 2678 2651 2914 
Q 2772 3150 2772 3378 
Q 2772 3750 2511 3984 
Q 2250 4219 1831 4219 
Q 1534 4219 1204 4116 
Q 875 4013 500 3803 
L 500 4441 
Q 881 4594 1212 4672 
Q 1544 4750 1819 4750 
Q 2544 4750 2975 4387 
Q 3406 4025 3406 3419 
Q 3406 3131 3298 2873 
Q 3191 2616 2906 2266 
Q 2828 2175 2409 1742 
Q 1991 1309 1228 531 
z
" transform="scale(0.015625)"/>
       </defs>
       <use xlink:href="#DejaVuSans-32"/>
       <use xlink:href="#DejaVuSans-30" x="63.623047"/>
      </g>
     </g>
    </g>
    <g id="xtick_3">
     <g id="line2d_5">
      <path d="M 160.161157 252 
L 160.161157 34.56 
" clip-path="url(#p78b48a09c5)" style="fill: none; stroke-dasharray: 2.96,1.28; stroke-dashoffset: 0; stroke: #b0b0b0; stroke-width: 0.8"/>
     </g>
     <g id="line2d_6">
      <g>
       <use xlink:href="#m989db864b1" x="160.161157" y="252" style="stroke: #000000; stroke-width: 0.8"/>
      </g>
     </g>
     <g id="text_3">
      <!-- 40 -->
      <g transform="translate(153.798657 266.598437)scale(0.1 -0.1)">
       <defs>
        <path id="DejaVuSans-34" d="M 2419 4116 
L 825 1625 
L 2419 1625 
L 2419 4116 
z
M 2253 4666 
L 3047 4666 
L 3047 1625 
L 3713 1625 
L 3713 1100 
L 3047 1100 
L 3047 0 
L 2419 0 
L 2419 1100 
L 313 1100 
L 313 1709 
L 2253 4666 
z
" transform="scale(0.015625)"/>
       </defs>
       <use xlink:href="#DejaVuSans-34"/>
       <use xlink:href="#DejaVuSans-30" x="63.623047"/>
      </g>
     </g>
    </g>
    <g id="xtick_4">
     <g id="line2d_7">
      <path d="M 211.400826 252 
L 211.400826 34.56 
" clip-path="url(#p78b48a09c5)" style="fill: none; stroke-dasharray: 2.96,1.28; stroke-dashoffset: 0; stroke: #b0b0b0; stroke-width: 0.8"/>
     </g>
     <g id="line2d_8">
      <g>
       <use xlink:href="#m989db864b1" x="211.400826" y="252" style="stroke: #000000; stroke-width: 0.8"/>
      </g>
     </g>
     <g id="text_4">
      <!-- 60 -->
      <g transform="translate(205.038326 266.598437)scale(0.1 -0.1)">
       <defs>
        <path id="DejaVuSans-36" d="M 2113 2584 
Q 1688 2584 1439 2293 
Q 1191 2003 1191 1497 
Q 1191 994 1439 701 
Q 1688 409 2113 409 
Q 2538 409 2786 701 
Q 3034 994 3034 1497 
Q 3034 2003 2786 2293 
Q 2538 2584 2113 2584 
z
M 3366 4563 
L 3366 3988 
Q 3128 4100 2886 4159 
Q 2644 4219 2406 4219 
Q 1781 4219 1451 3797 
Q 1122 3375 1075 2522 
Q 1259 2794 1537 2939 
Q 1816 3084 2150 3084 
Q 2853 3084 3261 2657 
Q 3669 2231 3669 1497 
Q 3669 778 3244 343 
Q 2819 -91 2113 -91 
Q 1303 -91 875 529 
Q 447 1150 447 2328 
Q 447 3434 972 4092 
Q 1497 4750 2381 4750 
Q 2619 4750 2861 4703 
Q 3103 4656 3366 4563 
z
" transform="scale(0.015625)"/>
       </defs>
       <use xlink:href="#DejaVuSans-36"/>
       <use xlink:href="#DejaVuSans-30" x="63.623047"/>
      </g>
     </g>
    </g>
    <g id="xtick_5">
     <g id="line2d_9">
      <path d="M 262.640496 252 
L 262.640496 34.56 
" clip-path="url(#p78b48a09c5)" style="fill: none; stroke-dasharray: 2.96,1.28; stroke-dashoffset: 0; stroke: #b0b0b0; stroke-width: 0.8"/>
     </g>
     <g id="line2d_10">
      <g>
       <use xlink:href="#m989db864b1" x="262.640496" y="252" style="stroke: #000000; stroke-width: 0.8"/>
      </g>
     </g>
     <g id="text_5">
      <!-- 80 -->
      <g transform="translate(256.277996 266.598437)scale(0.1 -0.1)">
       <defs>
        <path id="DejaVuSans-38" d="M 2034 2216 
Q 1584 2216 1326 1975 
Q 1069 1734 1069 1313 
Q 1069 891 1326 650 
Q 1584 409 2034 409 
Q 2484 409 2743 651 
Q 3003 894 3003 1313 
Q 3003 1734 2745 1975 
Q 2488 2216 2034 2216 
z
M 1403 2484 
Q 997 2584 770 2862 
Q 544 3141 544 3541 
Q 544 4100 942 4425 
Q 1341 4750 2034 4750 
Q 2731 4750 3128 4425 
Q 3525 4100 3525 3541 
Q 3525 3141 3298 2862 
Q 3072 2584 2669 2484 
Q 3125 2378 3379 2068 
Q 3634 1759 3634 1313 
Q 3634 634 3220 271 
Q 2806 -91 2034 -91 
Q 1263 -91 848 271 
Q 434 634 434 1313 
Q 434 1759 690 2068 
Q 947 2378 1403 2484 
z
M 1172 3481 
Q 1172 3119 1398 2916 
Q 1625 2713 2034 2713 
Q 2441 2713 2670 2916 
Q 2900 3119 2900 3481 
Q 2900 3844 2670 4047 
Q 2441 4250 2034 4250 
Q 1625 4250 1398 4047 
Q 1172 3844 1172 3481 
z
" transform="scale(0.015625)"/>
       </defs>
       <use xlink:href="#DejaVuSans-38"/>
       <use xlink:href="#DejaVuSans-30" x="63.623047"/>
      </g>
     </g>
    </g>
    <g id="xtick_6">
     <g id="line2d_11">
      <path d="M 313.880165 252 
L 313.880165 34.56 
" clip-path="url(#p78b48a09c5)" style="fill: none; stroke-dasharray: 2.96,1.28; stroke-dashoffset: 0; stroke: #b0b0b0; stroke-width: 0.8"/>
     </g>
     <g id="line2d_12">
      <g>
       <use xlink:href="#m989db864b1" x="313.880165" y="252" style="stroke: #000000; stroke-width: 0.8"/>
      </g>
     </g>
     <g id="text_6">
      <!-- 100 -->
      <g transform="translate(304.336415 266.598437)scale(0.1 -0.1)">
       <defs>
        <path id="DejaVuSans-31" d="M 794 531 
L 1825 531 
L 1825 4091 
L 703 3866 
L 703 4441 
L 1819 4666 
L 2450 4666 
L 2450 531 
L 3481 531 
L 3481 0 
L 794 0 
L 794 531 
z
" transform="scale(0.015625)"/>
       </defs>
       <use xlink:href="#DejaVuSans-31"/>
       <use xlink:href="#DejaVuSans-30" x="63.623047"/>
       <use xlink:href="#DejaVuSans-30" x="127.246094"/>
      </g>
     </g>
    </g>
    <g id="text_7">
     <!-- Epoch -->
     <g transform="translate(169.189063 280.276563)scale(0.1 -0.1)">
      <defs>
       <path id="DejaVuSans-45" d="M 628 4666 
L 3578 4666 
L 3578 4134 
L 1259 4134 
L 1259 2753 
L 3481 2753 
L 3481 2222 
L 1259 2222 
L 1259 531 
L 3634 531 
L 3634 0 
L 628 0 
L 628 4666 
z
" transform="scale(0.015625)"/>
       <path id="DejaVuSans-70" d="M 1159 525 
L 1159 -1331 
L 581 -1331 
L 581 3500 
L 1159 3500 
L 1159 2969 
Q 1341 3281 1617 3432 
Q 1894 3584 2278 3584 
Q 2916 3584 3314 3078 
Q 3713 2572 3713 1747 
Q 3713 922 3314 415 
Q 2916 -91 2278 -91 
Q 1894 -91 1617 61 
Q 1341 213 1159 525 
z
M 3116 1747 
Q 3116 2381 2855 2742 
Q 2594 3103 2138 3103 
Q 1681 3103 1420 2742 
Q 1159 2381 1159 1747 
Q 1159 1113 1420 752 
Q 1681 391 2138 391 
Q 2594 391 2855 752 
Q 3116 1113 3116 1747 
z
" transform="scale(0.015625)"/>
       <path id="DejaVuSans-6f" d="M 1959 3097 
Q 1497 3097 1228 2736 
Q 959 2375 959 1747 
Q 959 1119 1226 758 
Q 1494 397 1959 397 
Q 2419 397 2687 759 
Q 2956 1122 2956 1747 
Q 2956 2369 2687 2733 
Q 2419 3097 1959 3097 
z
M 1959 3584 
Q 2709 3584 3137 3096 
Q 3566 2609 3566 1747 
Q 3566 888 3137 398 
Q 2709 -91 1959 -91 
Q 1206 -91 779 398 
Q 353 888 353 1747 
Q 353 2609 779 3096 
Q 1206 3584 1959 3584 
z
" transform="scale(0.015625)"/>
       <path id="DejaVuSans-63" d="M 3122 3366 
L 3122 2828 
Q 2878 2963 2633 3030 
Q 2388 3097 2138 3097 
Q 1578 3097 1268 2742 
Q 959 2388 959 1747 
Q 959 1106 1268 751 
Q 1578 397 2138 397 
Q 2388 397 2633 464 
Q 2878 531 3122 666 
L 3122 134 
Q 2881 22 2623 -34 
Q 2366 -91 2075 -91 
Q 1284 -91 818 406 
Q 353 903 353 1747 
Q 353 2603 823 3093 
Q 1294 3584 2113 3584 
Q 2378 3584 2631 3529 
Q 2884 3475 3122 3366 
z
" transform="scale(0.015625)"/>
       <path id="DejaVuSans-68" d="M 3513 2113 
L 3513 0 
L 2938 0 
L 2938 2094 
Q 2938 2591 2744 2837 
Q 2550 3084 2163 3084 
Q 1697 3084 1428 2787 
Q 1159 2491 1159 1978 
L 1159 0 
L 581 0 
L 581 4863 
L 1159 4863 
L 1159 2956 
Q 1366 3272 1645 3428 
Q 1925 3584 2291 3584 
Q 2894 3584 3203 3211 
Q 3513 2838 3513 2113 
z
" transform="scale(0.015625)"/>
      </defs>
      <use xlink:href="#DejaVuSans-45"/>
      <use xlink:href="#DejaVuSans-70" x="63.183594"/>
      <use xlink:href="#DejaVuSans-6f" x="126.660156"/>
      <use xlink:href="#DejaVuSans-63" x="187.841797"/>
      <use xlink:href="#DejaVuSans-68" x="242.822266"/>
     </g>
    </g>
   </g>
   <g id="matplotlib.axis_2">
    <g id="ytick_1">
     <g id="line2d_13">
      <path d="M 45 252 
L 324 252 
" clip-path="url(#p78b48a09c5)" style="fill: none; stroke-dasharray: 2.96,1.28; stroke-dashoffset: 0; stroke: #b0b0b0; stroke-width: 0.8"/>
     </g>
     <g id="line2d_14">
      <defs>
       <path id="m1f35477a1b" d="M 0 0 
L -3.5 0 
" style="stroke: #000000; stroke-width: 0.8"/>
      </defs>
      <g>
       <use xlink:href="#m1f35477a1b" x="45" y="252" style="stroke: #000000; stroke-width: 0.8"/>
      </g>
     </g>
     <g id="text_8">
      <!-- 95 -->
      <g transform="translate(25.275 255.799219)scale(0.1 -0.1)">
       <defs>
        <path id="DejaVuSans-39" d="M 703 97 
L 703 672 
Q 941 559 1184 500 
Q 1428 441 1663 441 
Q 2288 441 2617 861 
Q 2947 1281 2994 2138 
Q 2813 1869 2534 1725 
Q 2256 1581 1919 1581 
Q 1219 1581 811 2004 
Q 403 2428 403 3163 
Q 403 3881 828 4315 
Q 1253 4750 1959 4750 
Q 2769 4750 3195 4129 
Q 3622 3509 3622 2328 
Q 3622 1225 3098 567 
Q 2575 -91 1691 -91 
Q 1453 -91 1209 -44 
Q 966 3 703 97 
z
M 1959 2075 
Q 2384 2075 2632 2365 
Q 2881 2656 2881 3163 
Q 2881 3666 2632 3958 
Q 2384 4250 1959 4250 
Q 1534 4250 1286 3958 
Q 1038 3666 1038 3163 
Q 1038 2656 1286 2365 
Q 1534 2075 1959 2075 
z
" transform="scale(0.015625)"/>
        <path id="DejaVuSans-35" d="M 691 4666 
L 3169 4666 
L 3169 4134 
L 1269 4134 
L 1269 2991 
Q 1406 3038 1543 3061 
Q 1681 3084 1819 3084 
Q 2600 3084 3056 2656 
Q 3513 2228 3513 1497 
Q 3513 744 3044 326 
Q 2575 -91 1722 -91 
Q 1428 -91 1123 -41 
Q 819 9 494 109 
L 494 744 
Q 775 591 1075 516 
Q 1375 441 1709 441 
Q 2250 441 2565 725 
Q 2881 1009 2881 1497 
Q 2881 1984 2565 2268 
Q 2250 2553 1709 2553 
Q 1456 2553 1204 2497 
Q 953 2441 691 2322 
L 691 4666 
z
" transform="scale(0.015625)"/>
       </defs>
       <use xlink:href="#DejaVuSans-39"/>
       <use xlink:href="#DejaVuSans-35" x="63.623047"/>
      </g>
     </g>
    </g>
    <g id="ytick_2">
     <g id="line2d_15">
      <path d="M 45 208.512 
L 324 208.512 
" clip-path="url(#p78b48a09c5)" style="fill: none; stroke-dasharray: 2.96,1.28; stroke-dashoffset: 0; stroke: #b0b0b0; stroke-width: 0.8"/>
     </g>
     <g id="line2d_16">
      <g>
       <use xlink:href="#m1f35477a1b" x="45" y="208.512" style="stroke: #000000; stroke-width: 0.8"/>
      </g>
     </g>
     <g id="text_9">
      <!-- 96 -->
      <g transform="translate(25.275 212.311219)scale(0.1 -0.1)">
       <use xlink:href="#DejaVuSans-39"/>
       <use xlink:href="#DejaVuSans-36" x="63.623047"/>
      </g>
     </g>
    </g>
    <g id="ytick_3">
     <g id="line2d_17">
      <path d="M 45 165.024 
L 324 165.024 
" clip-path="url(#p78b48a09c5)" style="fill: none; stroke-dasharray: 2.96,1.28; stroke-dashoffset: 0; stroke: #b0b0b0; stroke-width: 0.8"/>
     </g>
     <g id="line2d_18">
      <g>
       <use xlink:href="#m1f35477a1b" x="45" y="165.024" style="stroke: #000000; stroke-width: 0.8"/>
      </g>
     </g>
     <g id="text_10">
      <!-- 97 -->
      <g transform="translate(25.275 168.823219)scale(0.1 -0.1)">
       <defs>
        <path id="DejaVuSans-37" d="M 525 4666 
L 3525 4666 
L 3525 4397 
L 1831 0 
L 1172 0 
L 2766 4134 
L 525 4134 
L 525 4666 
z
" transform="scale(0.015625)"/>
       </defs>
       <use xlink:href="#DejaVuSans-39"/>
       <use xlink:href="#DejaVuSans-37" x="63.623047"/>
      </g>
     </g>
    </g>
    <g id="ytick_4">
     <g id="line2d_19">
      <path d="M 45 121.536 
L 324 121.536 
" clip-path="url(#p78b48a09c5)" style="fill: none; stroke-dasharray: 2.96,1.28; stroke-dashoffset: 0; stroke: #b0b0b0; stroke-width: 0.8"/>
     </g>
     <g id="line2d_20">
      <g>
       <use xlink:href="#m1f35477a1b" x="45" y="121.536" style="stroke: #000000; stroke-width: 0.8"/>
      </g>
     </g>
     <g id="text_11">
      <!-- 98 -->
      <g transform="translate(25.275 125.335219)scale(0.1 -0.1)">
       <use xlink:href="#DejaVuSans-39"/>
       <use xlink:href="#DejaVuSans-38" x="63.623047"/>
      </g>
     </g>
    </g>
    <g id="ytick_5">
     <g id="line2d_21">
      <path d="M 45 78.048 
L 324 78.048 
" clip-path="url(#p78b48a09c5)" style="fill: none; stroke-dasharray: 2.96,1.28; stroke-dashoffset: 0; stroke: #b0b0b0; stroke-width: 0.8"/>
     </g>
     <g id="line2d_22">
      <g>
       <use xlink:href="#m1f35477a1b" x="45" y="78.048" style="stroke: #000000; stroke-width: 0.8"/>
      </g>
     </g>
     <g id="text_12">
      <!-- 99 -->
      <g transform="translate(25.275 81.847219)scale(0.1 -0.1)">
       <use xlink:href="#DejaVuSans-39"/>
       <use xlink:href="#DejaVuSans-39" x="63.623047"/>
      </g>
     </g>
    </g>
    <g id="ytick_6">
     <g id="line2d_23">
      <path d="M 45 34.56 
L 324 34.56 
" clip-path="url(#p78b48a09c5)" style="fill: none; stroke-dasharray: 2.96,1.28; stroke-dashoffset: 0; stroke: #b0b0b0; stroke-width: 0.8"/>
     </g>
     <g id="line2d_24">
      <g>
       <use xlink:href="#m1f35477a1b" x="45" y="34.56" style="stroke: #000000; stroke-width: 0.8"/>
      </g>
     </g>
     <g id="text_13">
      <!-- 100 -->
      <g transform="translate(18.9125 38.359219)scale(0.1 -0.1)">
       <use xlink:href="#DejaVuSans-31"/>
       <use xlink:href="#DejaVuSans-30" x="63.623047"/>
       <use xlink:href="#DejaVuSans-30" x="127.246094"/>
      </g>
     </g>
    </g>
    <g id="text_14">
     <!-- Train Accuracy % -->
     <g transform="translate(12.832812 186.030781)rotate(-90)scale(0.1 -0.1)">
      <defs>
       <path id="DejaVuSans-54" d="M -19 4666 
L 3928 4666 
L 3928 4134 
L 2272 4134 
L 2272 0 
L 1638 0 
L 1638 4134 
L -19 4134 
L -19 4666 
z
" transform="scale(0.015625)"/>
       <path id="DejaVuSans-72" d="M 2631 2963 
Q 2534 3019 2420 3045 
Q 2306 3072 2169 3072 
Q 1681 3072 1420 2755 
Q 1159 2438 1159 1844 
L 1159 0 
L 581 0 
L 581 3500 
L 1159 3500 
L 1159 2956 
Q 1341 3275 1631 3429 
Q 1922 3584 2338 3584 
Q 2397 3584 2469 3576 
Q 2541 3569 2628 3553 
L 2631 2963 
z
" transform="scale(0.015625)"/>
       <path id="DejaVuSans-61" d="M 2194 1759 
Q 1497 1759 1228 1600 
Q 959 1441 959 1056 
Q 959 750 1161 570 
Q 1363 391 1709 391 
Q 2188 391 2477 730 
Q 2766 1069 2766 1631 
L 2766 1759 
L 2194 1759 
z
M 3341 1997 
L 3341 0 
L 2766 0 
L 2766 531 
Q 2569 213 2275 61 
Q 1981 -91 1556 -91 
Q 1019 -91 701 211 
Q 384 513 384 1019 
Q 384 1609 779 1909 
Q 1175 2209 1959 2209 
L 2766 2209 
L 2766 2266 
Q 2766 2663 2505 2880 
Q 2244 3097 1772 3097 
Q 1472 3097 1187 3025 
Q 903 2953 641 2809 
L 641 3341 
Q 956 3463 1253 3523 
Q 1550 3584 1831 3584 
Q 2591 3584 2966 3190 
Q 3341 2797 3341 1997 
z
" transform="scale(0.015625)"/>
       <path id="DejaVuSans-69" d="M 603 3500 
L 1178 3500 
L 1178 0 
L 603 0 
L 603 3500 
z
M 603 4863 
L 1178 4863 
L 1178 4134 
L 603 4134 
L 603 4863 
z
" transform="scale(0.015625)"/>
       <path id="DejaVuSans-6e" d="M 3513 2113 
L 3513 0 
L 2938 0 
L 2938 2094 
Q 2938 2591 2744 2837 
Q 2550 3084 2163 3084 
Q 1697 3084 1428 2787 
Q 1159 2491 1159 1978 
L 1159 0 
L 581 0 
L 581 3500 
L 1159 3500 
L 1159 2956 
Q 1366 3272 1645 3428 
Q 1925 3584 2291 3584 
Q 2894 3584 3203 3211 
Q 3513 2838 3513 2113 
z
" transform="scale(0.015625)"/>
       <path id="DejaVuSans-20" transform="scale(0.015625)"/>
       <path id="DejaVuSans-41" d="M 2188 4044 
L 1331 1722 
L 3047 1722 
L 2188 4044 
z
M 1831 4666 
L 2547 4666 
L 4325 0 
L 3669 0 
L 3244 1197 
L 1141 1197 
L 716 0 
L 50 0 
L 1831 4666 
z
" transform="scale(0.015625)"/>
       <path id="DejaVuSans-75" d="M 544 1381 
L 544 3500 
L 1119 3500 
L 1119 1403 
Q 1119 906 1312 657 
Q 1506 409 1894 409 
Q 2359 409 2629 706 
Q 2900 1003 2900 1516 
L 2900 3500 
L 3475 3500 
L 3475 0 
L 2900 0 
L 2900 538 
Q 2691 219 2414 64 
Q 2138 -91 1772 -91 
Q 1169 -91 856 284 
Q 544 659 544 1381 
z
M 1991 3584 
L 1991 3584 
z
" transform="scale(0.015625)"/>
       <path id="DejaVuSans-79" d="M 2059 -325 
Q 1816 -950 1584 -1140 
Q 1353 -1331 966 -1331 
L 506 -1331 
L 506 -850 
L 844 -850 
Q 1081 -850 1212 -737 
Q 1344 -625 1503 -206 
L 1606 56 
L 191 3500 
L 800 3500 
L 1894 763 
L 2988 3500 
L 3597 3500 
L 2059 -325 
z
" transform="scale(0.015625)"/>
       <path id="DejaVuSans-25" d="M 4653 2053 
Q 4381 2053 4226 1822 
Q 4072 1591 4072 1178 
Q 4072 772 4226 539 
Q 4381 306 4653 306 
Q 4919 306 5073 539 
Q 5228 772 5228 1178 
Q 5228 1588 5073 1820 
Q 4919 2053 4653 2053 
z
M 4653 2450 
Q 5147 2450 5437 2106 
Q 5728 1763 5728 1178 
Q 5728 594 5436 251 
Q 5144 -91 4653 -91 
Q 4153 -91 3862 251 
Q 3572 594 3572 1178 
Q 3572 1766 3864 2108 
Q 4156 2450 4653 2450 
z
M 1428 4353 
Q 1159 4353 1004 4120 
Q 850 3888 850 3481 
Q 850 3069 1003 2837 
Q 1156 2606 1428 2606 
Q 1700 2606 1854 2837 
Q 2009 3069 2009 3481 
Q 2009 3884 1853 4118 
Q 1697 4353 1428 4353 
z
M 4250 4750 
L 4750 4750 
L 1831 -91 
L 1331 -91 
L 4250 4750 
z
M 1428 4750 
Q 1922 4750 2215 4408 
Q 2509 4066 2509 3481 
Q 2509 2891 2217 2550 
Q 1925 2209 1428 2209 
Q 931 2209 642 2551 
Q 353 2894 353 3481 
Q 353 4063 643 4406 
Q 934 4750 1428 4750 
z
" transform="scale(0.015625)"/>
      </defs>
      <use xlink:href="#DejaVuSans-54"/>
      <use xlink:href="#DejaVuSans-72" x="46.333984"/>
      <use xlink:href="#DejaVuSans-61" x="87.447266"/>
      <use xlink:href="#DejaVuSans-69" x="148.726562"/>
      <use xlink:href="#DejaVuSans-6e" x="176.509766"/>
      <use xlink:href="#DejaVuSans-20" x="239.888672"/>
      <use xlink:href="#DejaVuSans-41" x="271.675781"/>
      <use xlink:href="#DejaVuSans-63" x="338.333984"/>
      <use xlink:href="#DejaVuSans-63" x="393.314453"/>
      <use xlink:href="#DejaVuSans-75" x="448.294922"/>
      <use xlink:href="#DejaVuSans-72" x="511.673828"/>
      <use xlink:href="#DejaVuSans-61" x="552.787109"/>
      <use xlink:href="#DejaVuSans-63" x="614.066406"/>
      <use xlink:href="#DejaVuSans-79" x="669.046875"/>
      <use xlink:href="#DejaVuSans-20" x="728.226562"/>
      <use xlink:href="#DejaVuSans-25" x="760.013672"/>
     </g>
    </g>
   </g>
   <g id="line2d_25">
    <path d="M 148.617099 289 
L 149.913223 285.993196 
L 152.475207 285.630823 
L 155.03719 278.455149 
L 157.599174 273.961507 
L 160.161157 269.612763 
L 162.72314 265.046284 
L 165.285124 259.030569 
L 167.847107 258.668195 
L 170.409091 258.305821 
L 172.971074 251.057828 
L 175.533058 251.782576 
L 178.095041 250.043026 
L 180.657025 244.027311 
L 183.219008 246.99888 
L 185.780992 239.750886 
L 188.342975 238.011337 
L 190.904959 235.981992 
L 193.466942 236.924216 
L 196.028926 233.372539 
L 198.590909 234.459919 
L 201.152893 230.835922 
L 203.714876 227.864095 
L 206.27686 228.951475 
L 208.838843 230.763344 
L 211.400826 230.110916 
L 213.96281 226.921871 
L 216.524793 225.544696 
L 219.086777 229.168692 
L 221.64876 230.473549 
L 224.210744 229.096373 
L 226.772727 223.297875 
L 229.334711 225.182322 
L 231.896694 218.224383 
L 234.458678 218.514179 
L 237.020661 219.456402 
L 239.582645 220.68868 
L 242.144628 217.716853 
L 244.706612 216.12246 
L 247.268595 217.137003 
L 249.830579 214.672706 
L 252.392562 215.904984 
L 254.954545 213.730482 
L 257.516529 211.411083 
L 260.078512 218.804233 
L 262.640496 211.990933 
L 265.202479 213.513006 
L 267.764463 214.382911 
L 270.326446 215.180237 
L 272.88843 212.13609 
L 275.450413 214.455489 
L 278.012397 212.933157 
L 280.57438 216.774629 
L 283.136364 213.875639 
L 285.698347 211.990933 
L 288.260331 214.745284 
L 290.822314 211.048709 
L 293.384298 216.919786 
L 295.946281 214.455489 
L 298.508264 214.600387 
L 301.070248 213.513006 
L 303.632231 217.427057 
L 306.194215 215.180237 
L 308.756198 214.817863 
L 311.318182 208.584413 
" clip-path="url(#p78b48a09c5)" style="fill: none; stroke: #1f77b4; stroke-width: 1.5; stroke-linecap: square"/>
   </g>
   <g id="line2d_26">
    <path d="M 59.020979 289 
L 60.243802 170.894952 
L 62.805785 151.760167 
L 65.367769 134.944782 
L 67.929752 127.624211 
L 70.491736 114.867774 
L 73.053719 116.607323 
L 75.615702 107.039931 
L 78.177686 104.430736 
L 80.739669 101.966439 
L 83.301653 99.64704 
L 85.863636 95.805568 
L 88.42562 88.847629 
L 90.987603 80.947208 
L 93.549587 77.323211 
L 96.11157 77.178313 
L 98.673554 79.280237 
L 101.235537 77.105735 
L 103.797521 75.728559 
L 106.359504 74.786336 
L 108.921488 72.177141 
L 111.483471 72.322039 
L 114.045455 66.233745 
L 116.607438 66.958493 
L 119.169421 66.016269 
L 121.731405 66.161167 
L 124.293388 64.85657 
L 126.855372 63.624551 
L 129.417355 62.029899 
L 131.979339 62.609749 
L 134.541322 61.594947 
L 137.103306 59.565602 
L 139.665289 61.015097 
L 142.227273 61.160254 
L 144.789256 57.608577 
L 147.35124 58.333324 
L 149.913223 57.753474 
L 152.475207 59.203228 
L 155.03719 57.463679 
L 157.599174 56.883829 
L 160.161157 58.116107 
L 162.72314 59.420704 
L 165.285124 58.840855 
L 167.847107 56.376558 
L 170.409091 56.521455 
L 172.971074 57.536257 
L 175.533058 58.985752 
L 178.095041 57.826053 
L 180.657025 58.043529 
L 183.219008 57.536257 
L 185.780992 56.159082 
L 188.342975 57.681155 
L 190.904959 56.594034 
L 193.466942 55.216858 
L 196.028926 58.623379 
L 198.590909 57.101305 
L 201.152893 57.536257 
L 203.714876 56.376558 
L 206.27686 56.811251 
L 208.838843 56.448877 
L 211.400826 57.608577 
L 213.96281 59.493024 
L 216.524793 57.536257 
L 219.086777 59.058331 
L 221.64876 57.97095 
L 224.210744 58.623379 
L 226.772727 55.941606 
L 229.334711 57.826053 
L 231.896694 57.463679 
L 234.458678 59.927976 
L 237.020661 57.463679 
L 239.582645 56.303979 
L 242.144628 56.014184 
L 244.706612 57.753474 
L 247.268595 57.318781 
L 249.830579 56.086503 
L 252.392562 57.173884 
L 254.954545 57.318781 
L 257.516529 56.521455 
L 260.078512 56.956408 
L 262.640496 57.826053 
L 265.202479 56.738931 
L 267.764463 59.348126 
L 270.326446 58.768276 
L 272.88843 58.840855 
L 275.450413 57.536257 
L 278.012397 58.333324 
L 280.57438 57.826053 
L 283.136364 58.405902 
L 285.698347 59.203228 
L 288.260331 57.608577 
L 290.822314 56.303979 
L 293.384298 58.985752 
L 295.946281 57.608577 
L 298.508264 57.246203 
L 301.070248 57.028727 
L 303.632231 57.681155 
L 306.194215 58.478481 
L 308.756198 58.623379 
L 311.318182 57.318781 
" clip-path="url(#p78b48a09c5)" style="fill: none; stroke: #ff7f0e; stroke-width: 1.5; stroke-linecap: square"/>
   </g>
   <g id="line2d_27">
    <path d="M 76.176675 289 
L 78.177686 276.715599 
L 80.739669 270.699884 
L 83.301653 263.089518 
L 85.863636 255.261675 
L 88.42562 245.621704 
L 90.987603 237.938759 
L 93.549587 231.488091 
L 96.11157 224.167779 
L 98.673554 224.602472 
L 101.235537 218.079486 
L 103.797521 212.208409 
L 106.359504 214.455489 
L 108.921488 209.744112 
L 111.483471 204.670621 
L 114.045455 195.103228 
L 116.607438 203.873295 
L 119.169421 196.19035 
L 121.731405 192.711251 
L 124.293388 192.638931 
L 126.855372 197.132573 
L 129.417355 189.30473 
L 131.979339 189.087254 
L 134.541322 185.535836 
L 137.103306 182.274213 
L 139.665289 185.246041 
L 142.227273 184.231239 
L 144.789256 181.476887 
L 147.35124 175.243696 
L 149.913223 175.02622 
L 152.475207 177.055565 
L 155.03719 172.779399 
L 157.599174 172.344447 
L 160.161157 172.779399 
L 162.72314 169.372879 
L 165.285124 170.387422 
L 167.847107 170.749795 
L 170.409091 168.720451 
L 172.971074 166.836003 
L 175.533058 165.241352 
L 178.095041 163.719278 
L 180.657025 163.936754 
L 183.219008 162.849633 
L 185.780992 163.501802 
L 188.342975 165.023876 
L 190.904959 165.966358 
L 193.466942 167.488432 
L 196.028926 164.081652 
L 198.590909 163.284585 
L 201.152893 164.299128 
L 203.714876 161.617355 
L 206.27686 164.009333 
L 208.838843 161.979729 
L 211.400826 160.602812 
L 213.96281 161.182662 
L 216.524793 163.067109 
L 219.086777 162.487259 
L 221.64876 164.299128 
L 224.210744 159.877806 
L 226.772727 162.921952 
L 229.334711 164.589183 
L 231.896694 159.877806 
L 234.458678 160.240439 
L 237.020661 167.415853 
L 239.582645 161.254981 
L 242.144628 159.370534 
L 244.706612 161.32756 
L 247.268595 161.90741 
L 249.830579 160.457655 
L 252.392562 161.617355 
L 254.954545 163.864435 
L 257.516529 158.428311 
L 260.078512 162.921952 
L 262.640496 157.630985 
L 265.202479 162.632157 
L 267.764463 164.444285 
L 270.326446 161.689934 
L 272.88843 164.444285 
L 275.450413 161.472457 
L 278.012397 162.921952 
L 280.57438 159.515432 
L 283.136364 166.546208 
L 285.698347 158.790684 
L 288.260331 161.110084 
L 290.822314 159.297956 
L 293.384298 162.124886 
L 295.946281 166.038678 
L 298.508264 158.718365 
L 301.070248 163.646959 
L 303.632231 160.312758 
L 306.194215 160.965186 
L 308.756198 165.821201 
L 311.318182 162.704736 
" clip-path="url(#p78b48a09c5)" style="fill: none; stroke: #2ca02c; stroke-width: 1.5; stroke-linecap: square"/>
   </g>
   <g id="line2d_28">
    <path d="M 59.567743 289 
L 60.243802 187.057909 
L 62.805785 147.04905 
L 65.367769 136.031903 
L 67.929752 117.622125 
L 70.491736 111.533832 
L 73.053719 108.707161 
L 75.615702 100.951637 
L 78.177686 96.167941 
L 80.739669 96.747791 
L 83.301653 94.50097 
L 85.863636 85.006156 
L 88.42562 80.729732 
L 90.987603 80.657153 
L 93.549587 76.743361 
L 96.11157 74.49654 
L 98.673554 76.525885 
L 101.235537 73.336841 
L 103.797521 75.438764 
L 106.359504 74.49654 
L 108.921488 75.801138 
L 111.483471 68.698042 
L 114.045455 67.393445 
L 116.607438 65.3641 
L 119.169421 64.929148 
L 121.731405 63.479394 
L 124.293388 64.349298 
L 126.855372 62.682327 
L 129.417355 62.464851 
L 131.979339 60.652723 
L 134.541322 60.435247 
L 137.103306 58.623379 
L 139.665289 62.609749 
L 142.227273 58.261005 
L 144.789256 58.768276 
L 147.35124 58.478481 
L 149.913223 57.826053 
L 152.475207 59.927976 
L 155.03719 59.855397 
L 157.599174 59.058331 
L 160.161157 60.000554 
L 162.72314 58.768276 
L 165.285124 59.638181 
L 167.847107 57.028727 
L 170.409091 59.927976 
L 172.971074 58.695957 
L 175.533058 59.420704 
L 178.095041 60.21803 
L 180.657025 60.000554 
L 183.219008 59.493024 
L 185.780992 57.97095 
L 188.342975 60.000554 
L 190.904959 58.116107 
L 193.466942 60.725302 
L 196.028926 60.000554 
L 198.590909 58.405902 
L 201.152893 58.913174 
L 203.714876 56.231401 
L 206.27686 58.043529 
L 208.838843 60.29035 
L 211.400826 57.536257 
L 213.96281 57.826053 
L 216.524793 60.145452 
L 219.086777 59.203228 
L 221.64876 58.5508 
L 224.210744 59.493024 
L 226.772727 58.768276 
L 229.334711 58.623379 
L 231.896694 58.333324 
L 234.458678 57.463679 
L 237.020661 60.507826 
L 239.582645 58.478481 
L 242.144628 57.173884 
L 244.706612 59.275807 
L 247.268595 57.028727 
L 249.830579 59.638181 
L 252.392562 60.362928 
L 254.954545 57.826053 
L 257.516529 56.376558 
L 260.078512 56.738931 
L 262.640496 56.594034 
L 265.202479 56.303979 
L 267.764463 57.898631 
L 270.326446 59.13065 
L 272.88843 60.145452 
L 275.450413 56.303979 
L 278.012397 58.405902 
L 280.57438 59.203228 
L 283.136364 59.927976 
L 285.698347 59.058331 
L 288.260331 56.086503 
L 290.822314 55.869027 
L 293.384298 59.493024 
L 295.946281 59.348126 
L 298.508264 57.898631 
L 301.070248 57.97095 
L 303.632231 56.738931 
L 306.194215 56.811251 
L 308.756198 58.5508 
L 311.318182 58.695957 
" clip-path="url(#p78b48a09c5)" style="fill: none; stroke: #d62728; stroke-width: 1.5; stroke-linecap: square"/>
   </g>
   <g id="line2d_29">
    <path d="M 59.579689 289 
L 60.243802 189.667104 
L 62.805785 147.266526 
L 65.367769 131.973214 
L 67.929752 122.043448 
L 70.491736 109.214432 
L 73.053719 107.764678 
L 75.615702 101.531487 
L 78.177686 97.255322 
L 80.739669 94.790766 
L 83.301653 93.051475 
L 85.863636 81.889431 
L 88.42562 77.395789 
L 90.987603 80.512255 
L 93.549587 77.830482 
L 96.11157 73.119365 
L 98.673554 71.017442 
L 101.235537 68.770621 
L 103.797521 71.379815 
L 106.359504 69.277892 
L 108.921488 68.698042 
L 111.483471 69.785163 
L 114.045455 68.190771 
L 116.607438 63.189599 
L 119.169421 65.653896 
L 121.731405 67.10339 
L 124.293388 67.031071 
L 126.855372 65.146624 
L 129.417355 64.349298 
L 131.979339 63.334496 
L 134.541322 63.769448 
L 137.103306 62.53717 
L 139.665289 63.407075 
L 142.227273 62.754646 
L 144.789256 60.21803 
L 147.35124 60.000554 
L 149.913223 60.507826 
L 152.475207 60.725302 
L 155.03719 60.435247 
L 157.599174 62.029899 
L 160.161157 59.927976 
L 162.72314 61.450049 
L 165.285124 60.362928 
L 167.847107 61.232573 
L 170.409091 60.435247 
L 172.971074 59.638181 
L 175.533058 60.21803 
L 178.095041 61.957321 
L 180.657025 61.377471 
L 183.219008 61.450049 
L 185.780992 60.362928 
L 188.342975 63.334496 
L 190.904959 60.21803 
L 193.466942 62.972123 
L 196.028926 60.652723 
L 198.590909 62.53717 
L 201.152893 60.725302 
L 203.714876 58.913174 
L 206.27686 59.7105 
L 208.838843 62.609749 
L 211.400826 59.058331 
L 213.96281 60.000554 
L 216.524793 60.000554 
L 219.086777 60.000554 
L 221.64876 61.957321 
L 224.210744 61.305152 
L 226.772727 62.029899 
L 229.334711 61.087675 
L 231.896694 61.812423 
L 234.458678 60.507826 
L 237.020661 62.464851 
L 239.582645 60.870199 
L 242.144628 59.855397 
L 244.706612 59.493024 
L 247.268595 58.913174 
L 249.830579 62.174797 
L 252.392562 61.305152 
L 254.954545 59.203228 
L 257.516529 58.5508 
L 260.078512 58.333324 
L 262.640496 58.695957 
L 265.202479 58.188426 
L 267.764463 60.362928 
L 270.326446 61.522628 
L 272.88843 60.580404 
L 275.450413 57.898631 
L 278.012397 60.870199 
L 280.57438 62.174797 
L 283.136364 61.160254 
L 285.698347 62.754646 
L 288.260331 58.623379 
L 290.822314 61.450049 
L 293.384298 61.812423 
L 295.946281 58.985752 
L 298.508264 60.725302 
L 301.070248 60.942778 
L 303.632231 59.783078 
L 306.194215 58.5508 
L 308.756198 60.29035 
L 311.318182 59.638181 
" clip-path="url(#p78b48a09c5)" style="fill: none; stroke: #9467bd; stroke-width: 1.5; stroke-linecap: square"/>
   </g>
   <g id="line2d_30">
    <path d="M 59.584637 289 
L 60.243802 189.232411 
L 62.805785 152.340017 
L 65.367769 136.321958 
L 67.929752 124.000214 
L 70.491736 115.882576 
L 73.053719 113.3457 
L 75.615702 105.590436 
L 78.177686 103.63341 
L 80.739669 99.502142 
L 83.301653 99.429564 
L 85.863636 96.24052 
L 88.42562 93.776223 
L 90.987603 93.848542 
L 93.549587 88.992527 
L 96.11157 84.860999 
L 98.673554 85.875801 
L 101.235537 82.614179 
L 103.797521 84.426306 
L 106.359504 80.874629 
L 108.921488 81.527057 
L 111.483471 81.744534 
L 114.045455 80.077562 
L 116.607438 77.395789 
L 119.169421 80.584834 
L 121.731405 77.178313 
L 124.293388 78.338013 
L 126.855372 79.64261 
L 129.417355 77.468109 
L 131.979339 77.323211 
L 134.541322 76.090933 
L 137.103306 77.178313 
L 139.665289 78.338013 
L 142.227273 73.40916 
L 144.789256 73.771793 
L 147.35124 76.23609 
L 149.913223 74.49654 
L 152.475207 76.81594 
L 155.03719 75.946035 
L 157.599174 76.380988 
L 160.161157 75.583662 
L 162.72314 76.163511 
L 165.285124 75.293866 
L 167.847107 74.351643 
L 170.409091 75.801138 
L 172.971074 74.641438 
L 175.533058 75.873716 
L 178.095041 75.583662 
L 180.657025 76.380988 
L 183.219008 77.975639 
L 185.780992 74.061588 
L 188.342975 74.279064 
L 190.904959 75.366186 
L 193.466942 76.888259 
L 196.028926 76.888259 
L 198.590909 75.511083 
L 201.152893 75.003812 
L 203.714876 74.351643 
L 206.27686 72.539515 
L 208.838843 75.65624 
L 211.400826 73.046786 
L 213.96281 75.293866 
L 216.524793 75.801138 
L 219.086777 76.888259 
L 221.64876 76.380988 
L 224.210744 75.801138 
L 226.772727 73.626636 
L 229.334711 77.468109 
L 231.896694 75.366186 
L 234.458678 73.699215 
L 237.020661 76.018614 
L 239.582645 74.061588 
L 242.144628 71.524713 
L 244.706612 76.090933 
L 247.268595 73.40916 
L 249.830579 75.003812 
L 252.392562 74.858914 
L 254.954545 74.206486 
L 257.516529 72.104563 
L 260.078512 72.394617 
L 262.640496 75.438764 
L 265.202479 72.684413 
L 267.764463 76.090933 
L 270.326446 74.786336 
L 272.88843 76.380988 
L 275.450413 74.786336 
L 278.012397 75.148709 
L 280.57438 74.134167 
L 283.136364 75.583662 
L 285.698347 76.23609 
L 288.260331 76.670783 
L 290.822314 74.134167 
L 293.384298 77.323211 
L 295.946281 75.366186 
L 298.508264 77.685585 
L 301.070248 77.105735 
L 303.632231 73.554317 
L 306.194215 75.511083 
L 308.756198 73.554317 
L 311.318182 74.351643 
" clip-path="url(#p78b48a09c5)" style="fill: none; stroke: #8c564b; stroke-width: 1.5; stroke-linecap: square"/>
   </g>
   <g id="line2d_31">
    <path d="M 62.057566 289 
L 62.805785 243.447461 
L 65.367769 191.841606 
L 67.929752 154.224464 
L 70.491736 142.990101 
L 73.053719 128.349217 
L 75.615702 117.477228 
L 78.177686 111.316356 
L 80.739669 107.474883 
L 83.301653 98.269864 
L 85.863636 95.225718 
L 88.42562 92.036673 
L 90.987603 90.732076 
L 93.549587 89.572376 
L 96.11157 85.223632 
L 98.673554 85.440849 
L 101.235537 83.628981 
L 103.797521 82.541859 
L 106.359504 81.164684 
L 108.921488 76.453566 
L 111.483471 75.438764 
L 114.045455 74.134167 
L 116.607438 67.973295 
L 119.169421 70.799965 
L 121.731405 71.162339 
L 124.293388 71.017442 
L 126.855372 70.51017 
L 129.417355 67.973295 
L 131.979339 65.001726 
L 134.541322 66.596119 
L 137.103306 63.11702 
L 139.665289 64.78425 
L 142.227273 63.986925 
L 144.789256 60.79788 
L 147.35124 63.551972 
L 149.913223 62.174797 
L 152.475207 61.377471 
L 155.03719 63.044701 
L 157.599174 60.942778 
L 160.161157 61.450049 
L 162.72314 61.015097 
L 165.285124 59.855397 
L 167.847107 62.682327 
L 170.409091 60.21803 
L 172.971074 59.275807 
L 175.533058 60.580404 
L 178.095041 62.392273 
L 180.657025 59.855397 
L 183.219008 58.405902 
L 185.780992 58.840855 
L 188.342975 59.203228 
L 190.904959 58.116107 
L 193.466942 59.7105 
L 196.028926 61.740104 
L 198.590909 59.638181 
L 201.152893 59.565602 
L 203.714876 59.058331 
L 206.27686 61.667525 
L 208.838843 59.565602 
L 211.400826 60.145452 
L 213.96281 59.275807 
L 216.524793 60.072873 
L 219.086777 57.536257 
L 221.64876 61.087675 
L 224.210744 58.695957 
L 226.772727 59.565602 
L 229.334711 59.855397 
L 231.896694 59.203228 
L 234.458678 59.783078 
L 237.020661 61.160254 
L 239.582645 59.13065 
L 242.144628 58.116107 
L 244.706612 57.898631 
L 247.268595 58.333324 
L 249.830579 60.507826 
L 252.392562 61.087675 
L 254.954545 58.840855 
L 257.516529 60.725302 
L 260.078512 59.275807 
L 262.640496 57.3911 
L 265.202479 59.348126 
L 267.764463 58.840855 
L 270.326446 58.768276 
L 272.88843 60.145452 
L 275.450413 56.014184 
L 278.012397 58.985752 
L 280.57438 59.783078 
L 283.136364 60.435247 
L 285.698347 59.203228 
L 288.260331 58.623379 
L 290.822314 59.565602 
L 293.384298 59.638181 
L 295.946281 58.768276 
L 298.508264 59.927976 
L 301.070248 61.232573 
L 303.632231 59.638181 
L 306.194215 59.7105 
L 308.756198 58.840855 
L 311.318182 58.5508 
" clip-path="url(#p78b48a09c5)" style="fill: none; stroke: #e377c2; stroke-width: 1.5; stroke-linecap: square"/>
   </g>
   <g id="line2d_32">
    <path d="M 62.080185 289 
L 62.805785 250.695455 
L 65.367769 192.494034 
L 67.929752 172.924297 
L 70.491736 146.034248 
L 73.053719 133.132913 
L 75.615702 121.898291 
L 78.177686 117.984499 
L 80.739669 113.128224 
L 83.301653 113.200803 
L 85.863636 108.77948 
L 88.42562 104.068363 
L 90.987603 103.705989 
L 93.549587 101.531487 
L 96.11157 98.269864 
L 98.673554 94.935922 
L 101.235537 92.833999 
L 103.797521 89.862172 
L 106.359504 91.6743 
L 108.921488 91.456824 
L 111.483471 85.875801 
L 114.045455 84.716102 
L 116.607438 80.80231 
L 119.169421 80.874629 
L 121.731405 80.512255 
L 124.293388 81.092105 
L 126.855372 78.410332 
L 129.417355 80.584834 
L 131.979339 79.71493 
L 134.541322 77.903061 
L 137.103306 76.743361 
L 139.665289 77.540687 
L 142.227273 77.178313 
L 144.789256 75.07639 
L 147.35124 74.931233 
L 149.913223 73.844112 
L 152.475207 74.423962 
L 155.03719 75.438764 
L 157.599174 74.56886 
L 160.161157 74.786336 
L 162.72314 74.714016 
L 165.285124 74.279064 
L 167.847107 74.931233 
L 170.409091 72.756991 
L 172.971074 72.032243 
L 175.533058 72.974467 
L 178.095041 73.554317 
L 180.657025 73.046786 
L 183.219008 72.684413 
L 185.780992 73.98901 
L 188.342975 74.061588 
L 190.904959 69.132994 
L 193.466942 71.234918 
L 196.028926 73.699215 
L 198.590909 72.612093 
L 201.152893 71.66987 
L 203.714876 71.09002 
L 206.27686 70.292694 
L 208.838843 74.56886 
L 211.400826 71.814767 
L 213.96281 72.829569 
L 216.524793 72.394617 
L 219.086777 72.104563 
L 221.64876 73.916691 
L 224.210744 71.017442 
L 226.772727 70.00264 
L 229.334711 73.046786 
L 231.896694 71.887087 
L 234.458678 72.974467 
L 237.020661 71.162339 
L 239.582645 71.887087 
L 242.144628 70.799965 
L 244.706612 72.756991 
L 247.268595 70.51017 
L 249.830579 71.887087 
L 252.392562 72.684413 
L 254.954545 68.408247 
L 257.516529 74.061588 
L 260.078512 71.814767 
L 262.640496 70.365013 
L 265.202479 69.93032 
L 267.764463 72.104563 
L 270.326446 72.032243 
L 272.88843 72.756991 
L 275.450413 69.785163 
L 278.012397 73.046786 
L 280.57438 68.84294 
L 283.136364 73.626636 
L 285.698347 72.322039 
L 288.260331 70.582489 
L 290.822314 73.481738 
L 293.384298 73.191943 
L 295.946281 72.829569 
L 298.508264 71.234918 
L 301.070248 74.134167 
L 303.632231 71.959665 
L 306.194215 71.959665 
L 308.756198 71.742189 
L 311.318182 72.032243 
" clip-path="url(#p78b48a09c5)" style="fill: none; stroke-dasharray: 5.55,2.4; stroke-dashoffset: 0; stroke: #7f7f7f; stroke-width: 1.5"/>
   </g>
   <g id="patch_3">
    <path d="M 45 252 
L 45 34.56 
" style="fill: none; stroke: #000000; stroke-width: 0.8; stroke-linejoin: miter; stroke-linecap: square"/>
   </g>
   <g id="patch_4">
    <path d="M 324 252 
L 324 34.56 
" style="fill: none; stroke: #000000; stroke-width: 0.8; stroke-linejoin: miter; stroke-linecap: square"/>
   </g>
   <g id="patch_5">
    <path d="M 45 252 
L 324 252 
" style="fill: none; stroke: #000000; stroke-width: 0.8; stroke-linejoin: miter; stroke-linecap: square"/>
   </g>
   <g id="patch_6">
    <path d="M 45 34.56 
L 324 34.56 
" style="fill: none; stroke: #000000; stroke-width: 0.8; stroke-linejoin: miter; stroke-linecap: square"/>
   </g>
   <g id="text_15">
    <!-- Train Accuracy on MNIST -->
    <g transform="translate(110.61 28.56)scale(0.12 -0.12)">
     <defs>
      <path id="DejaVuSans-4d" d="M 628 4666 
L 1569 4666 
L 2759 1491 
L 3956 4666 
L 4897 4666 
L 4897 0 
L 4281 0 
L 4281 4097 
L 3078 897 
L 2444 897 
L 1241 4097 
L 1241 0 
L 628 0 
L 628 4666 
z
" transform="scale(0.015625)"/>
      <path id="DejaVuSans-4e" d="M 628 4666 
L 1478 4666 
L 3547 763 
L 3547 4666 
L 4159 4666 
L 4159 0 
L 3309 0 
L 1241 3903 
L 1241 0 
L 628 0 
L 628 4666 
z
" transform="scale(0.015625)"/>
      <path id="DejaVuSans-49" d="M 628 4666 
L 1259 4666 
L 1259 0 
L 628 0 
L 628 4666 
z
" transform="scale(0.015625)"/>
      <path id="DejaVuSans-53" d="M 3425 4513 
L 3425 3897 
Q 3066 4069 2747 4153 
Q 2428 4238 2131 4238 
Q 1616 4238 1336 4038 
Q 1056 3838 1056 3469 
Q 1056 3159 1242 3001 
Q 1428 2844 1947 2747 
L 2328 2669 
Q 3034 2534 3370 2195 
Q 3706 1856 3706 1288 
Q 3706 609 3251 259 
Q 2797 -91 1919 -91 
Q 1588 -91 1214 -16 
Q 841 59 441 206 
L 441 856 
Q 825 641 1194 531 
Q 1563 422 1919 422 
Q 2459 422 2753 634 
Q 3047 847 3047 1241 
Q 3047 1584 2836 1778 
Q 2625 1972 2144 2069 
L 1759 2144 
Q 1053 2284 737 2584 
Q 422 2884 422 3419 
Q 422 4038 858 4394 
Q 1294 4750 2059 4750 
Q 2388 4750 2728 4690 
Q 3069 4631 3425 4513 
z
" transform="scale(0.015625)"/>
     </defs>
     <use xlink:href="#DejaVuSans-54"/>
     <use xlink:href="#DejaVuSans-72" x="46.333984"/>
     <use xlink:href="#DejaVuSans-61" x="87.447266"/>
     <use xlink:href="#DejaVuSans-69" x="148.726562"/>
     <use xlink:href="#DejaVuSans-6e" x="176.509766"/>
     <use xlink:href="#DejaVuSans-20" x="239.888672"/>
     <use xlink:href="#DejaVuSans-41" x="271.675781"/>
     <use xlink:href="#DejaVuSans-63" x="338.333984"/>
     <use xlink:href="#DejaVuSans-63" x="393.314453"/>
     <use xlink:href="#DejaVuSans-75" x="448.294922"/>
     <use xlink:href="#DejaVuSans-72" x="511.673828"/>
     <use xlink:href="#DejaVuSans-61" x="552.787109"/>
     <use xlink:href="#DejaVuSans-63" x="614.066406"/>
     <use xlink:href="#DejaVuSans-79" x="669.046875"/>
     <use xlink:href="#DejaVuSans-20" x="728.226562"/>
     <use xlink:href="#DejaVuSans-6f" x="760.013672"/>
     <use xlink:href="#DejaVuSans-6e" x="821.195312"/>
     <use xlink:href="#DejaVuSans-20" x="884.574219"/>
     <use xlink:href="#DejaVuSans-4d" x="916.361328"/>
     <use xlink:href="#DejaVuSans-4e" x="1002.640625"/>
     <use xlink:href="#DejaVuSans-49" x="1077.445312"/>
     <use xlink:href="#DejaVuSans-53" x="1106.9375"/>
     <use xlink:href="#DejaVuSans-54" x="1170.414062"/>
    </g>
   </g>
   <g id="legend_1">
    <g id="patch_7">
     <path d="M 227.273438 247 
L 317 247 
Q 319 247 319 245 
L 319 128.575 
Q 319 126.575 317 126.575 
L 227.273438 126.575 
Q 225.273438 126.575 225.273438 128.575 
L 225.273438 245 
Q 225.273438 247 227.273438 247 
z
" style="fill: #ffffff; opacity: 0.8; stroke: #cccccc; stroke-linejoin: miter"/>
    </g>
    <g id="line2d_33">
     <path d="M 229.273438 134.673438 
L 239.273438 134.673438 
L 249.273438 134.673438 
" style="fill: none; stroke: #1f77b4; stroke-width: 1.5; stroke-linecap: square"/>
    </g>
    <g id="text_16">
     <!-- SGD -->
     <g transform="translate(257.273438 138.173438)scale(0.1 -0.1)">
      <defs>
       <path id="DejaVuSans-47" d="M 3809 666 
L 3809 1919 
L 2778 1919 
L 2778 2438 
L 4434 2438 
L 4434 434 
Q 4069 175 3628 42 
Q 3188 -91 2688 -91 
Q 1594 -91 976 548 
Q 359 1188 359 2328 
Q 359 3472 976 4111 
Q 1594 4750 2688 4750 
Q 3144 4750 3555 4637 
Q 3966 4525 4313 4306 
L 4313 3634 
Q 3963 3931 3569 4081 
Q 3175 4231 2741 4231 
Q 1884 4231 1454 3753 
Q 1025 3275 1025 2328 
Q 1025 1384 1454 906 
Q 1884 428 2741 428 
Q 3075 428 3337 486 
Q 3600 544 3809 666 
z
" transform="scale(0.015625)"/>
       <path id="DejaVuSans-44" d="M 1259 4147 
L 1259 519 
L 2022 519 
Q 2988 519 3436 956 
Q 3884 1394 3884 2338 
Q 3884 3275 3436 3711 
Q 2988 4147 2022 4147 
L 1259 4147 
z
M 628 4666 
L 1925 4666 
Q 3281 4666 3915 4102 
Q 4550 3538 4550 2338 
Q 4550 1131 3912 565 
Q 3275 0 1925 0 
L 628 0 
L 628 4666 
z
" transform="scale(0.015625)"/>
      </defs>
      <use xlink:href="#DejaVuSans-53"/>
      <use xlink:href="#DejaVuSans-47" x="63.476562"/>
      <use xlink:href="#DejaVuSans-44" x="140.966797"/>
     </g>
    </g>
    <g id="line2d_34">
     <path d="M 229.273438 149.351563 
L 239.273438 149.351563 
L 249.273438 149.351563 
" style="fill: none; stroke: #ff7f0e; stroke-width: 1.5; stroke-linecap: square"/>
    </g>
    <g id="text_17">
     <!-- RMSprop -->
     <g transform="translate(257.273438 152.851563)scale(0.1 -0.1)">
      <defs>
       <path id="DejaVuSans-52" d="M 2841 2188 
Q 3044 2119 3236 1894 
Q 3428 1669 3622 1275 
L 4263 0 
L 3584 0 
L 2988 1197 
Q 2756 1666 2539 1819 
Q 2322 1972 1947 1972 
L 1259 1972 
L 1259 0 
L 628 0 
L 628 4666 
L 2053 4666 
Q 2853 4666 3247 4331 
Q 3641 3997 3641 3322 
Q 3641 2881 3436 2590 
Q 3231 2300 2841 2188 
z
M 1259 4147 
L 1259 2491 
L 2053 2491 
Q 2509 2491 2742 2702 
Q 2975 2913 2975 3322 
Q 2975 3731 2742 3939 
Q 2509 4147 2053 4147 
L 1259 4147 
z
" transform="scale(0.015625)"/>
      </defs>
      <use xlink:href="#DejaVuSans-52"/>
      <use xlink:href="#DejaVuSans-4d" x="69.482422"/>
      <use xlink:href="#DejaVuSans-53" x="155.761719"/>
      <use xlink:href="#DejaVuSans-70" x="219.238281"/>
      <use xlink:href="#DejaVuSans-72" x="282.714844"/>
      <use xlink:href="#DejaVuSans-6f" x="321.578125"/>
      <use xlink:href="#DejaVuSans-70" x="382.759766"/>
     </g>
    </g>
    <g id="line2d_35">
     <path d="M 229.273438 164.029688 
L 239.273438 164.029688 
L 249.273438 164.029688 
" style="fill: none; stroke: #2ca02c; stroke-width: 1.5; stroke-linecap: square"/>
    </g>
    <g id="text_18">
     <!-- AdaGrad -->
     <g transform="translate(257.273438 167.529688)scale(0.1 -0.1)">
      <defs>
       <path id="DejaVuSans-64" d="M 2906 2969 
L 2906 4863 
L 3481 4863 
L 3481 0 
L 2906 0 
L 2906 525 
Q 2725 213 2448 61 
Q 2172 -91 1784 -91 
Q 1150 -91 751 415 
Q 353 922 353 1747 
Q 353 2572 751 3078 
Q 1150 3584 1784 3584 
Q 2172 3584 2448 3432 
Q 2725 3281 2906 2969 
z
M 947 1747 
Q 947 1113 1208 752 
Q 1469 391 1925 391 
Q 2381 391 2643 752 
Q 2906 1113 2906 1747 
Q 2906 2381 2643 2742 
Q 2381 3103 1925 3103 
Q 1469 3103 1208 2742 
Q 947 2381 947 1747 
z
" transform="scale(0.015625)"/>
      </defs>
      <use xlink:href="#DejaVuSans-41"/>
      <use xlink:href="#DejaVuSans-64" x="66.658203"/>
      <use xlink:href="#DejaVuSans-61" x="130.134766"/>
      <use xlink:href="#DejaVuSans-47" x="191.414062"/>
      <use xlink:href="#DejaVuSans-72" x="268.904297"/>
      <use xlink:href="#DejaVuSans-61" x="310.017578"/>
      <use xlink:href="#DejaVuSans-64" x="371.296875"/>
     </g>
    </g>
    <g id="line2d_36">
     <path d="M 229.273438 178.707813 
L 239.273438 178.707813 
L 249.273438 178.707813 
" style="fill: none; stroke: #d62728; stroke-width: 1.5; stroke-linecap: square"/>
    </g>
    <g id="text_19">
     <!-- Adam -->
     <g transform="translate(257.273438 182.207813)scale(0.1 -0.1)">
      <defs>
       <path id="DejaVuSans-6d" d="M 3328 2828 
Q 3544 3216 3844 3400 
Q 4144 3584 4550 3584 
Q 5097 3584 5394 3201 
Q 5691 2819 5691 2113 
L 5691 0 
L 5113 0 
L 5113 2094 
Q 5113 2597 4934 2840 
Q 4756 3084 4391 3084 
Q 3944 3084 3684 2787 
Q 3425 2491 3425 1978 
L 3425 0 
L 2847 0 
L 2847 2094 
Q 2847 2600 2669 2842 
Q 2491 3084 2119 3084 
Q 1678 3084 1418 2786 
Q 1159 2488 1159 1978 
L 1159 0 
L 581 0 
L 581 3500 
L 1159 3500 
L 1159 2956 
Q 1356 3278 1631 3431 
Q 1906 3584 2284 3584 
Q 2666 3584 2933 3390 
Q 3200 3197 3328 2828 
z
" transform="scale(0.015625)"/>
      </defs>
      <use xlink:href="#DejaVuSans-41"/>
      <use xlink:href="#DejaVuSans-64" x="66.658203"/>
      <use xlink:href="#DejaVuSans-61" x="130.134766"/>
      <use xlink:href="#DejaVuSans-6d" x="191.414062"/>
     </g>
    </g>
    <g id="line2d_37">
     <path d="M 229.273438 193.385938 
L 239.273438 193.385938 
L 249.273438 193.385938 
" style="fill: none; stroke: #9467bd; stroke-width: 1.5; stroke-linecap: square"/>
    </g>
    <g id="text_20">
     <!-- AMSGrad -->
     <g transform="translate(257.273438 196.885938)scale(0.1 -0.1)">
      <use xlink:href="#DejaVuSans-41"/>
      <use xlink:href="#DejaVuSans-4d" x="68.408203"/>
      <use xlink:href="#DejaVuSans-53" x="154.6875"/>
      <use xlink:href="#DejaVuSans-47" x="218.164062"/>
      <use xlink:href="#DejaVuSans-72" x="295.654297"/>
      <use xlink:href="#DejaVuSans-61" x="336.767578"/>
      <use xlink:href="#DejaVuSans-64" x="398.046875"/>
     </g>
    </g>
    <g id="line2d_38">
     <path d="M 229.273438 208.064063 
L 239.273438 208.064063 
L 249.273438 208.064063 
" style="fill: none; stroke: #8c564b; stroke-width: 1.5; stroke-linecap: square"/>
    </g>
    <g id="text_21">
     <!-- AdaBound -->
     <g transform="translate(257.273438 211.564063)scale(0.1 -0.1)">
      <defs>
       <path id="DejaVuSans-42" d="M 1259 2228 
L 1259 519 
L 2272 519 
Q 2781 519 3026 730 
Q 3272 941 3272 1375 
Q 3272 1813 3026 2020 
Q 2781 2228 2272 2228 
L 1259 2228 
z
M 1259 4147 
L 1259 2741 
L 2194 2741 
Q 2656 2741 2882 2914 
Q 3109 3088 3109 3444 
Q 3109 3797 2882 3972 
Q 2656 4147 2194 4147 
L 1259 4147 
z
M 628 4666 
L 2241 4666 
Q 2963 4666 3353 4366 
Q 3744 4066 3744 3513 
Q 3744 3084 3544 2831 
Q 3344 2578 2956 2516 
Q 3422 2416 3680 2098 
Q 3938 1781 3938 1306 
Q 3938 681 3513 340 
Q 3088 0 2303 0 
L 628 0 
L 628 4666 
z
" transform="scale(0.015625)"/>
      </defs>
      <use xlink:href="#DejaVuSans-41"/>
      <use xlink:href="#DejaVuSans-64" x="66.658203"/>
      <use xlink:href="#DejaVuSans-61" x="130.134766"/>
      <use xlink:href="#DejaVuSans-42" x="191.414062"/>
      <use xlink:href="#DejaVuSans-6f" x="260.017578"/>
      <use xlink:href="#DejaVuSans-75" x="321.199219"/>
      <use xlink:href="#DejaVuSans-6e" x="384.578125"/>
      <use xlink:href="#DejaVuSans-64" x="447.957031"/>
     </g>
    </g>
    <g id="line2d_39">
     <path d="M 229.273438 222.742188 
L 239.273438 222.742188 
L 249.273438 222.742188 
" style="fill: none; stroke: #e377c2; stroke-width: 1.5; stroke-linecap: square"/>
    </g>
    <g id="text_22">
     <!-- AdaMod -->
     <g transform="translate(257.273438 226.242188)scale(0.1 -0.1)">
      <use xlink:href="#DejaVuSans-41"/>
      <use xlink:href="#DejaVuSans-64" x="66.658203"/>
      <use xlink:href="#DejaVuSans-61" x="130.134766"/>
      <use xlink:href="#DejaVuSans-4d" x="191.414062"/>
      <use xlink:href="#DejaVuSans-6f" x="277.693359"/>
      <use xlink:href="#DejaVuSans-64" x="338.875"/>
     </g>
    </g>
    <g id="line2d_40">
     <path d="M 229.273438 237.420313 
L 239.273438 237.420313 
L 249.273438 237.420313 
" style="fill: none; stroke-dasharray: 5.55,2.4; stroke-dashoffset: 0; stroke: #7f7f7f; stroke-width: 1.5"/>
    </g>
    <g id="text_23">
     <!-- AdaSmooth -->
     <g transform="translate(257.273438 240.920313)scale(0.1 -0.1)">
      <defs>
       <path id="DejaVuSans-74" d="M 1172 4494 
L 1172 3500 
L 2356 3500 
L 2356 3053 
L 1172 3053 
L 1172 1153 
Q 1172 725 1289 603 
Q 1406 481 1766 481 
L 2356 481 
L 2356 0 
L 1766 0 
Q 1100 0 847 248 
Q 594 497 594 1153 
L 594 3053 
L 172 3053 
L 172 3500 
L 594 3500 
L 594 4494 
L 1172 4494 
z
" transform="scale(0.015625)"/>
      </defs>
      <use xlink:href="#DejaVuSans-41"/>
      <use xlink:href="#DejaVuSans-64" x="66.658203"/>
      <use xlink:href="#DejaVuSans-61" x="130.134766"/>
      <use xlink:href="#DejaVuSans-53" x="191.414062"/>
      <use xlink:href="#DejaVuSans-6d" x="254.890625"/>
      <use xlink:href="#DejaVuSans-6f" x="352.302734"/>
      <use xlink:href="#DejaVuSans-6f" x="413.484375"/>
      <use xlink:href="#DejaVuSans-74" x="474.666016"/>
      <use xlink:href="#DejaVuSans-68" x="513.875"/>
     </g>
    </g>
   </g>
  </g>
 </g>
 <defs>
  <clipPath id="p78b48a09c5">
   <rect x="45" y="34.56" width="279" height="217.44"/>
  </clipPath>
 </defs>
</svg>
