<?xml version="1.0" encoding="utf-8" standalone="no"?>
<!DOCTYPE svg PUBLIC "-//W3C//DTD SVG 1.1//EN"
  "http://www.w3.org/Graphics/SVG/1.1/DTD/svg11.dtd">
<svg xmlns:xlink="http://www.w3.org/1999/xlink" width="460.8pt" height="345.6pt" viewBox="0 0 460.8 345.6" xmlns="http://www.w3.org/2000/svg" version="1.1">
 <metadata>
  <rdf:RDF xmlns:dc="http://purl.org/dc/elements/1.1/" xmlns:cc="http://creativecommons.org/ns#" xmlns:rdf="http://www.w3.org/1999/02/22-rdf-syntax-ns#">
   <cc:Work>
    <dc:type rdf:resource="http://purl.org/dc/dcmitype/StillImage"/>
    <dc:date>2023-03-06T15:20:30.638075</dc:date>
    <dc:format>image/svg+xml</dc:format>
    <dc:creator>
     <cc:Agent>
      <dc:title>Matplotlib v3.5.2, https://matplotlib.org/</dc:title>
     </cc:Agent>
    </dc:creator>
   </cc:Work>
  </rdf:RDF>
 </metadata>
 <defs>
  <style type="text/css">*{stroke-linejoin: round; stroke-linecap: butt}</style>
 </defs>
 <g id="figure_1">
  <g id="patch_1">
   <path d="M 0 345.6 
L 460.8 345.6 
L 460.8 0 
L 0 0 
z
" style="fill: #ffffff"/>
  </g>
  <g id="axes_1">
   <g id="patch_2">
    <path d="M 57.6 307.584 
L 414.72 307.584 
L 414.72 41.472 
L 57.6 41.472 
z
" style="fill: #ffffff"/>
   </g>
   <g id="matplotlib.axis_1">
    <g id="xtick_1">
     <g id="line2d_1">
      <path d="M 73.832727 307.584 
L 73.832727 41.472 
" clip-path="url(#p980b7b0329)" style="fill: none; stroke: #b0b0b0; stroke-width: 0.8; stroke-linecap: square"/>
     </g>
     <g id="line2d_2">
      <defs>
       <path id="m1509f8f439" d="M 0 0 
L 0 3.5 
" style="stroke: #000000; stroke-width: 0.8"/>
      </defs>
      <g>
       <use xlink:href="#m1509f8f439" x="73.832727" y="307.584" style="stroke: #000000; stroke-width: 0.8"/>
      </g>
     </g>
     <g id="text_1">
      <!-- 0 -->
      <g transform="translate(70.651477 322.182437)scale(0.1 -0.1)">
       <defs>
        <path id="DejaVuSans-30" d="M 2034 4250 
Q 1547 4250 1301 3770 
Q 1056 3291 1056 2328 
Q 1056 1369 1301 889 
Q 1547 409 2034 409 
Q 2525 409 2770 889 
Q 3016 1369 3016 2328 
Q 3016 3291 2770 3770 
Q 2525 4250 2034 4250 
z
M 2034 4750 
Q 2819 4750 3233 4129 
Q 3647 3509 3647 2328 
Q 3647 1150 3233 529 
Q 2819 -91 2034 -91 
Q 1250 -91 836 529 
Q 422 1150 422 2328 
Q 422 3509 836 4129 
Q 1250 4750 2034 4750 
z
" transform="scale(0.015625)"/>
       </defs>
       <use xlink:href="#DejaVuSans-30"/>
      </g>
     </g>
    </g>
    <g id="xtick_2">
     <g id="line2d_3">
      <path d="M 114.618474 307.584 
L 114.618474 41.472 
" clip-path="url(#p980b7b0329)" style="fill: none; stroke: #b0b0b0; stroke-width: 0.8; stroke-linecap: square"/>
     </g>
     <g id="line2d_4">
      <g>
       <use xlink:href="#m1509f8f439" x="114.618474" y="307.584" style="stroke: #000000; stroke-width: 0.8"/>
      </g>
     </g>
     <g id="text_2">
      <!-- 25 -->
      <g transform="translate(108.255974 322.182437)scale(0.1 -0.1)">
       <defs>
        <path id="DejaVuSans-32" d="M 1228 531 
L 3431 531 
L 3431 0 
L 469 0 
L 469 531 
Q 828 903 1448 1529 
Q 2069 2156 2228 2338 
Q 2531 2678 2651 2914 
Q 2772 3150 2772 3378 
Q 2772 3750 2511 3984 
Q 2250 4219 1831 4219 
Q 1534 4219 1204 4116 
Q 875 4013 500 3803 
L 500 4441 
Q 881 4594 1212 4672 
Q 1544 4750 1819 4750 
Q 2544 4750 2975 4387 
Q 3406 4025 3406 3419 
Q 3406 3131 3298 2873 
Q 3191 2616 2906 2266 
Q 2828 2175 2409 1742 
Q 1991 1309 1228 531 
z
" transform="scale(0.015625)"/>
        <path id="DejaVuSans-35" d="M 691 4666 
L 3169 4666 
L 3169 4134 
L 1269 4134 
L 1269 2991 
Q 1406 3038 1543 3061 
Q 1681 3084 1819 3084 
Q 2600 3084 3056 2656 
Q 3513 2228 3513 1497 
Q 3513 744 3044 326 
Q 2575 -91 1722 -91 
Q 1428 -91 1123 -41 
Q 819 9 494 109 
L 494 744 
Q 775 591 1075 516 
Q 1375 441 1709 441 
Q 2250 441 2565 725 
Q 2881 1009 2881 1497 
Q 2881 1984 2565 2268 
Q 2250 2553 1709 2553 
Q 1456 2553 1204 2497 
Q 953 2441 691 2322 
L 691 4666 
z
" transform="scale(0.015625)"/>
       </defs>
       <use xlink:href="#DejaVuSans-32"/>
       <use xlink:href="#DejaVuSans-35" x="63.623047"/>
      </g>
     </g>
    </g>
    <g id="xtick_3">
     <g id="line2d_5">
      <path d="M 155.404221 307.584 
L 155.404221 41.472 
" clip-path="url(#p980b7b0329)" style="fill: none; stroke: #b0b0b0; stroke-width: 0.8; stroke-linecap: square"/>
     </g>
     <g id="line2d_6">
      <g>
       <use xlink:href="#m1509f8f439" x="155.404221" y="307.584" style="stroke: #000000; stroke-width: 0.8"/>
      </g>
     </g>
     <g id="text_3">
      <!-- 50 -->
      <g transform="translate(149.041721 322.182437)scale(0.1 -0.1)">
       <use xlink:href="#DejaVuSans-35"/>
       <use xlink:href="#DejaVuSans-30" x="63.623047"/>
      </g>
     </g>
    </g>
    <g id="xtick_4">
     <g id="line2d_7">
      <path d="M 196.189968 307.584 
L 196.189968 41.472 
" clip-path="url(#p980b7b0329)" style="fill: none; stroke: #b0b0b0; stroke-width: 0.8; stroke-linecap: square"/>
     </g>
     <g id="line2d_8">
      <g>
       <use xlink:href="#m1509f8f439" x="196.189968" y="307.584" style="stroke: #000000; stroke-width: 0.8"/>
      </g>
     </g>
     <g id="text_4">
      <!-- 75 -->
      <g transform="translate(189.827468 322.182437)scale(0.1 -0.1)">
       <defs>
        <path id="DejaVuSans-37" d="M 525 4666 
L 3525 4666 
L 3525 4397 
L 1831 0 
L 1172 0 
L 2766 4134 
L 525 4134 
L 525 4666 
z
" transform="scale(0.015625)"/>
       </defs>
       <use xlink:href="#DejaVuSans-37"/>
       <use xlink:href="#DejaVuSans-35" x="63.623047"/>
      </g>
     </g>
    </g>
    <g id="xtick_5">
     <g id="line2d_9">
      <path d="M 236.975715 307.584 
L 236.975715 41.472 
" clip-path="url(#p980b7b0329)" style="fill: none; stroke: #b0b0b0; stroke-width: 0.8; stroke-linecap: square"/>
     </g>
     <g id="line2d_10">
      <g>
       <use xlink:href="#m1509f8f439" x="236.975715" y="307.584" style="stroke: #000000; stroke-width: 0.8"/>
      </g>
     </g>
     <g id="text_5">
      <!-- 100 -->
      <g transform="translate(227.431965 322.182437)scale(0.1 -0.1)">
       <defs>
        <path id="DejaVuSans-31" d="M 794 531 
L 1825 531 
L 1825 4091 
L 703 3866 
L 703 4441 
L 1819 4666 
L 2450 4666 
L 2450 531 
L 3481 531 
L 3481 0 
L 794 0 
L 794 531 
z
" transform="scale(0.015625)"/>
       </defs>
       <use xlink:href="#DejaVuSans-31"/>
       <use xlink:href="#DejaVuSans-30" x="63.623047"/>
       <use xlink:href="#DejaVuSans-30" x="127.246094"/>
      </g>
     </g>
    </g>
    <g id="xtick_6">
     <g id="line2d_11">
      <path d="M 277.761462 307.584 
L 277.761462 41.472 
" clip-path="url(#p980b7b0329)" style="fill: none; stroke: #b0b0b0; stroke-width: 0.8; stroke-linecap: square"/>
     </g>
     <g id="line2d_12">
      <g>
       <use xlink:href="#m1509f8f439" x="277.761462" y="307.584" style="stroke: #000000; stroke-width: 0.8"/>
      </g>
     </g>
     <g id="text_6">
      <!-- 125 -->
      <g transform="translate(268.217712 322.182437)scale(0.1 -0.1)">
       <use xlink:href="#DejaVuSans-31"/>
       <use xlink:href="#DejaVuSans-32" x="63.623047"/>
       <use xlink:href="#DejaVuSans-35" x="127.246094"/>
      </g>
     </g>
    </g>
    <g id="xtick_7">
     <g id="line2d_13">
      <path d="M 318.547209 307.584 
L 318.547209 41.472 
" clip-path="url(#p980b7b0329)" style="fill: none; stroke: #b0b0b0; stroke-width: 0.8; stroke-linecap: square"/>
     </g>
     <g id="line2d_14">
      <g>
       <use xlink:href="#m1509f8f439" x="318.547209" y="307.584" style="stroke: #000000; stroke-width: 0.8"/>
      </g>
     </g>
     <g id="text_7">
      <!-- 150 -->
      <g transform="translate(309.003459 322.182437)scale(0.1 -0.1)">
       <use xlink:href="#DejaVuSans-31"/>
       <use xlink:href="#DejaVuSans-35" x="63.623047"/>
       <use xlink:href="#DejaVuSans-30" x="127.246094"/>
      </g>
     </g>
    </g>
    <g id="xtick_8">
     <g id="line2d_15">
      <path d="M 359.332956 307.584 
L 359.332956 41.472 
" clip-path="url(#p980b7b0329)" style="fill: none; stroke: #b0b0b0; stroke-width: 0.8; stroke-linecap: square"/>
     </g>
     <g id="line2d_16">
      <g>
       <use xlink:href="#m1509f8f439" x="359.332956" y="307.584" style="stroke: #000000; stroke-width: 0.8"/>
      </g>
     </g>
     <g id="text_8">
      <!-- 175 -->
      <g transform="translate(349.789206 322.182437)scale(0.1 -0.1)">
       <use xlink:href="#DejaVuSans-31"/>
       <use xlink:href="#DejaVuSans-37" x="63.623047"/>
       <use xlink:href="#DejaVuSans-35" x="127.246094"/>
      </g>
     </g>
    </g>
    <g id="xtick_9">
     <g id="line2d_17">
      <path d="M 400.118703 307.584 
L 400.118703 41.472 
" clip-path="url(#p980b7b0329)" style="fill: none; stroke: #b0b0b0; stroke-width: 0.8; stroke-linecap: square"/>
     </g>
     <g id="line2d_18">
      <g>
       <use xlink:href="#m1509f8f439" x="400.118703" y="307.584" style="stroke: #000000; stroke-width: 0.8"/>
      </g>
     </g>
     <g id="text_9">
      <!-- 200 -->
      <g transform="translate(390.574953 322.182437)scale(0.1 -0.1)">
       <use xlink:href="#DejaVuSans-32"/>
       <use xlink:href="#DejaVuSans-30" x="63.623047"/>
       <use xlink:href="#DejaVuSans-30" x="127.246094"/>
      </g>
     </g>
    </g>
    <g id="text_10">
     <!-- Training Epoch -->
     <g transform="translate(192.209063 337.38025)scale(0.12 -0.12)">
      <defs>
       <path id="DejaVuSans-54" d="M -19 4666 
L 3928 4666 
L 3928 4134 
L 2272 4134 
L 2272 0 
L 1638 0 
L 1638 4134 
L -19 4134 
L -19 4666 
z
" transform="scale(0.015625)"/>
       <path id="DejaVuSans-72" d="M 2631 2963 
Q 2534 3019 2420 3045 
Q 2306 3072 2169 3072 
Q 1681 3072 1420 2755 
Q 1159 2438 1159 1844 
L 1159 0 
L 581 0 
L 581 3500 
L 1159 3500 
L 1159 2956 
Q 1341 3275 1631 3429 
Q 1922 3584 2338 3584 
Q 2397 3584 2469 3576 
Q 2541 3569 2628 3553 
L 2631 2963 
z
" transform="scale(0.015625)"/>
       <path id="DejaVuSans-61" d="M 2194 1759 
Q 1497 1759 1228 1600 
Q 959 1441 959 1056 
Q 959 750 1161 570 
Q 1363 391 1709 391 
Q 2188 391 2477 730 
Q 2766 1069 2766 1631 
L 2766 1759 
L 2194 1759 
z
M 3341 1997 
L 3341 0 
L 2766 0 
L 2766 531 
Q 2569 213 2275 61 
Q 1981 -91 1556 -91 
Q 1019 -91 701 211 
Q 384 513 384 1019 
Q 384 1609 779 1909 
Q 1175 2209 1959 2209 
L 2766 2209 
L 2766 2266 
Q 2766 2663 2505 2880 
Q 2244 3097 1772 3097 
Q 1472 3097 1187 3025 
Q 903 2953 641 2809 
L 641 3341 
Q 956 3463 1253 3523 
Q 1550 3584 1831 3584 
Q 2591 3584 2966 3190 
Q 3341 2797 3341 1997 
z
" transform="scale(0.015625)"/>
       <path id="DejaVuSans-69" d="M 603 3500 
L 1178 3500 
L 1178 0 
L 603 0 
L 603 3500 
z
M 603 4863 
L 1178 4863 
L 1178 4134 
L 603 4134 
L 603 4863 
z
" transform="scale(0.015625)"/>
       <path id="DejaVuSans-6e" d="M 3513 2113 
L 3513 0 
L 2938 0 
L 2938 2094 
Q 2938 2591 2744 2837 
Q 2550 3084 2163 3084 
Q 1697 3084 1428 2787 
Q 1159 2491 1159 1978 
L 1159 0 
L 581 0 
L 581 3500 
L 1159 3500 
L 1159 2956 
Q 1366 3272 1645 3428 
Q 1925 3584 2291 3584 
Q 2894 3584 3203 3211 
Q 3513 2838 3513 2113 
z
" transform="scale(0.015625)"/>
       <path id="DejaVuSans-67" d="M 2906 1791 
Q 2906 2416 2648 2759 
Q 2391 3103 1925 3103 
Q 1463 3103 1205 2759 
Q 947 2416 947 1791 
Q 947 1169 1205 825 
Q 1463 481 1925 481 
Q 2391 481 2648 825 
Q 2906 1169 2906 1791 
z
M 3481 434 
Q 3481 -459 3084 -895 
Q 2688 -1331 1869 -1331 
Q 1566 -1331 1297 -1286 
Q 1028 -1241 775 -1147 
L 775 -588 
Q 1028 -725 1275 -790 
Q 1522 -856 1778 -856 
Q 2344 -856 2625 -561 
Q 2906 -266 2906 331 
L 2906 616 
Q 2728 306 2450 153 
Q 2172 0 1784 0 
Q 1141 0 747 490 
Q 353 981 353 1791 
Q 353 2603 747 3093 
Q 1141 3584 1784 3584 
Q 2172 3584 2450 3431 
Q 2728 3278 2906 2969 
L 2906 3500 
L 3481 3500 
L 3481 434 
z
" transform="scale(0.015625)"/>
       <path id="DejaVuSans-20" transform="scale(0.015625)"/>
       <path id="DejaVuSans-45" d="M 628 4666 
L 3578 4666 
L 3578 4134 
L 1259 4134 
L 1259 2753 
L 3481 2753 
L 3481 2222 
L 1259 2222 
L 1259 531 
L 3634 531 
L 3634 0 
L 628 0 
L 628 4666 
z
" transform="scale(0.015625)"/>
       <path id="DejaVuSans-70" d="M 1159 525 
L 1159 -1331 
L 581 -1331 
L 581 3500 
L 1159 3500 
L 1159 2969 
Q 1341 3281 1617 3432 
Q 1894 3584 2278 3584 
Q 2916 3584 3314 3078 
Q 3713 2572 3713 1747 
Q 3713 922 3314 415 
Q 2916 -91 2278 -91 
Q 1894 -91 1617 61 
Q 1341 213 1159 525 
z
M 3116 1747 
Q 3116 2381 2855 2742 
Q 2594 3103 2138 3103 
Q 1681 3103 1420 2742 
Q 1159 2381 1159 1747 
Q 1159 1113 1420 752 
Q 1681 391 2138 391 
Q 2594 391 2855 752 
Q 3116 1113 3116 1747 
z
" transform="scale(0.015625)"/>
       <path id="DejaVuSans-6f" d="M 1959 3097 
Q 1497 3097 1228 2736 
Q 959 2375 959 1747 
Q 959 1119 1226 758 
Q 1494 397 1959 397 
Q 2419 397 2687 759 
Q 2956 1122 2956 1747 
Q 2956 2369 2687 2733 
Q 2419 3097 1959 3097 
z
M 1959 3584 
Q 2709 3584 3137 3096 
Q 3566 2609 3566 1747 
Q 3566 888 3137 398 
Q 2709 -91 1959 -91 
Q 1206 -91 779 398 
Q 353 888 353 1747 
Q 353 2609 779 3096 
Q 1206 3584 1959 3584 
z
" transform="scale(0.015625)"/>
       <path id="DejaVuSans-63" d="M 3122 3366 
L 3122 2828 
Q 2878 2963 2633 3030 
Q 2388 3097 2138 3097 
Q 1578 3097 1268 2742 
Q 959 2388 959 1747 
Q 959 1106 1268 751 
Q 1578 397 2138 397 
Q 2388 397 2633 464 
Q 2878 531 3122 666 
L 3122 134 
Q 2881 22 2623 -34 
Q 2366 -91 2075 -91 
Q 1284 -91 818 406 
Q 353 903 353 1747 
Q 353 2603 823 3093 
Q 1294 3584 2113 3584 
Q 2378 3584 2631 3529 
Q 2884 3475 3122 3366 
z
" transform="scale(0.015625)"/>
       <path id="DejaVuSans-68" d="M 3513 2113 
L 3513 0 
L 2938 0 
L 2938 2094 
Q 2938 2591 2744 2837 
Q 2550 3084 2163 3084 
Q 1697 3084 1428 2787 
Q 1159 2491 1159 1978 
L 1159 0 
L 581 0 
L 581 4863 
L 1159 4863 
L 1159 2956 
Q 1366 3272 1645 3428 
Q 1925 3584 2291 3584 
Q 2894 3584 3203 3211 
Q 3513 2838 3513 2113 
z
" transform="scale(0.015625)"/>
      </defs>
      <use xlink:href="#DejaVuSans-54"/>
      <use xlink:href="#DejaVuSans-72" x="46.333984"/>
      <use xlink:href="#DejaVuSans-61" x="87.447266"/>
      <use xlink:href="#DejaVuSans-69" x="148.726562"/>
      <use xlink:href="#DejaVuSans-6e" x="176.509766"/>
      <use xlink:href="#DejaVuSans-69" x="239.888672"/>
      <use xlink:href="#DejaVuSans-6e" x="267.671875"/>
      <use xlink:href="#DejaVuSans-67" x="331.050781"/>
      <use xlink:href="#DejaVuSans-20" x="394.527344"/>
      <use xlink:href="#DejaVuSans-45" x="426.314453"/>
      <use xlink:href="#DejaVuSans-70" x="489.498047"/>
      <use xlink:href="#DejaVuSans-6f" x="552.974609"/>
      <use xlink:href="#DejaVuSans-63" x="614.15625"/>
      <use xlink:href="#DejaVuSans-68" x="669.136719"/>
     </g>
    </g>
   </g>
   <g id="matplotlib.axis_2">
    <g id="ytick_1">
     <g id="line2d_19">
      <path d="M 57.6 291.930353 
L 414.72 291.930353 
" clip-path="url(#p980b7b0329)" style="fill: none; stroke: #b0b0b0; stroke-width: 0.8; stroke-linecap: square"/>
     </g>
     <g id="line2d_20">
      <defs>
       <path id="mcb16512c83" d="M 0 0 
L -3.5 0 
" style="stroke: #000000; stroke-width: 0.8"/>
      </defs>
      <g>
       <use xlink:href="#mcb16512c83" x="57.6" y="291.930353" style="stroke: #000000; stroke-width: 0.8"/>
      </g>
     </g>
     <g id="text_11">
      <!-- 40 -->
      <g transform="translate(37.875 295.729572)scale(0.1 -0.1)">
       <defs>
        <path id="DejaVuSans-34" d="M 2419 4116 
L 825 1625 
L 2419 1625 
L 2419 4116 
z
M 2253 4666 
L 3047 4666 
L 3047 1625 
L 3713 1625 
L 3713 1100 
L 3047 1100 
L 3047 0 
L 2419 0 
L 2419 1100 
L 313 1100 
L 313 1709 
L 2253 4666 
z
" transform="scale(0.015625)"/>
       </defs>
       <use xlink:href="#DejaVuSans-34"/>
       <use xlink:href="#DejaVuSans-30" x="63.623047"/>
      </g>
     </g>
    </g>
    <g id="ytick_2">
     <g id="line2d_21">
      <path d="M 57.6 260.623059 
L 414.72 260.623059 
" clip-path="url(#p980b7b0329)" style="fill: none; stroke: #b0b0b0; stroke-width: 0.8; stroke-linecap: square"/>
     </g>
     <g id="line2d_22">
      <g>
       <use xlink:href="#mcb16512c83" x="57.6" y="260.623059" style="stroke: #000000; stroke-width: 0.8"/>
      </g>
     </g>
     <g id="text_12">
      <!-- 50 -->
      <g transform="translate(37.875 264.422278)scale(0.1 -0.1)">
       <use xlink:href="#DejaVuSans-35"/>
       <use xlink:href="#DejaVuSans-30" x="63.623047"/>
      </g>
     </g>
    </g>
    <g id="ytick_3">
     <g id="line2d_23">
      <path d="M 57.6 229.315765 
L 414.72 229.315765 
" clip-path="url(#p980b7b0329)" style="fill: none; stroke: #b0b0b0; stroke-width: 0.8; stroke-linecap: square"/>
     </g>
     <g id="line2d_24">
      <g>
       <use xlink:href="#mcb16512c83" x="57.6" y="229.315765" style="stroke: #000000; stroke-width: 0.8"/>
      </g>
     </g>
     <g id="text_13">
      <!-- 60 -->
      <g transform="translate(37.875 233.114983)scale(0.1 -0.1)">
       <defs>
        <path id="DejaVuSans-36" d="M 2113 2584 
Q 1688 2584 1439 2293 
Q 1191 2003 1191 1497 
Q 1191 994 1439 701 
Q 1688 409 2113 409 
Q 2538 409 2786 701 
Q 3034 994 3034 1497 
Q 3034 2003 2786 2293 
Q 2538 2584 2113 2584 
z
M 3366 4563 
L 3366 3988 
Q 3128 4100 2886 4159 
Q 2644 4219 2406 4219 
Q 1781 4219 1451 3797 
Q 1122 3375 1075 2522 
Q 1259 2794 1537 2939 
Q 1816 3084 2150 3084 
Q 2853 3084 3261 2657 
Q 3669 2231 3669 1497 
Q 3669 778 3244 343 
Q 2819 -91 2113 -91 
Q 1303 -91 875 529 
Q 447 1150 447 2328 
Q 447 3434 972 4092 
Q 1497 4750 2381 4750 
Q 2619 4750 2861 4703 
Q 3103 4656 3366 4563 
z
" transform="scale(0.015625)"/>
       </defs>
       <use xlink:href="#DejaVuSans-36"/>
       <use xlink:href="#DejaVuSans-30" x="63.623047"/>
      </g>
     </g>
    </g>
    <g id="ytick_4">
     <g id="line2d_25">
      <path d="M 57.6 198.008471 
L 414.72 198.008471 
" clip-path="url(#p980b7b0329)" style="fill: none; stroke: #b0b0b0; stroke-width: 0.8; stroke-linecap: square"/>
     </g>
     <g id="line2d_26">
      <g>
       <use xlink:href="#mcb16512c83" x="57.6" y="198.008471" style="stroke: #000000; stroke-width: 0.8"/>
      </g>
     </g>
     <g id="text_14">
      <!-- 70 -->
      <g transform="translate(37.875 201.807689)scale(0.1 -0.1)">
       <use xlink:href="#DejaVuSans-37"/>
       <use xlink:href="#DejaVuSans-30" x="63.623047"/>
      </g>
     </g>
    </g>
    <g id="ytick_5">
     <g id="line2d_27">
      <path d="M 57.6 166.701176 
L 414.72 166.701176 
" clip-path="url(#p980b7b0329)" style="fill: none; stroke: #b0b0b0; stroke-width: 0.8; stroke-linecap: square"/>
     </g>
     <g id="line2d_28">
      <g>
       <use xlink:href="#mcb16512c83" x="57.6" y="166.701176" style="stroke: #000000; stroke-width: 0.8"/>
      </g>
     </g>
     <g id="text_15">
      <!-- 80 -->
      <g transform="translate(37.875 170.500395)scale(0.1 -0.1)">
       <defs>
        <path id="DejaVuSans-38" d="M 2034 2216 
Q 1584 2216 1326 1975 
Q 1069 1734 1069 1313 
Q 1069 891 1326 650 
Q 1584 409 2034 409 
Q 2484 409 2743 651 
Q 3003 894 3003 1313 
Q 3003 1734 2745 1975 
Q 2488 2216 2034 2216 
z
M 1403 2484 
Q 997 2584 770 2862 
Q 544 3141 544 3541 
Q 544 4100 942 4425 
Q 1341 4750 2034 4750 
Q 2731 4750 3128 4425 
Q 3525 4100 3525 3541 
Q 3525 3141 3298 2862 
Q 3072 2584 2669 2484 
Q 3125 2378 3379 2068 
Q 3634 1759 3634 1313 
Q 3634 634 3220 271 
Q 2806 -91 2034 -91 
Q 1263 -91 848 271 
Q 434 634 434 1313 
Q 434 1759 690 2068 
Q 947 2378 1403 2484 
z
M 1172 3481 
Q 1172 3119 1398 2916 
Q 1625 2713 2034 2713 
Q 2441 2713 2670 2916 
Q 2900 3119 2900 3481 
Q 2900 3844 2670 4047 
Q 2441 4250 2034 4250 
Q 1625 4250 1398 4047 
Q 1172 3844 1172 3481 
z
" transform="scale(0.015625)"/>
       </defs>
       <use xlink:href="#DejaVuSans-38"/>
       <use xlink:href="#DejaVuSans-30" x="63.623047"/>
      </g>
     </g>
    </g>
    <g id="ytick_6">
     <g id="line2d_29">
      <path d="M 57.6 135.393882 
L 414.72 135.393882 
" clip-path="url(#p980b7b0329)" style="fill: none; stroke: #b0b0b0; stroke-width: 0.8; stroke-linecap: square"/>
     </g>
     <g id="line2d_30">
      <g>
       <use xlink:href="#mcb16512c83" x="57.6" y="135.393882" style="stroke: #000000; stroke-width: 0.8"/>
      </g>
     </g>
     <g id="text_16">
      <!-- 90 -->
      <g transform="translate(37.875 139.193101)scale(0.1 -0.1)">
       <defs>
        <path id="DejaVuSans-39" d="M 703 97 
L 703 672 
Q 941 559 1184 500 
Q 1428 441 1663 441 
Q 2288 441 2617 861 
Q 2947 1281 2994 2138 
Q 2813 1869 2534 1725 
Q 2256 1581 1919 1581 
Q 1219 1581 811 2004 
Q 403 2428 403 3163 
Q 403 3881 828 4315 
Q 1253 4750 1959 4750 
Q 2769 4750 3195 4129 
Q 3622 3509 3622 2328 
Q 3622 1225 3098 567 
Q 2575 -91 1691 -91 
Q 1453 -91 1209 -44 
Q 966 3 703 97 
z
M 1959 2075 
Q 2384 2075 2632 2365 
Q 2881 2656 2881 3163 
Q 2881 3666 2632 3958 
Q 2384 4250 1959 4250 
Q 1534 4250 1286 3958 
Q 1038 3666 1038 3163 
Q 1038 2656 1286 2365 
Q 1534 2075 1959 2075 
z
" transform="scale(0.015625)"/>
       </defs>
       <use xlink:href="#DejaVuSans-39"/>
       <use xlink:href="#DejaVuSans-30" x="63.623047"/>
      </g>
     </g>
    </g>
    <g id="ytick_7">
     <g id="line2d_31">
      <path d="M 57.6 104.086588 
L 414.72 104.086588 
" clip-path="url(#p980b7b0329)" style="fill: none; stroke: #b0b0b0; stroke-width: 0.8; stroke-linecap: square"/>
     </g>
     <g id="line2d_32">
      <g>
       <use xlink:href="#mcb16512c83" x="57.6" y="104.086588" style="stroke: #000000; stroke-width: 0.8"/>
      </g>
     </g>
     <g id="text_17">
      <!-- 100 -->
      <g transform="translate(31.5125 107.885807)scale(0.1 -0.1)">
       <use xlink:href="#DejaVuSans-31"/>
       <use xlink:href="#DejaVuSans-30" x="63.623047"/>
       <use xlink:href="#DejaVuSans-30" x="127.246094"/>
      </g>
     </g>
    </g>
    <g id="ytick_8">
     <g id="line2d_33">
      <path d="M 57.6 72.779294 
L 414.72 72.779294 
" clip-path="url(#p980b7b0329)" style="fill: none; stroke: #b0b0b0; stroke-width: 0.8; stroke-linecap: square"/>
     </g>
     <g id="line2d_34">
      <g>
       <use xlink:href="#mcb16512c83" x="57.6" y="72.779294" style="stroke: #000000; stroke-width: 0.8"/>
      </g>
     </g>
     <g id="text_18">
      <!-- 110 -->
      <g transform="translate(31.5125 76.578513)scale(0.1 -0.1)">
       <use xlink:href="#DejaVuSans-31"/>
       <use xlink:href="#DejaVuSans-31" x="63.623047"/>
       <use xlink:href="#DejaVuSans-30" x="127.246094"/>
      </g>
     </g>
    </g>
    <g id="ytick_9">
     <g id="line2d_35">
      <path d="M 57.6 41.472 
L 414.72 41.472 
" clip-path="url(#p980b7b0329)" style="fill: none; stroke: #b0b0b0; stroke-width: 0.8; stroke-linecap: square"/>
     </g>
     <g id="line2d_36">
      <g>
       <use xlink:href="#mcb16512c83" x="57.6" y="41.472" style="stroke: #000000; stroke-width: 0.8"/>
      </g>
     </g>
     <g id="text_19">
      <!-- 120 -->
      <g transform="translate(31.5125 45.271219)scale(0.1 -0.1)">
       <use xlink:href="#DejaVuSans-31"/>
       <use xlink:href="#DejaVuSans-32" x="63.623047"/>
       <use xlink:href="#DejaVuSans-30" x="127.246094"/>
      </g>
     </g>
    </g>
    <g id="text_20">
     <!-- Perplexity -->
     <g transform="translate(25.016875 204.271125)rotate(-90)scale(0.12 -0.12)">
      <defs>
       <path id="DejaVuSans-50" d="M 1259 4147 
L 1259 2394 
L 2053 2394 
Q 2494 2394 2734 2622 
Q 2975 2850 2975 3272 
Q 2975 3691 2734 3919 
Q 2494 4147 2053 4147 
L 1259 4147 
z
M 628 4666 
L 2053 4666 
Q 2838 4666 3239 4311 
Q 3641 3956 3641 3272 
Q 3641 2581 3239 2228 
Q 2838 1875 2053 1875 
L 1259 1875 
L 1259 0 
L 628 0 
L 628 4666 
z
" transform="scale(0.015625)"/>
       <path id="DejaVuSans-65" d="M 3597 1894 
L 3597 1613 
L 953 1613 
Q 991 1019 1311 708 
Q 1631 397 2203 397 
Q 2534 397 2845 478 
Q 3156 559 3463 722 
L 3463 178 
Q 3153 47 2828 -22 
Q 2503 -91 2169 -91 
Q 1331 -91 842 396 
Q 353 884 353 1716 
Q 353 2575 817 3079 
Q 1281 3584 2069 3584 
Q 2775 3584 3186 3129 
Q 3597 2675 3597 1894 
z
M 3022 2063 
Q 3016 2534 2758 2815 
Q 2500 3097 2075 3097 
Q 1594 3097 1305 2825 
Q 1016 2553 972 2059 
L 3022 2063 
z
" transform="scale(0.015625)"/>
       <path id="DejaVuSans-6c" d="M 603 4863 
L 1178 4863 
L 1178 0 
L 603 0 
L 603 4863 
z
" transform="scale(0.015625)"/>
       <path id="DejaVuSans-78" d="M 3513 3500 
L 2247 1797 
L 3578 0 
L 2900 0 
L 1881 1375 
L 863 0 
L 184 0 
L 1544 1831 
L 300 3500 
L 978 3500 
L 1906 2253 
L 2834 3500 
L 3513 3500 
z
" transform="scale(0.015625)"/>
       <path id="DejaVuSans-74" d="M 1172 4494 
L 1172 3500 
L 2356 3500 
L 2356 3053 
L 1172 3053 
L 1172 1153 
Q 1172 725 1289 603 
Q 1406 481 1766 481 
L 2356 481 
L 2356 0 
L 1766 0 
Q 1100 0 847 248 
Q 594 497 594 1153 
L 594 3053 
L 172 3053 
L 172 3500 
L 594 3500 
L 594 4494 
L 1172 4494 
z
" transform="scale(0.015625)"/>
       <path id="DejaVuSans-79" d="M 2059 -325 
Q 1816 -950 1584 -1140 
Q 1353 -1331 966 -1331 
L 506 -1331 
L 506 -850 
L 844 -850 
Q 1081 -850 1212 -737 
Q 1344 -625 1503 -206 
L 1606 56 
L 191 3500 
L 800 3500 
L 1894 763 
L 2988 3500 
L 3597 3500 
L 2059 -325 
z
" transform="scale(0.015625)"/>
      </defs>
      <use xlink:href="#DejaVuSans-50"/>
      <use xlink:href="#DejaVuSans-65" x="56.677734"/>
      <use xlink:href="#DejaVuSans-72" x="118.201172"/>
      <use xlink:href="#DejaVuSans-70" x="159.314453"/>
      <use xlink:href="#DejaVuSans-6c" x="222.791016"/>
      <use xlink:href="#DejaVuSans-65" x="250.574219"/>
      <use xlink:href="#DejaVuSans-78" x="310.347656"/>
      <use xlink:href="#DejaVuSans-69" x="369.527344"/>
      <use xlink:href="#DejaVuSans-74" x="397.310547"/>
      <use xlink:href="#DejaVuSans-79" x="436.519531"/>
     </g>
    </g>
   </g>
   <g id="line2d_37">
    <path d="M 80.600283 -1 
L 81.989877 24.773933 
L 83.621307 48.736537 
L 85.252736 68.534145 
L 86.884166 86.38219 
L 88.515596 94.972378 
L 91.778456 120.609744 
L 93.409886 129.326686 
L 95.041316 134.092149 
L 96.672746 143.984991 
L 98.304175 145.24466 
L 99.935605 151.160765 
L 101.567035 158.270456 
L 103.198465 162.41029 
L 106.461325 173.038077 
L 108.092755 174.552933 
L 109.724185 177.862366 
L 111.355614 180.884216 
L 112.987044 183.27938 
L 114.618474 186.817574 
L 116.249904 189.084529 
L 117.881334 191.911604 
L 119.512764 193.063553 
L 121.144194 197.377103 
L 122.775624 195.215264 
L 124.407053 200.337144 
L 126.038483 200.679629 
L 127.669913 207.124117 
L 129.301343 208.705895 
L 130.932773 208.343229 
L 132.564203 210.123611 
L 134.195633 209.062025 
L 135.827063 211.043203 
L 137.458492 212.147055 
L 139.089922 215.268558 
L 140.721352 216.140822 
L 143.984212 216.996857 
L 145.615642 219.180793 
L 147.247072 218.276932 
L 148.878502 221.538305 
L 150.509931 222.91487 
L 152.141361 223.629049 
L 153.772791 226.101878 
L 155.404221 225.283904 
L 157.035651 226.215833 
L 158.667081 226.062109 
L 160.298511 227.549589 
L 161.929941 226.583695 
L 163.56137 226.378399 
L 165.1928 229.931303 
L 166.82423 232.417106 
L 168.45566 233.277749 
L 170.08709 233.329481 
L 171.71852 230.380037 
L 173.34995 233.326507 
L 174.98138 235.354468 
L 176.61281 234.94132 
L 178.244239 232.536985 
L 179.875669 232.793952 
L 181.507099 237.777574 
L 183.138529 237.557756 
L 184.769959 238.148021 
L 186.401389 239.162564 
L 188.032819 237.460935 
L 189.664249 238.229019 
L 191.295678 240.942698 
L 192.927108 242.056704 
L 194.558538 240.935115 
L 196.189968 242.949545 
L 197.821398 243.179968 
L 199.452828 240.184481 
L 201.084258 240.5471 
L 202.715688 243.1728 
L 204.347117 240.637518 
L 205.978547 243.613314 
L 207.609977 245.247188 
L 209.241407 245.760614 
L 210.872837 245.090881 
L 212.504267 246.272142 
L 214.135697 246.31026 
L 217.398556 245.144224 
L 219.029986 245.206261 
L 220.661416 248.251391 
L 222.292846 247.126418 
L 223.924276 248.416466 
L 225.555706 248.655857 
L 227.187136 249.109928 
L 228.818566 246.23678 
L 230.449995 249.805903 
L 232.081425 248.125983 
L 233.712855 249.475753 
L 235.344285 247.62492 
L 236.975715 270.122874 
L 238.607145 272.835893 
L 240.238575 276.126906 
L 243.501434 277.68582 
L 245.132864 277.334096 
L 246.764294 280.238485 
L 248.395724 281.772115 
L 250.027154 281.605133 
L 251.658584 283.892252 
L 253.290014 282.755916 
L 254.921444 284.307738 
L 258.184303 283.782154 
L 259.815733 285.825532 
L 261.447163 286.209017 
L 263.078593 287.108873 
L 264.710023 286.645363 
L 266.341453 288.262506 
L 267.972883 288.029779 
L 269.604312 289.458371 
L 271.235742 289.974164 
L 272.867172 289.304263 
L 274.498602 291.207819 
L 276.130032 290.480258 
L 277.761462 291.333562 
L 279.392892 292.758028 
L 281.024322 292.259662 
L 282.655751 293.602664 
L 284.287181 292.332786 
L 285.918611 293.745715 
L 287.550041 293.211141 
L 289.181471 293.347769 
L 290.812901 294.610088 
L 292.444331 294.451188 
L 294.075761 295.042704 
L 295.70719 294.258857 
L 297.33862 295.004126 
L 298.97005 296.408156 
L 300.60148 296.081589 
L 302.23291 295.508695 
L 303.86434 296.551676 
L 305.49577 299.166584 
L 307.1272 297.562141 
L 310.390059 299.373272 
L 312.021489 297.984517 
L 313.652919 298.855239 
L 315.284349 298.543834 
L 316.915779 299.144148 
L 318.547209 299.512586 
L 320.178639 299.243113 
L 321.810069 299.906749 
L 323.441498 299.13201 
L 325.072928 299.891755 
L 326.704358 301.508365 
L 328.335788 300.357958 
L 331.598648 299.867382 
L 333.230078 301.101276 
L 334.861508 298.878957 
L 336.492937 300.492725 
L 338.124367 300.147356 
L 339.755797 299.682858 
L 341.387227 300.610408 
L 343.018657 300.151212 
L 344.650087 300.785803 
L 346.281517 300.758632 
L 347.912947 301.590888 
L 349.544376 299.546079 
L 351.175806 300.2778 
L 352.807236 300.170422 
L 354.438666 300.350258 
L 356.070096 301.425783 
L 357.701526 299.552862 
L 359.332956 301.238263 
L 360.964386 301.875614 
L 362.595815 301.312106 
L 364.227245 301.132086 
L 365.858675 300.299057 
L 367.490105 299.952006 
L 369.121535 301.074568 
L 370.752965 299.519048 
L 372.384395 301.114982 
L 374.015825 301.75928 
L 375.647254 300.196303 
L 377.278684 302.53416 
L 378.910114 300.801926 
L 380.541544 301.402364 
L 382.172974 301.230799 
L 383.804404 301.897777 
L 385.435834 301.143168 
L 387.067264 301.135379 
L 388.698693 300.951148 
L 390.330123 302.097784 
L 391.961553 301.709084 
L 393.592983 302.987279 
L 395.224413 302.609799 
L 396.855843 302.113795 
L 398.487273 302.221951 
L 398.487273 302.221951 
" clip-path="url(#p980b7b0329)" style="fill: none; stroke: #1f77b4; stroke-width: 1.5; stroke-linecap: square"/>
   </g>
   <g id="line2d_38">
    <path d="M 84.7848 -1 
L 85.252736 7.436618 
L 88.515596 50.862014 
L 90.147026 66.120945 
L 91.778456 78.311436 
L 93.409886 95.03058 
L 95.041316 102.096706 
L 96.672746 112.721127 
L 98.304175 120.419543 
L 99.935605 132.67839 
L 101.567035 137.828743 
L 103.198465 141.838592 
L 104.829895 150.426813 
L 106.461325 154.298012 
L 108.092755 159.671469 
L 109.724185 162.627878 
L 111.355614 165.003192 
L 112.987044 169.241847 
L 114.618474 174.122615 
L 116.249904 176.774343 
L 117.881334 177.172357 
L 119.512764 180.290042 
L 121.144194 182.955687 
L 122.775624 184.811462 
L 124.407053 190.254675 
L 126.038483 190.155839 
L 127.669913 193.650447 
L 129.301343 192.626191 
L 130.932773 197.369591 
L 132.564203 200.183181 
L 134.195633 199.572209 
L 135.827063 201.655375 
L 137.458492 201.688519 
L 139.089922 205.482473 
L 140.721352 206.938087 
L 142.352782 207.991103 
L 143.984212 205.610276 
L 145.615642 208.19731 
L 147.247072 211.744118 
L 148.878502 211.647932 
L 150.509931 211.034145 
L 152.141361 215.834227 
L 153.772791 215.591763 
L 155.404221 217.220364 
L 157.035651 214.842183 
L 158.667081 216.463427 
L 160.298511 219.729476 
L 161.929941 221.094359 
L 163.56137 218.163159 
L 165.1928 221.383743 
L 166.82423 221.612616 
L 168.45566 223.656215 
L 170.08709 221.589818 
L 171.71852 224.605216 
L 173.34995 225.493829 
L 174.98138 225.544242 
L 176.61281 224.831027 
L 178.244239 227.36746 
L 179.875669 224.573834 
L 181.507099 226.477932 
L 183.138529 229.568071 
L 184.769959 228.605728 
L 186.401389 230.823715 
L 188.032819 230.521174 
L 189.664249 232.746066 
L 191.295678 234.071367 
L 192.927108 230.740161 
L 196.189968 234.324357 
L 197.821398 233.888735 
L 199.452828 233.000944 
L 201.084258 234.956556 
L 202.715688 236.668515 
L 204.347117 234.976573 
L 205.978547 236.425497 
L 207.609977 237.561812 
L 209.241407 237.69106 
L 210.872837 238.207448 
L 212.504267 237.887465 
L 214.135697 238.21138 
L 215.767127 240.736234 
L 217.398556 237.144946 
L 219.029986 239.948144 
L 220.661416 240.704573 
L 222.292846 236.700735 
L 223.924276 238.476482 
L 225.555706 241.404843 
L 227.187136 242.331422 
L 228.818566 239.10454 
L 230.449995 241.037911 
L 232.081425 244.439457 
L 233.712855 243.534913 
L 235.344285 243.442427 
L 236.975715 265.570294 
L 238.607145 269.141358 
L 240.238575 272.064521 
L 241.870005 274.369624 
L 243.501434 275.986053 
L 245.132864 275.257503 
L 246.764294 276.886527 
L 248.395724 277.076594 
L 250.027154 278.83784 
L 251.658584 278.553458 
L 253.290014 280.291458 
L 254.921444 281.698385 
L 256.552873 279.927628 
L 258.184303 283.333744 
L 259.815733 283.711189 
L 261.447163 284.761248 
L 263.078593 283.785492 
L 264.710023 283.682311 
L 266.341453 285.658934 
L 267.972883 286.901575 
L 269.604312 286.626522 
L 271.235742 287.249572 
L 272.867172 288.470387 
L 274.498602 288.135623 
L 276.130032 286.489576 
L 277.761462 289.190709 
L 279.392892 288.922212 
L 281.024322 289.720729 
L 282.655751 289.331027 
L 284.287181 289.406723 
L 285.918611 291.226844 
L 287.550041 291.898216 
L 289.181471 291.908613 
L 290.812901 292.599578 
L 292.444331 291.906358 
L 294.075761 291.399974 
L 295.70719 292.74045 
L 297.33862 292.970712 
L 298.97005 292.550304 
L 300.60148 292.783728 
L 302.23291 294.695553 
L 303.86434 293.09019 
L 305.49577 294.731836 
L 307.1272 295.720011 
L 308.75863 294.011817 
L 310.390059 295.177052 
L 312.021489 297.83531 
L 312.021489 297.83531 
" clip-path="url(#p980b7b0329)" style="fill: none; stroke-dasharray: 5.55,2.4; stroke-dashoffset: 0; stroke: #ff7f0e; stroke-width: 1.5"/>
   </g>
   <g id="line2d_39">
    <path d="M 92.453613 -1 
L 93.409886 3.506718 
L 95.041316 8.979669 
L 96.672746 21.287682 
L 98.304175 21.576435 
L 99.935605 29.528765 
L 101.567035 36.020269 
L 103.198465 38.446626 
L 104.829895 45.128978 
L 106.461325 51.00563 
L 108.092755 51.851538 
L 109.724185 53.620604 
L 111.355614 57.308606 
L 112.987044 59.087853 
L 114.618474 63.084833 
L 116.249904 64.197991 
L 117.881334 67.336352 
L 119.512764 66.834659 
L 121.144194 71.069353 
L 122.775624 69.154814 
L 124.407053 71.38543 
L 126.038483 71.950776 
L 127.669913 83.298462 
L 129.301343 82.358054 
L 130.932773 80.02182 
L 132.564203 81.089526 
L 134.195633 79.858706 
L 135.827063 82.067347 
L 137.458492 83.102579 
L 139.089922 84.582201 
L 140.721352 83.633398 
L 142.352782 84.631016 
L 143.984212 84.514395 
L 145.615642 86.944178 
L 147.247072 86.064261 
L 148.878502 89.812168 
L 150.509931 88.699209 
L 152.141361 89.435234 
L 153.772791 92.793465 
L 155.404221 92.398954 
L 158.667081 92.109625 
L 160.298511 92.607709 
L 161.929941 91.320148 
L 163.56137 89.8729 
L 166.82423 97.844221 
L 168.45566 97.044348 
L 170.08709 99.058245 
L 171.71852 93.667148 
L 173.34995 95.617227 
L 174.98138 98.642776 
L 176.61281 97.353002 
L 178.244239 95.09575 
L 179.875669 93.781152 
L 181.507099 100.090531 
L 183.138529 99.832944 
L 184.769959 99.064749 
L 186.401389 99.964135 
L 188.032819 97.136067 
L 189.664249 98.717031 
L 191.295678 101.882027 
L 192.927108 100.716928 
L 194.558538 100.983447 
L 196.189968 103.736485 
L 197.821398 103.501674 
L 199.452828 99.072418 
L 201.084258 97.746857 
L 202.715688 101.163059 
L 204.347117 98.369809 
L 205.978547 100.90586 
L 207.609977 102.543004 
L 209.241407 103.925526 
L 210.872837 100.992324 
L 212.504267 104.418485 
L 214.135697 102.425558 
L 215.767127 102.2433 
L 217.398556 99.36389 
L 219.029986 102.234554 
L 220.661416 103.289102 
L 222.292846 102.865252 
L 223.924276 105.806734 
L 225.555706 104.365702 
L 227.187136 105.324623 
L 228.818566 100.487683 
L 230.449995 105.277323 
L 232.081425 102.463207 
L 233.712855 104.642405 
L 235.344285 101.116767 
L 236.975715 172.559841 
L 238.607145 182.955973 
L 240.238575 190.889738 
L 241.870005 194.035158 
L 243.501434 198.24825 
L 245.132864 201.36989 
L 248.395724 209.575158 
L 250.027154 210.721399 
L 251.658584 214.41565 
L 253.290014 215.511841 
L 254.921444 217.488047 
L 256.552873 218.840527 
L 258.184303 219.856444 
L 259.815733 222.913625 
L 261.447163 224.248489 
L 263.078593 226.054411 
L 264.710023 226.310035 
L 266.341453 229.228109 
L 267.972883 230.559787 
L 269.604312 232.970368 
L 271.235742 233.245872 
L 272.867172 234.180345 
L 274.498602 237.557537 
L 276.130032 236.739446 
L 279.392892 241.331239 
L 281.024322 240.202249 
L 282.655751 242.65929 
L 284.287181 242.131233 
L 285.918611 244.218091 
L 287.550041 244.354731 
L 289.181471 245.046083 
L 290.812901 247.23473 
L 292.444331 246.847125 
L 294.075761 248.414355 
L 295.70719 248.213191 
L 297.33862 249.378548 
L 298.97005 251.136128 
L 300.60148 250.483737 
L 302.23291 250.722887 
L 303.86434 252.010699 
L 305.49577 255.066568 
L 307.1272 254.066889 
L 308.75863 255.639467 
L 310.390059 264.501235 
L 312.021489 262.943088 
L 313.652919 264.358004 
L 315.284349 263.858842 
L 316.915779 265.588566 
L 318.547209 265.779251 
L 320.178639 265.639162 
L 321.810069 267.08509 
L 323.441498 266.674628 
L 325.072928 267.488038 
L 326.704358 269.126993 
L 328.335788 268.809201 
L 329.967218 267.967143 
L 331.598648 267.602002 
L 333.230078 269.697682 
L 334.861508 267.170801 
L 336.492937 269.24016 
L 338.124367 268.147241 
L 339.755797 267.931443 
L 341.387227 269.877579 
L 343.018657 269.295719 
L 344.650087 270.19066 
L 346.281517 270.2932 
L 347.912947 271.379144 
L 349.544376 269.284979 
L 351.175806 270.24492 
L 352.807236 270.306286 
L 354.438666 269.55275 
L 356.070096 271.184999 
L 357.701526 269.936043 
L 359.332956 271.23012 
L 360.964386 272.04641 
L 362.595815 271.012319 
L 364.227245 271.983821 
L 365.858675 270.871626 
L 367.490105 270.576771 
L 369.121535 271.52486 
L 370.752965 270.410402 
L 372.384395 272.036047 
L 374.015825 272.751392 
L 375.647254 271.828142 
L 377.278684 273.802405 
L 378.910114 271.544148 
L 380.541544 271.931267 
L 382.172974 273.111434 
L 383.804404 272.86104 
L 385.435834 272.377726 
L 387.067264 273.201392 
L 388.698693 273.090991 
L 390.330123 274.363306 
L 391.961553 273.828127 
L 393.592983 275.292879 
L 395.224413 274.543692 
L 396.855843 274.735412 
L 398.487273 275.054951 
L 398.487273 275.054951 
" clip-path="url(#p980b7b0329)" style="fill: none; stroke-dasharray: 5.55,2.4; stroke-dashoffset: 0; stroke: #2ca02c; stroke-width: 1.5"/>
   </g>
   <g id="line2d_40">
    <path d="M 83.484283 -1 
L 83.621307 1.288364 
L 85.252736 22.529113 
L 86.884166 39.468422 
L 88.515596 57.701429 
L 90.147026 72.407689 
L 91.778456 82.950645 
L 93.409886 97.675495 
L 95.041316 106.02776 
L 96.672746 111.507203 
L 98.304175 118.557744 
L 99.935605 129.435323 
L 101.567035 135.982828 
L 103.198465 139.616044 
L 104.829895 147.187674 
L 106.461325 150.034011 
L 108.092755 156.958238 
L 109.724185 157.858029 
L 111.355614 162.638908 
L 112.987044 165.683682 
L 114.618474 171.334905 
L 116.249904 174.421777 
L 117.881334 174.653529 
L 119.512764 178.940303 
L 121.144194 179.898141 
L 122.775624 182.898001 
L 124.407053 188.831382 
L 126.038483 187.789452 
L 127.669913 191.417784 
L 129.301343 191.625807 
L 130.932773 196.529961 
L 132.564203 197.938718 
L 134.195633 198.211838 
L 135.827063 199.38494 
L 137.458492 199.938309 
L 139.089922 203.84831 
L 140.721352 205.186598 
L 142.352782 207.003322 
L 143.984212 205.037438 
L 145.615642 207.184104 
L 147.247072 211.282154 
L 148.878502 210.597189 
L 150.509931 211.151177 
L 152.141361 215.147392 
L 153.772791 215.209524 
L 155.404221 216.620894 
L 157.035651 215.967752 
L 158.667081 216.140209 
L 160.298511 220.046923 
L 161.929941 222.007333 
L 163.56137 219.118069 
L 165.1928 221.394497 
L 166.82423 221.788224 
L 168.45566 223.210209 
L 170.08709 222.81324 
L 171.71852 225.655081 
L 173.34995 226.160351 
L 174.98138 225.286188 
L 176.61281 225.044613 
L 178.244239 227.143931 
L 179.875669 225.33771 
L 181.507099 226.549029 
L 183.138529 230.075863 
L 184.769959 230.278263 
L 186.401389 231.792784 
L 188.032819 230.972244 
L 191.295678 235.369392 
L 192.927108 230.427342 
L 194.558538 234.045943 
L 196.189968 234.630482 
L 197.821398 235.698633 
L 199.452828 235.443662 
L 201.084258 235.532479 
L 202.715688 237.645814 
L 204.347117 235.094846 
L 205.978547 237.009093 
L 207.609977 237.704423 
L 209.241407 239.029809 
L 210.872837 239.317309 
L 212.504267 239.396313 
L 215.767127 241.989627 
L 217.398556 238.519719 
L 219.029986 240.658418 
L 220.661416 241.33698 
L 222.292846 238.032332 
L 223.924276 240.903436 
L 225.555706 241.977545 
L 227.187136 242.779335 
L 228.818566 241.861442 
L 230.449995 242.885364 
L 232.081425 245.275201 
L 233.712855 245.402881 
L 235.344285 245.006737 
L 236.975715 263.434865 
L 240.238575 269.663476 
L 241.870005 272.149336 
L 243.501434 273.810979 
L 245.132864 272.484346 
L 246.764294 274.615704 
L 248.395724 274.840209 
L 250.027154 277.08198 
L 251.658584 276.846368 
L 253.290014 277.765987 
L 254.921444 279.035 
L 256.552873 278.096679 
L 258.184303 281.677177 
L 259.815733 281.34244 
L 261.447163 282.671272 
L 263.078593 282.191369 
L 264.710023 282.062262 
L 267.972883 285.332588 
L 269.604312 285.230967 
L 271.235742 285.675226 
L 272.867172 286.779083 
L 274.498602 286.676626 
L 276.130032 285.737046 
L 277.761462 287.440522 
L 279.392892 287.139231 
L 281.024322 288.338992 
L 282.655751 288.315835 
L 284.287181 288.123259 
L 285.918611 289.637046 
L 289.181471 290.894973 
L 292.444331 290.702277 
L 294.075761 290.082292 
L 295.70719 291.357943 
L 297.33862 291.122382 
L 298.97005 291.703797 
L 300.60148 291.670445 
L 302.23291 293.662376 
L 303.86434 292.71721 
L 305.49577 293.138304 
L 307.1272 294.862011 
L 308.75863 293.438154 
L 310.390059 294.218568 
L 312.021489 296.981399 
L 313.652919 295.692472 
L 315.284349 295.214124 
L 316.915779 296.17751 
L 318.547209 295.877009 
L 320.178639 295.130548 
L 321.810069 295.822588 
L 323.441498 295.754658 
L 325.072928 294.721375 
L 326.704358 295.16324 
L 328.335788 295.732611 
L 329.967218 294.934842 
L 331.598648 295.621761 
L 333.230078 297.092987 
L 334.861508 293.985169 
L 336.492937 296.068988 
L 338.124367 296.142283 
L 339.755797 295.606108 
L 341.387227 297.665095 
L 343.018657 296.745749 
L 344.650087 297.236938 
L 346.281517 296.097735 
L 347.912947 297.049266 
L 349.544376 297.387881 
L 351.175806 295.644792 
L 352.807236 296.49719 
L 354.438666 296.733474 
L 356.070096 297.457162 
L 357.701526 296.672967 
L 360.964386 296.91687 
L 362.595815 296.64432 
L 364.227245 296.706643 
L 365.858675 296.619676 
L 367.490105 297.658093 
L 369.121535 296.331151 
L 370.752965 295.95741 
L 372.384395 297.026575 
L 374.015825 297.958256 
L 375.647254 298.480035 
L 377.278684 295.209769 
L 378.910114 296.205013 
L 380.541544 295.638228 
L 382.172974 297.083937 
L 383.804404 297.538853 
L 385.435834 297.492701 
L 387.067264 296.57317 
L 388.698693 298.652525 
L 390.330123 298.378363 
L 391.961553 297.309562 
L 393.592983 297.810509 
L 395.224413 298.055961 
L 396.855843 297.834945 
L 398.487273 297.419128 
L 398.487273 297.419128 
" clip-path="url(#p980b7b0329)" style="fill: none; stroke-dasharray: 5.55,2.4; stroke-dashoffset: 0; stroke: #d62728; stroke-width: 1.5"/>
   </g>
   <g id="line2d_41">
    <path d="M 99.51946 -1 
L 99.935605 1.637231 
L 101.567035 5.473091 
L 103.198465 4.127589 
L 104.829895 11.642402 
L 106.461325 12.456504 
L 108.092755 19.209015 
L 109.724185 19.793828 
L 111.355614 19.246783 
L 114.618474 27.359923 
L 116.249904 29.524625 
L 117.881334 28.865981 
L 119.512764 33.103514 
L 121.144194 33.823061 
L 122.775624 37.381967 
L 124.407053 42.046527 
L 126.038483 40.247021 
L 127.669913 44.580315 
L 129.301343 44.191365 
L 130.932773 47.925786 
L 132.564203 50.23593 
L 134.195633 50.23369 
L 135.827063 54.432245 
L 137.458492 52.807035 
L 139.089922 55.917167 
L 140.721352 56.070151 
L 142.352782 56.527064 
L 143.984212 56.448365 
L 145.615642 57.368561 
L 147.247072 63.175263 
L 148.878502 61.852595 
L 150.509931 61.637077 
L 152.141361 64.653333 
L 153.772791 65.069945 
L 155.404221 69.086626 
L 157.035651 63.458614 
L 158.667081 64.84982 
L 160.298511 69.569395 
L 161.929941 70.818313 
L 163.56137 67.068181 
L 165.1928 70.575764 
L 166.82423 72.498894 
L 168.45566 73.843018 
L 170.08709 69.443884 
L 171.71852 75.625364 
L 173.34995 75.880211 
L 174.98138 75.726242 
L 176.61281 74.237153 
L 178.244239 75.008195 
L 179.875669 75.135037 
L 181.507099 75.044739 
L 183.138529 80.107719 
L 184.769959 78.445323 
L 186.401389 79.78098 
L 188.032819 78.757659 
L 189.664249 82.431202 
L 191.295678 84.6712 
L 192.927108 79.518021 
L 194.558538 83.367432 
L 196.189968 83.957932 
L 199.452828 83.388823 
L 201.084258 85.348514 
L 202.715688 87.493744 
L 204.347117 83.240178 
L 205.978547 86.467275 
L 207.609977 86.428722 
L 209.241407 88.903731 
L 210.872837 86.0875 
L 212.504267 88.752631 
L 214.135697 86.20973 
L 215.767127 90.036263 
L 217.398556 84.94444 
L 219.029986 89.189408 
L 220.661416 89.496436 
L 222.292846 84.355588 
L 223.924276 88.161292 
L 225.555706 88.576896 
L 227.187136 90.547592 
L 228.818566 88.688483 
L 230.449995 89.609611 
L 232.081425 93.854172 
L 233.712855 92.669805 
L 235.344285 93.97393 
L 236.975715 154.328894 
L 238.607145 166.396623 
L 241.870005 179.920658 
L 243.501434 184.711462 
L 245.132864 186.523555 
L 246.764294 189.767284 
L 248.395724 194.13632 
L 250.027154 199.163983 
L 251.658584 200.605095 
L 253.290014 203.36735 
L 254.921444 207.167891 
L 256.552873 207.900376 
L 258.184303 214.57732 
L 259.815733 216.025827 
L 261.447163 218.938851 
L 263.078593 220.600703 
L 264.710023 222.466621 
L 266.341453 225.409348 
L 267.972883 228.814145 
L 269.604312 229.607683 
L 271.235742 232.331221 
L 274.498602 235.827727 
L 276.130032 235.180003 
L 277.761462 239.172884 
L 279.392892 239.974966 
L 281.024322 242.077757 
L 282.655751 243.072365 
L 284.287181 243.593823 
L 285.918611 246.70689 
L 289.181471 250.048423 
L 290.812901 250.820482 
L 292.444331 250.773062 
L 294.075761 251.69525 
L 295.70719 254.205793 
L 297.33862 254.66668 
L 298.97005 256.063511 
L 300.60148 256.682505 
L 302.23291 259.718247 
L 303.86434 259.120416 
L 305.49577 261.157467 
L 307.1272 262.024136 
L 308.75863 261.096326 
L 310.390059 268.255205 
L 312.021489 271.426294 
L 313.652919 271.269482 
L 315.284349 270.272446 
L 316.915779 272.609549 
L 318.547209 272.17385 
L 320.178639 271.388619 
L 321.810069 272.327524 
L 323.441498 273.105983 
L 325.072928 272.313203 
L 328.335788 273.602901 
L 329.967218 273.187245 
L 331.598648 273.999796 
L 333.230078 275.249318 
L 334.861508 272.776553 
L 336.492937 274.796379 
L 338.124367 274.913461 
L 339.755797 275.605162 
L 341.387227 277.182702 
L 343.018657 276.272821 
L 344.650087 277.689991 
L 346.281517 276.26951 
L 347.912947 276.946873 
L 349.544376 277.945728 
L 351.175806 276.236615 
L 352.807236 276.944948 
L 354.438666 277.038584 
L 356.070096 278.277859 
L 357.701526 278.213421 
L 359.332956 278.469257 
L 360.964386 279.025642 
L 362.595815 277.542177 
L 364.227245 278.668591 
L 365.858675 277.827018 
L 367.490105 279.247326 
L 369.121535 279.301061 
L 370.752965 277.721271 
L 372.384395 278.828637 
L 374.015825 280.276921 
L 375.647254 280.987763 
L 377.278684 277.838923 
L 378.910114 278.246619 
L 380.541544 278.508614 
L 382.172974 279.146743 
L 383.804404 280.553056 
L 385.435834 279.996964 
L 387.067264 280.173159 
L 388.698693 281.982874 
L 390.330123 281.749058 
L 391.961553 281.113496 
L 393.592983 282.006716 
L 395.224413 282.192234 
L 396.855843 281.726287 
L 398.487273 281.782898 
L 398.487273 281.782898 
" clip-path="url(#p980b7b0329)" style="fill: none; stroke-dasharray: 5.55,2.4; stroke-dashoffset: 0; stroke: #9467bd; stroke-width: 1.5"/>
   </g>
   <g id="line2d_42">
    <path d="M 91.626367 -1 
L 91.778456 0.331859 
L 93.409886 9.844117 
L 95.041316 12.065667 
L 96.672746 25.733963 
L 98.304175 26.112567 
L 99.935605 33.455084 
L 101.567035 40.133475 
L 103.198465 42.45624 
L 106.461325 56.73303 
L 108.092755 56.425247 
L 109.724185 61.187616 
L 111.355614 66.818836 
L 112.987044 68.861359 
L 116.249904 77.220692 
L 119.512764 81.739437 
L 121.144194 87.988354 
L 122.775624 84.299926 
L 124.407053 91.995528 
L 126.038483 90.807538 
L 127.669913 100.214362 
L 129.301343 101.893957 
L 130.932773 100.30701 
L 132.564203 105.689555 
L 134.195633 104.696 
L 135.827063 106.600824 
L 137.458492 109.857535 
L 139.089922 112.220224 
L 140.721352 114.029507 
L 142.352782 114.927168 
L 143.984212 114.397743 
L 145.615642 120.845493 
L 147.247072 119.393474 
L 148.878502 121.868903 
L 150.509931 124.040682 
L 152.141361 124.955873 
L 153.772791 129.587714 
L 155.404221 127.571945 
L 157.035651 130.103368 
L 158.667081 130.437727 
L 160.298511 131.668137 
L 161.929941 129.851575 
L 163.56137 130.726683 
L 165.1928 136.159624 
L 166.82423 137.945419 
L 168.45566 138.227831 
L 170.08709 140.342069 
L 171.71852 136.663493 
L 174.98138 143.650237 
L 176.61281 142.23539 
L 178.244239 141.841616 
L 179.875669 140.626613 
L 181.507099 146.730689 
L 183.138529 147.503039 
L 184.769959 147.630234 
L 186.401389 149.432123 
L 188.032819 147.147878 
L 189.664249 148.624571 
L 191.295678 151.769783 
L 192.927108 151.848251 
L 194.558538 152.321079 
L 196.189968 155.396954 
L 197.821398 155.391282 
L 199.452828 152.615916 
L 201.084258 153.306646 
L 202.715688 155.750041 
L 204.347117 153.693349 
L 205.978547 157.026043 
L 207.609977 158.369037 
L 209.241407 160.480346 
L 210.872837 157.483778 
L 212.504267 159.778943 
L 214.135697 160.3897 
L 215.767127 159.798814 
L 217.398556 159.010794 
L 219.029986 160.033935 
L 220.661416 162.149405 
L 222.292846 161.290899 
L 223.924276 163.344369 
L 225.555706 163.709245 
L 227.187136 164.530341 
L 228.818566 160.12102 
L 230.449995 165.850546 
L 232.081425 163.122121 
L 233.712855 166.10841 
L 235.344285 164.65405 
L 236.975715 212.047991 
L 238.607145 218.312314 
L 240.238575 223.616646 
L 243.501434 228.933719 
L 245.132864 230.680189 
L 248.395724 236.756514 
L 250.027154 237.588666 
L 251.658584 240.184697 
L 253.290014 240.525108 
L 254.921444 242.531329 
L 256.552873 243.77107 
L 258.184303 243.921492 
L 259.815733 246.174436 
L 263.078593 248.223812 
L 264.710023 248.939731 
L 266.341453 251.213174 
L 267.972883 251.190181 
L 269.604312 253.79067 
L 271.235742 254.869719 
L 272.867172 254.748481 
L 274.498602 257.795327 
L 276.130032 257.129647 
L 277.761462 258.510826 
L 279.392892 260.415498 
L 281.024322 260.845275 
L 282.655751 261.543471 
L 284.287181 260.853909 
L 285.918611 263.713182 
L 287.550041 263.349976 
L 289.181471 263.13367 
L 290.812901 265.520509 
L 292.444331 265.440938 
L 294.075761 267.133767 
L 295.70719 265.585328 
L 298.97005 269.42535 
L 300.60148 268.614898 
L 302.23291 268.887457 
L 303.86434 270.397817 
L 305.49577 273.118071 
L 307.1272 271.546947 
L 308.75863 273.388818 
L 310.390059 277.432504 
L 312.021489 276.152727 
L 313.652919 277.314637 
L 315.284349 276.659762 
L 316.915779 278.203244 
L 318.547209 278.967709 
L 320.178639 278.001032 
L 321.810069 279.471386 
L 323.441498 279.038246 
L 325.072928 279.49315 
L 326.704358 280.535921 
L 328.335788 280.606658 
L 329.967218 279.852978 
L 331.598648 279.782647 
L 333.230078 281.28241 
L 334.861508 278.81973 
L 336.492937 280.267355 
L 339.755797 279.888213 
L 341.387227 280.968937 
L 343.018657 280.61745 
L 344.650087 281.673166 
L 346.281517 281.445814 
L 347.912947 283.06945 
L 349.544376 280.684064 
L 351.175806 281.942564 
L 352.807236 281.761041 
L 354.438666 281.7267 
L 356.070096 282.946795 
L 357.701526 281.806321 
L 360.964386 282.982015 
L 362.595815 282.350676 
L 364.227245 283.71237 
L 367.490105 281.699377 
L 369.121535 283.092978 
L 370.752965 281.381645 
L 372.384395 283.24501 
L 374.015825 283.967958 
L 375.647254 282.924962 
L 377.278684 284.822811 
L 378.910114 282.629607 
L 382.172974 284.082533 
L 383.804404 284.049877 
L 387.067264 284.645034 
L 388.698693 283.389235 
L 390.330123 285.01511 
L 391.961553 285.562987 
L 396.855843 285.168184 
L 398.487273 285.633649 
L 398.487273 285.633649 
" clip-path="url(#p980b7b0329)" style="fill: none; stroke-dasharray: 5.55,2.4; stroke-dashoffset: 0; stroke: #8c564b; stroke-width: 1.5"/>
   </g>
   <g id="line2d_43">
    <path d="M 95.33505 -1 
L 96.672746 8.113137 
L 98.304175 6.463674 
L 99.935605 9.967904 
L 101.567035 16.177313 
L 103.198465 14.858815 
L 104.829895 21.331293 
L 106.461325 26.505707 
L 108.092755 25.259684 
L 111.355614 30.777724 
L 112.987044 32.13195 
L 114.618474 36.581306 
L 116.249904 37.765631 
L 117.881334 40.363523 
L 119.512764 40.347424 
L 121.144194 44.658193 
L 122.775624 40.67444 
L 124.407053 45.451277 
L 126.038483 43.452277 
L 127.669913 54.977785 
L 129.301343 54.964521 
L 130.932773 51.53345 
L 134.195633 53.649004 
L 135.827063 55.292766 
L 137.458492 56.146178 
L 139.089922 58.472436 
L 140.721352 57.625839 
L 142.352782 57.927884 
L 143.984212 56.771086 
L 145.615642 59.224748 
L 147.247072 60.976043 
L 148.878502 62.316377 
L 150.509931 64.26326 
L 152.141361 63.990901 
L 153.772791 67.724627 
L 155.404221 65.196927 
L 157.035651 67.031212 
L 158.667081 65.219267 
L 160.298511 67.182801 
L 161.929941 67.536038 
L 163.56137 66.614353 
L 165.1928 70.951991 
L 166.82423 72.189099 
L 168.45566 75.084723 
L 170.08709 74.771297 
L 171.71852 71.588395 
L 173.34995 71.876391 
L 174.98138 76.503501 
L 176.61281 75.392857 
L 178.244239 72.156462 
L 179.875669 70.785123 
L 181.507099 77.294651 
L 183.138529 76.247039 
L 184.769959 78.069374 
L 186.401389 79.498855 
L 188.032819 75.125121 
L 189.664249 79.047419 
L 192.927108 80.738483 
L 194.558538 79.667293 
L 196.189968 82.919638 
L 197.821398 82.545286 
L 199.452828 78.806296 
L 201.084258 78.155564 
L 202.715688 81.578793 
L 204.347117 77.80011 
L 205.978547 81.392353 
L 209.241407 86.709393 
L 210.872837 81.957193 
L 212.504267 83.731504 
L 214.135697 84.683071 
L 215.767127 83.181884 
L 217.398556 79.831324 
L 219.029986 83.165984 
L 220.661416 84.87103 
L 222.292846 82.374708 
L 223.924276 85.719224 
L 225.555706 84.693319 
L 227.187136 85.746938 
L 228.818566 82.383086 
L 230.449995 85.856959 
L 232.081425 83.461644 
L 233.712855 87.030329 
L 235.344285 83.138055 
L 236.975715 102.400296 
L 238.607145 105.861744 
L 240.238575 108.177937 
L 241.870005 108.934659 
L 243.501434 110.932259 
L 245.132864 108.193307 
L 246.764294 112.636105 
L 248.395724 115.239495 
L 250.027154 114.560315 
L 251.658584 115.405023 
L 253.290014 114.35265 
L 254.921444 114.644615 
L 256.552873 116.628964 
L 258.184303 114.641292 
L 261.447163 117.679732 
L 263.078593 117.630649 
L 264.710023 116.051984 
L 266.341453 120.217803 
L 267.972883 118.265633 
L 269.604312 121.676984 
L 271.235742 121.061085 
L 272.867172 122.177567 
L 274.498602 122.924068 
L 276.130032 123.065998 
L 277.761462 124.955605 
L 279.392892 125.665099 
L 281.024322 122.280714 
L 282.655751 125.785967 
L 284.287181 124.15802 
L 285.918611 126.539035 
L 287.550041 124.026727 
L 289.181471 126.014935 
L 290.812901 127.51865 
L 292.444331 127.828031 
L 294.075761 129.091355 
L 295.70719 127.314571 
L 297.33862 126.723806 
L 298.97005 131.349779 
L 300.60148 129.010993 
L 302.23291 127.62956 
L 303.86434 129.64835 
L 305.49577 133.388359 
L 307.1272 130.42924 
L 308.75863 132.84529 
L 310.390059 133.774938 
L 312.021489 130.062542 
L 313.652919 130.835404 
L 315.284349 131.412311 
L 316.915779 133.247512 
L 318.547209 132.910357 
L 320.178639 131.768923 
L 321.810069 134.741625 
L 323.441498 132.687246 
L 325.072928 133.586171 
L 326.704358 134.801433 
L 328.335788 133.654356 
L 329.967218 134.609383 
L 331.598648 133.107029 
L 333.230078 134.483463 
L 334.861508 130.218104 
L 336.492937 133.9679 
L 338.124367 133.410441 
L 339.755797 133.206353 
L 341.387227 135.38385 
L 343.018657 132.831234 
L 344.650087 134.587136 
L 346.281517 133.474166 
L 347.912947 136.497892 
L 349.544376 133.091078 
L 351.175806 132.693236 
L 352.807236 132.958063 
L 354.438666 133.392862 
L 356.070096 136.142729 
L 357.701526 133.183909 
L 359.332956 135.564631 
L 360.964386 135.035457 
L 362.595815 134.654046 
L 364.227245 136.082091 
L 365.858675 134.740246 
L 367.490105 132.260756 
L 369.121535 135.356417 
L 370.752965 132.070981 
L 372.384395 134.074699 
L 374.015825 135.771575 
L 375.647254 133.406977 
L 377.278684 135.847819 
L 378.910114 133.399183 
L 380.541544 133.303564 
L 382.172974 135.241499 
L 385.435834 135.694279 
L 387.067264 134.882248 
L 388.698693 134.712234 
L 390.330123 136.064077 
L 391.961553 136.082949 
L 393.592983 137.613161 
L 395.224413 137.006456 
L 396.855843 134.698011 
L 398.487273 137.627152 
L 398.487273 137.627152 
" clip-path="url(#p980b7b0329)" style="fill: none; stroke-dasharray: 5.55,2.4; stroke-dashoffset: 0; stroke: #e377c2; stroke-width: 1.5"/>
   </g>
   <g id="patch_3">
    <path d="M 57.6 307.584 
L 57.6 41.472 
" style="fill: none; stroke: #000000; stroke-width: 0.8; stroke-linejoin: miter; stroke-linecap: square"/>
   </g>
   <g id="patch_4">
    <path d="M 414.72 307.584 
L 414.72 41.472 
" style="fill: none; stroke: #000000; stroke-width: 0.8; stroke-linejoin: miter; stroke-linecap: square"/>
   </g>
   <g id="patch_5">
    <path d="M 57.6 307.584 
L 414.72 307.584 
" style="fill: none; stroke: #000000; stroke-width: 0.8; stroke-linejoin: miter; stroke-linecap: square"/>
   </g>
   <g id="patch_6">
    <path d="M 57.6 41.472 
L 414.72 41.472 
" style="fill: none; stroke: #000000; stroke-width: 0.8; stroke-linejoin: miter; stroke-linecap: square"/>
   </g>
   <g id="text_21">
    <!-- Train set perplexity ~ training epoch -->
    <g transform="translate(126.366563 35.472)scale(0.12 -0.12)">
     <defs>
      <path id="DejaVuSans-73" d="M 2834 3397 
L 2834 2853 
Q 2591 2978 2328 3040 
Q 2066 3103 1784 3103 
Q 1356 3103 1142 2972 
Q 928 2841 928 2578 
Q 928 2378 1081 2264 
Q 1234 2150 1697 2047 
L 1894 2003 
Q 2506 1872 2764 1633 
Q 3022 1394 3022 966 
Q 3022 478 2636 193 
Q 2250 -91 1575 -91 
Q 1294 -91 989 -36 
Q 684 19 347 128 
L 347 722 
Q 666 556 975 473 
Q 1284 391 1588 391 
Q 1994 391 2212 530 
Q 2431 669 2431 922 
Q 2431 1156 2273 1281 
Q 2116 1406 1581 1522 
L 1381 1569 
Q 847 1681 609 1914 
Q 372 2147 372 2553 
Q 372 3047 722 3315 
Q 1072 3584 1716 3584 
Q 2034 3584 2315 3537 
Q 2597 3491 2834 3397 
z
" transform="scale(0.015625)"/>
      <path id="DejaVuSans-7e" d="M 4684 2553 
L 4684 1997 
Q 4356 1750 4076 1644 
Q 3797 1538 3494 1538 
Q 3150 1538 2694 1722 
Q 2659 1734 2644 1741 
Q 2622 1750 2575 1766 
Q 2091 1959 1797 1959 
Q 1522 1959 1253 1839 
Q 984 1719 678 1459 
L 678 2016 
Q 1006 2263 1286 2370 
Q 1566 2478 1869 2478 
Q 2213 2478 2672 2291 
Q 2703 2278 2719 2272 
Q 2744 2263 2788 2247 
Q 3272 2053 3566 2053 
Q 3834 2053 4098 2172 
Q 4363 2291 4684 2553 
z
" transform="scale(0.015625)"/>
     </defs>
     <use xlink:href="#DejaVuSans-54"/>
     <use xlink:href="#DejaVuSans-72" x="46.333984"/>
     <use xlink:href="#DejaVuSans-61" x="87.447266"/>
     <use xlink:href="#DejaVuSans-69" x="148.726562"/>
     <use xlink:href="#DejaVuSans-6e" x="176.509766"/>
     <use xlink:href="#DejaVuSans-20" x="239.888672"/>
     <use xlink:href="#DejaVuSans-73" x="271.675781"/>
     <use xlink:href="#DejaVuSans-65" x="323.775391"/>
     <use xlink:href="#DejaVuSans-74" x="385.298828"/>
     <use xlink:href="#DejaVuSans-20" x="424.507812"/>
     <use xlink:href="#DejaVuSans-70" x="456.294922"/>
     <use xlink:href="#DejaVuSans-65" x="519.771484"/>
     <use xlink:href="#DejaVuSans-72" x="581.294922"/>
     <use xlink:href="#DejaVuSans-70" x="622.408203"/>
     <use xlink:href="#DejaVuSans-6c" x="685.884766"/>
     <use xlink:href="#DejaVuSans-65" x="713.667969"/>
     <use xlink:href="#DejaVuSans-78" x="773.441406"/>
     <use xlink:href="#DejaVuSans-69" x="832.621094"/>
     <use xlink:href="#DejaVuSans-74" x="860.404297"/>
     <use xlink:href="#DejaVuSans-79" x="899.613281"/>
     <use xlink:href="#DejaVuSans-20" x="958.792969"/>
     <use xlink:href="#DejaVuSans-7e" x="990.580078"/>
     <use xlink:href="#DejaVuSans-20" x="1074.369141"/>
     <use xlink:href="#DejaVuSans-74" x="1106.15625"/>
     <use xlink:href="#DejaVuSans-72" x="1145.365234"/>
     <use xlink:href="#DejaVuSans-61" x="1186.478516"/>
     <use xlink:href="#DejaVuSans-69" x="1247.757812"/>
     <use xlink:href="#DejaVuSans-6e" x="1275.541016"/>
     <use xlink:href="#DejaVuSans-69" x="1338.919922"/>
     <use xlink:href="#DejaVuSans-6e" x="1366.703125"/>
     <use xlink:href="#DejaVuSans-67" x="1430.082031"/>
     <use xlink:href="#DejaVuSans-20" x="1493.558594"/>
     <use xlink:href="#DejaVuSans-65" x="1525.345703"/>
     <use xlink:href="#DejaVuSans-70" x="1586.869141"/>
     <use xlink:href="#DejaVuSans-6f" x="1650.345703"/>
     <use xlink:href="#DejaVuSans-63" x="1711.527344"/>
     <use xlink:href="#DejaVuSans-68" x="1766.507812"/>
    </g>
   </g>
   <g id="legend_1">
    <g id="patch_7">
     <path d="M 298.648125 174.36825 
L 406.32 174.36825 
Q 408.72 174.36825 408.72 171.96825 
L 408.72 49.872 
Q 408.72 47.472 406.32 47.472 
L 298.648125 47.472 
Q 296.248125 47.472 296.248125 49.872 
L 296.248125 171.96825 
Q 296.248125 174.36825 298.648125 174.36825 
z
" style="fill: #ffffff; opacity: 0.8; stroke: #cccccc; stroke-linejoin: miter"/>
    </g>
    <g id="line2d_44">
     <path d="M 301.048125 57.190125 
L 313.048125 57.190125 
L 325.048125 57.190125 
" style="fill: none; stroke: #1f77b4; stroke-width: 1.5; stroke-linecap: square"/>
    </g>
    <g id="text_22">
     <!-- AdaSmooth -->
     <g transform="translate(334.648125 61.390125)scale(0.12 -0.12)">
      <defs>
       <path id="DejaVuSans-41" d="M 2188 4044 
L 1331 1722 
L 3047 1722 
L 2188 4044 
z
M 1831 4666 
L 2547 4666 
L 4325 0 
L 3669 0 
L 3244 1197 
L 1141 1197 
L 716 0 
L 50 0 
L 1831 4666 
z
" transform="scale(0.015625)"/>
       <path id="DejaVuSans-64" d="M 2906 2969 
L 2906 4863 
L 3481 4863 
L 3481 0 
L 2906 0 
L 2906 525 
Q 2725 213 2448 61 
Q 2172 -91 1784 -91 
Q 1150 -91 751 415 
Q 353 922 353 1747 
Q 353 2572 751 3078 
Q 1150 3584 1784 3584 
Q 2172 3584 2448 3432 
Q 2725 3281 2906 2969 
z
M 947 1747 
Q 947 1113 1208 752 
Q 1469 391 1925 391 
Q 2381 391 2643 752 
Q 2906 1113 2906 1747 
Q 2906 2381 2643 2742 
Q 2381 3103 1925 3103 
Q 1469 3103 1208 2742 
Q 947 2381 947 1747 
z
" transform="scale(0.015625)"/>
       <path id="DejaVuSans-53" d="M 3425 4513 
L 3425 3897 
Q 3066 4069 2747 4153 
Q 2428 4238 2131 4238 
Q 1616 4238 1336 4038 
Q 1056 3838 1056 3469 
Q 1056 3159 1242 3001 
Q 1428 2844 1947 2747 
L 2328 2669 
Q 3034 2534 3370 2195 
Q 3706 1856 3706 1288 
Q 3706 609 3251 259 
Q 2797 -91 1919 -91 
Q 1588 -91 1214 -16 
Q 841 59 441 206 
L 441 856 
Q 825 641 1194 531 
Q 1563 422 1919 422 
Q 2459 422 2753 634 
Q 3047 847 3047 1241 
Q 3047 1584 2836 1778 
Q 2625 1972 2144 2069 
L 1759 2144 
Q 1053 2284 737 2584 
Q 422 2884 422 3419 
Q 422 4038 858 4394 
Q 1294 4750 2059 4750 
Q 2388 4750 2728 4690 
Q 3069 4631 3425 4513 
z
" transform="scale(0.015625)"/>
       <path id="DejaVuSans-6d" d="M 3328 2828 
Q 3544 3216 3844 3400 
Q 4144 3584 4550 3584 
Q 5097 3584 5394 3201 
Q 5691 2819 5691 2113 
L 5691 0 
L 5113 0 
L 5113 2094 
Q 5113 2597 4934 2840 
Q 4756 3084 4391 3084 
Q 3944 3084 3684 2787 
Q 3425 2491 3425 1978 
L 3425 0 
L 2847 0 
L 2847 2094 
Q 2847 2600 2669 2842 
Q 2491 3084 2119 3084 
Q 1678 3084 1418 2786 
Q 1159 2488 1159 1978 
L 1159 0 
L 581 0 
L 581 3500 
L 1159 3500 
L 1159 2956 
Q 1356 3278 1631 3431 
Q 1906 3584 2284 3584 
Q 2666 3584 2933 3390 
Q 3200 3197 3328 2828 
z
" transform="scale(0.015625)"/>
      </defs>
      <use xlink:href="#DejaVuSans-41"/>
      <use xlink:href="#DejaVuSans-64" x="66.658203"/>
      <use xlink:href="#DejaVuSans-61" x="130.134766"/>
      <use xlink:href="#DejaVuSans-53" x="191.414062"/>
      <use xlink:href="#DejaVuSans-6d" x="254.890625"/>
      <use xlink:href="#DejaVuSans-6f" x="352.302734"/>
      <use xlink:href="#DejaVuSans-6f" x="413.484375"/>
      <use xlink:href="#DejaVuSans-74" x="474.666016"/>
      <use xlink:href="#DejaVuSans-68" x="513.875"/>
     </g>
    </g>
    <g id="line2d_45">
     <path d="M 301.048125 74.803875 
L 313.048125 74.803875 
L 325.048125 74.803875 
" style="fill: none; stroke-dasharray: 5.55,2.4; stroke-dashoffset: 0; stroke: #ff7f0e; stroke-width: 1.5"/>
    </g>
    <g id="text_23">
     <!-- SGD -->
     <g transform="translate(334.648125 79.003875)scale(0.12 -0.12)">
      <defs>
       <path id="DejaVuSans-47" d="M 3809 666 
L 3809 1919 
L 2778 1919 
L 2778 2438 
L 4434 2438 
L 4434 434 
Q 4069 175 3628 42 
Q 3188 -91 2688 -91 
Q 1594 -91 976 548 
Q 359 1188 359 2328 
Q 359 3472 976 4111 
Q 1594 4750 2688 4750 
Q 3144 4750 3555 4637 
Q 3966 4525 4313 4306 
L 4313 3634 
Q 3963 3931 3569 4081 
Q 3175 4231 2741 4231 
Q 1884 4231 1454 3753 
Q 1025 3275 1025 2328 
Q 1025 1384 1454 906 
Q 1884 428 2741 428 
Q 3075 428 3337 486 
Q 3600 544 3809 666 
z
" transform="scale(0.015625)"/>
       <path id="DejaVuSans-44" d="M 1259 4147 
L 1259 519 
L 2022 519 
Q 2988 519 3436 956 
Q 3884 1394 3884 2338 
Q 3884 3275 3436 3711 
Q 2988 4147 2022 4147 
L 1259 4147 
z
M 628 4666 
L 1925 4666 
Q 3281 4666 3915 4102 
Q 4550 3538 4550 2338 
Q 4550 1131 3912 565 
Q 3275 0 1925 0 
L 628 0 
L 628 4666 
z
" transform="scale(0.015625)"/>
      </defs>
      <use xlink:href="#DejaVuSans-53"/>
      <use xlink:href="#DejaVuSans-47" x="63.476562"/>
      <use xlink:href="#DejaVuSans-44" x="140.966797"/>
     </g>
    </g>
    <g id="line2d_46">
     <path d="M 301.048125 92.417625 
L 313.048125 92.417625 
L 325.048125 92.417625 
" style="fill: none; stroke-dasharray: 5.55,2.4; stroke-dashoffset: 0; stroke: #2ca02c; stroke-width: 1.5"/>
    </g>
    <g id="text_24">
     <!-- RMSProp -->
     <g transform="translate(334.648125 96.617625)scale(0.12 -0.12)">
      <defs>
       <path id="DejaVuSans-52" d="M 2841 2188 
Q 3044 2119 3236 1894 
Q 3428 1669 3622 1275 
L 4263 0 
L 3584 0 
L 2988 1197 
Q 2756 1666 2539 1819 
Q 2322 1972 1947 1972 
L 1259 1972 
L 1259 0 
L 628 0 
L 628 4666 
L 2053 4666 
Q 2853 4666 3247 4331 
Q 3641 3997 3641 3322 
Q 3641 2881 3436 2590 
Q 3231 2300 2841 2188 
z
M 1259 4147 
L 1259 2491 
L 2053 2491 
Q 2509 2491 2742 2702 
Q 2975 2913 2975 3322 
Q 2975 3731 2742 3939 
Q 2509 4147 2053 4147 
L 1259 4147 
z
" transform="scale(0.015625)"/>
       <path id="DejaVuSans-4d" d="M 628 4666 
L 1569 4666 
L 2759 1491 
L 3956 4666 
L 4897 4666 
L 4897 0 
L 4281 0 
L 4281 4097 
L 3078 897 
L 2444 897 
L 1241 4097 
L 1241 0 
L 628 0 
L 628 4666 
z
" transform="scale(0.015625)"/>
      </defs>
      <use xlink:href="#DejaVuSans-52"/>
      <use xlink:href="#DejaVuSans-4d" x="69.482422"/>
      <use xlink:href="#DejaVuSans-53" x="155.761719"/>
      <use xlink:href="#DejaVuSans-50" x="219.238281"/>
      <use xlink:href="#DejaVuSans-72" x="277.791016"/>
      <use xlink:href="#DejaVuSans-6f" x="316.654297"/>
      <use xlink:href="#DejaVuSans-70" x="377.835938"/>
     </g>
    </g>
    <g id="line2d_47">
     <path d="M 301.048125 110.031375 
L 313.048125 110.031375 
L 325.048125 110.031375 
" style="fill: none; stroke-dasharray: 5.55,2.4; stroke-dashoffset: 0; stroke: #d62728; stroke-width: 1.5"/>
    </g>
    <g id="text_25">
     <!-- AdaBound -->
     <g transform="translate(334.648125 114.231375)scale(0.12 -0.12)">
      <defs>
       <path id="DejaVuSans-42" d="M 1259 2228 
L 1259 519 
L 2272 519 
Q 2781 519 3026 730 
Q 3272 941 3272 1375 
Q 3272 1813 3026 2020 
Q 2781 2228 2272 2228 
L 1259 2228 
z
M 1259 4147 
L 1259 2741 
L 2194 2741 
Q 2656 2741 2882 2914 
Q 3109 3088 3109 3444 
Q 3109 3797 2882 3972 
Q 2656 4147 2194 4147 
L 1259 4147 
z
M 628 4666 
L 2241 4666 
Q 2963 4666 3353 4366 
Q 3744 4066 3744 3513 
Q 3744 3084 3544 2831 
Q 3344 2578 2956 2516 
Q 3422 2416 3680 2098 
Q 3938 1781 3938 1306 
Q 3938 681 3513 340 
Q 3088 0 2303 0 
L 628 0 
L 628 4666 
z
" transform="scale(0.015625)"/>
       <path id="DejaVuSans-75" d="M 544 1381 
L 544 3500 
L 1119 3500 
L 1119 1403 
Q 1119 906 1312 657 
Q 1506 409 1894 409 
Q 2359 409 2629 706 
Q 2900 1003 2900 1516 
L 2900 3500 
L 3475 3500 
L 3475 0 
L 2900 0 
L 2900 538 
Q 2691 219 2414 64 
Q 2138 -91 1772 -91 
Q 1169 -91 856 284 
Q 544 659 544 1381 
z
M 1991 3584 
L 1991 3584 
z
" transform="scale(0.015625)"/>
      </defs>
      <use xlink:href="#DejaVuSans-41"/>
      <use xlink:href="#DejaVuSans-64" x="66.658203"/>
      <use xlink:href="#DejaVuSans-61" x="130.134766"/>
      <use xlink:href="#DejaVuSans-42" x="191.414062"/>
      <use xlink:href="#DejaVuSans-6f" x="260.017578"/>
      <use xlink:href="#DejaVuSans-75" x="321.199219"/>
      <use xlink:href="#DejaVuSans-6e" x="384.578125"/>
      <use xlink:href="#DejaVuSans-64" x="447.957031"/>
     </g>
    </g>
    <g id="line2d_48">
     <path d="M 301.048125 127.645125 
L 313.048125 127.645125 
L 325.048125 127.645125 
" style="fill: none; stroke-dasharray: 5.55,2.4; stroke-dashoffset: 0; stroke: #9467bd; stroke-width: 1.5"/>
    </g>
    <g id="text_26">
     <!-- Adam -->
     <g transform="translate(334.648125 131.845125)scale(0.12 -0.12)">
      <use xlink:href="#DejaVuSans-41"/>
      <use xlink:href="#DejaVuSans-64" x="66.658203"/>
      <use xlink:href="#DejaVuSans-61" x="130.134766"/>
      <use xlink:href="#DejaVuSans-6d" x="191.414062"/>
     </g>
    </g>
    <g id="line2d_49">
     <path d="M 301.048125 145.258875 
L 313.048125 145.258875 
L 325.048125 145.258875 
" style="fill: none; stroke-dasharray: 5.55,2.4; stroke-dashoffset: 0; stroke: #8c564b; stroke-width: 1.5"/>
    </g>
    <g id="text_27">
     <!-- AMSGrad -->
     <g transform="translate(334.648125 149.458875)scale(0.12 -0.12)">
      <use xlink:href="#DejaVuSans-41"/>
      <use xlink:href="#DejaVuSans-4d" x="68.408203"/>
      <use xlink:href="#DejaVuSans-53" x="154.6875"/>
      <use xlink:href="#DejaVuSans-47" x="218.164062"/>
      <use xlink:href="#DejaVuSans-72" x="295.654297"/>
      <use xlink:href="#DejaVuSans-61" x="336.767578"/>
      <use xlink:href="#DejaVuSans-64" x="398.046875"/>
     </g>
    </g>
    <g id="line2d_50">
     <path d="M 301.048125 162.872625 
L 313.048125 162.872625 
L 325.048125 162.872625 
" style="fill: none; stroke-dasharray: 5.55,2.4; stroke-dashoffset: 0; stroke: #e377c2; stroke-width: 1.5"/>
    </g>
    <g id="text_28">
     <!-- AdaMod -->
     <g transform="translate(334.648125 167.072625)scale(0.12 -0.12)">
      <use xlink:href="#DejaVuSans-41"/>
      <use xlink:href="#DejaVuSans-64" x="66.658203"/>
      <use xlink:href="#DejaVuSans-61" x="130.134766"/>
      <use xlink:href="#DejaVuSans-4d" x="191.414062"/>
      <use xlink:href="#DejaVuSans-6f" x="277.693359"/>
      <use xlink:href="#DejaVuSans-64" x="338.875"/>
     </g>
    </g>
   </g>
  </g>
 </g>
 <defs>
  <clipPath id="p980b7b0329">
   <rect x="57.6" y="41.472" width="357.12" height="266.112"/>
  </clipPath>
 </defs>
</svg>
