<?xml version="1.0" encoding="utf-8" standalone="no"?>
<!DOCTYPE svg PUBLIC "-//W3C//DTD SVG 1.1//EN"
  "http://www.w3.org/Graphics/SVG/1.1/DTD/svg11.dtd">
<svg xmlns:xlink="http://www.w3.org/1999/xlink" width="460.8pt" height="345.6pt" viewBox="0 0 460.8 345.6" xmlns="http://www.w3.org/2000/svg" version="1.1">
 <metadata>
  <rdf:RDF xmlns:dc="http://purl.org/dc/elements/1.1/" xmlns:cc="http://creativecommons.org/ns#" xmlns:rdf="http://www.w3.org/1999/02/22-rdf-syntax-ns#">
   <cc:Work>
    <dc:type rdf:resource="http://purl.org/dc/dcmitype/StillImage"/>
    <dc:date>2023-03-06T15:18:23.522101</dc:date>
    <dc:format>image/svg+xml</dc:format>
    <dc:creator>
     <cc:Agent>
      <dc:title>Matplotlib v3.5.2, https://matplotlib.org/</dc:title>
     </cc:Agent>
    </dc:creator>
   </cc:Work>
  </rdf:RDF>
 </metadata>
 <defs>
  <style type="text/css">*{stroke-linejoin: round; stroke-linecap: butt}</style>
 </defs>
 <g id="figure_1">
  <g id="patch_1">
   <path d="M 0 345.6 
L 460.8 345.6 
L 460.8 0 
L 0 0 
z
" style="fill: #ffffff"/>
  </g>
  <g id="axes_1">
   <g id="patch_2">
    <path d="M 57.6 307.584 
L 414.72 307.584 
L 414.72 41.472 
L 57.6 41.472 
z
" style="fill: #ffffff"/>
   </g>
   <g id="matplotlib.axis_1">
    <g id="xtick_1">
     <g id="line2d_1">
      <path d="M 73.832727 307.584 
L 73.832727 41.472 
" clip-path="url(#p0d1e76c9d5)" style="fill: none; stroke: #b0b0b0; stroke-width: 0.8; stroke-linecap: square"/>
     </g>
     <g id="line2d_2">
      <defs>
       <path id="m13444247b8" d="M 0 0 
L 0 3.5 
" style="stroke: #000000; stroke-width: 0.8"/>
      </defs>
      <g>
       <use xlink:href="#m13444247b8" x="73.832727" y="307.584" style="stroke: #000000; stroke-width: 0.8"/>
      </g>
     </g>
     <g id="text_1">
      <!-- 0 -->
      <g transform="translate(70.651477 322.182437)scale(0.1 -0.1)">
       <defs>
        <path id="DejaVuSans-30" d="M 2034 4250 
Q 1547 4250 1301 3770 
Q 1056 3291 1056 2328 
Q 1056 1369 1301 889 
Q 1547 409 2034 409 
Q 2525 409 2770 889 
Q 3016 1369 3016 2328 
Q 3016 3291 2770 3770 
Q 2525 4250 2034 4250 
z
M 2034 4750 
Q 2819 4750 3233 4129 
Q 3647 3509 3647 2328 
Q 3647 1150 3233 529 
Q 2819 -91 2034 -91 
Q 1250 -91 836 529 
Q 422 1150 422 2328 
Q 422 3509 836 4129 
Q 1250 4750 2034 4750 
z
" transform="scale(0.015625)"/>
       </defs>
       <use xlink:href="#DejaVuSans-30"/>
      </g>
     </g>
    </g>
    <g id="xtick_2">
     <g id="line2d_3">
      <path d="M 114.618474 307.584 
L 114.618474 41.472 
" clip-path="url(#p0d1e76c9d5)" style="fill: none; stroke: #b0b0b0; stroke-width: 0.8; stroke-linecap: square"/>
     </g>
     <g id="line2d_4">
      <g>
       <use xlink:href="#m13444247b8" x="114.618474" y="307.584" style="stroke: #000000; stroke-width: 0.8"/>
      </g>
     </g>
     <g id="text_2">
      <!-- 25 -->
      <g transform="translate(108.255974 322.182437)scale(0.1 -0.1)">
       <defs>
        <path id="DejaVuSans-32" d="M 1228 531 
L 3431 531 
L 3431 0 
L 469 0 
L 469 531 
Q 828 903 1448 1529 
Q 2069 2156 2228 2338 
Q 2531 2678 2651 2914 
Q 2772 3150 2772 3378 
Q 2772 3750 2511 3984 
Q 2250 4219 1831 4219 
Q 1534 4219 1204 4116 
Q 875 4013 500 3803 
L 500 4441 
Q 881 4594 1212 4672 
Q 1544 4750 1819 4750 
Q 2544 4750 2975 4387 
Q 3406 4025 3406 3419 
Q 3406 3131 3298 2873 
Q 3191 2616 2906 2266 
Q 2828 2175 2409 1742 
Q 1991 1309 1228 531 
z
" transform="scale(0.015625)"/>
        <path id="DejaVuSans-35" d="M 691 4666 
L 3169 4666 
L 3169 4134 
L 1269 4134 
L 1269 2991 
Q 1406 3038 1543 3061 
Q 1681 3084 1819 3084 
Q 2600 3084 3056 2656 
Q 3513 2228 3513 1497 
Q 3513 744 3044 326 
Q 2575 -91 1722 -91 
Q 1428 -91 1123 -41 
Q 819 9 494 109 
L 494 744 
Q 775 591 1075 516 
Q 1375 441 1709 441 
Q 2250 441 2565 725 
Q 2881 1009 2881 1497 
Q 2881 1984 2565 2268 
Q 2250 2553 1709 2553 
Q 1456 2553 1204 2497 
Q 953 2441 691 2322 
L 691 4666 
z
" transform="scale(0.015625)"/>
       </defs>
       <use xlink:href="#DejaVuSans-32"/>
       <use xlink:href="#DejaVuSans-35" x="63.623047"/>
      </g>
     </g>
    </g>
    <g id="xtick_3">
     <g id="line2d_5">
      <path d="M 155.404221 307.584 
L 155.404221 41.472 
" clip-path="url(#p0d1e76c9d5)" style="fill: none; stroke: #b0b0b0; stroke-width: 0.8; stroke-linecap: square"/>
     </g>
     <g id="line2d_6">
      <g>
       <use xlink:href="#m13444247b8" x="155.404221" y="307.584" style="stroke: #000000; stroke-width: 0.8"/>
      </g>
     </g>
     <g id="text_3">
      <!-- 50 -->
      <g transform="translate(149.041721 322.182437)scale(0.1 -0.1)">
       <use xlink:href="#DejaVuSans-35"/>
       <use xlink:href="#DejaVuSans-30" x="63.623047"/>
      </g>
     </g>
    </g>
    <g id="xtick_4">
     <g id="line2d_7">
      <path d="M 196.189968 307.584 
L 196.189968 41.472 
" clip-path="url(#p0d1e76c9d5)" style="fill: none; stroke: #b0b0b0; stroke-width: 0.8; stroke-linecap: square"/>
     </g>
     <g id="line2d_8">
      <g>
       <use xlink:href="#m13444247b8" x="196.189968" y="307.584" style="stroke: #000000; stroke-width: 0.8"/>
      </g>
     </g>
     <g id="text_4">
      <!-- 75 -->
      <g transform="translate(189.827468 322.182437)scale(0.1 -0.1)">
       <defs>
        <path id="DejaVuSans-37" d="M 525 4666 
L 3525 4666 
L 3525 4397 
L 1831 0 
L 1172 0 
L 2766 4134 
L 525 4134 
L 525 4666 
z
" transform="scale(0.015625)"/>
       </defs>
       <use xlink:href="#DejaVuSans-37"/>
       <use xlink:href="#DejaVuSans-35" x="63.623047"/>
      </g>
     </g>
    </g>
    <g id="xtick_5">
     <g id="line2d_9">
      <path d="M 236.975715 307.584 
L 236.975715 41.472 
" clip-path="url(#p0d1e76c9d5)" style="fill: none; stroke: #b0b0b0; stroke-width: 0.8; stroke-linecap: square"/>
     </g>
     <g id="line2d_10">
      <g>
       <use xlink:href="#m13444247b8" x="236.975715" y="307.584" style="stroke: #000000; stroke-width: 0.8"/>
      </g>
     </g>
     <g id="text_5">
      <!-- 100 -->
      <g transform="translate(227.431965 322.182437)scale(0.1 -0.1)">
       <defs>
        <path id="DejaVuSans-31" d="M 794 531 
L 1825 531 
L 1825 4091 
L 703 3866 
L 703 4441 
L 1819 4666 
L 2450 4666 
L 2450 531 
L 3481 531 
L 3481 0 
L 794 0 
L 794 531 
z
" transform="scale(0.015625)"/>
       </defs>
       <use xlink:href="#DejaVuSans-31"/>
       <use xlink:href="#DejaVuSans-30" x="63.623047"/>
       <use xlink:href="#DejaVuSans-30" x="127.246094"/>
      </g>
     </g>
    </g>
    <g id="xtick_6">
     <g id="line2d_11">
      <path d="M 277.761462 307.584 
L 277.761462 41.472 
" clip-path="url(#p0d1e76c9d5)" style="fill: none; stroke: #b0b0b0; stroke-width: 0.8; stroke-linecap: square"/>
     </g>
     <g id="line2d_12">
      <g>
       <use xlink:href="#m13444247b8" x="277.761462" y="307.584" style="stroke: #000000; stroke-width: 0.8"/>
      </g>
     </g>
     <g id="text_6">
      <!-- 125 -->
      <g transform="translate(268.217712 322.182437)scale(0.1 -0.1)">
       <use xlink:href="#DejaVuSans-31"/>
       <use xlink:href="#DejaVuSans-32" x="63.623047"/>
       <use xlink:href="#DejaVuSans-35" x="127.246094"/>
      </g>
     </g>
    </g>
    <g id="xtick_7">
     <g id="line2d_13">
      <path d="M 318.547209 307.584 
L 318.547209 41.472 
" clip-path="url(#p0d1e76c9d5)" style="fill: none; stroke: #b0b0b0; stroke-width: 0.8; stroke-linecap: square"/>
     </g>
     <g id="line2d_14">
      <g>
       <use xlink:href="#m13444247b8" x="318.547209" y="307.584" style="stroke: #000000; stroke-width: 0.8"/>
      </g>
     </g>
     <g id="text_7">
      <!-- 150 -->
      <g transform="translate(309.003459 322.182437)scale(0.1 -0.1)">
       <use xlink:href="#DejaVuSans-31"/>
       <use xlink:href="#DejaVuSans-35" x="63.623047"/>
       <use xlink:href="#DejaVuSans-30" x="127.246094"/>
      </g>
     </g>
    </g>
    <g id="xtick_8">
     <g id="line2d_15">
      <path d="M 359.332956 307.584 
L 359.332956 41.472 
" clip-path="url(#p0d1e76c9d5)" style="fill: none; stroke: #b0b0b0; stroke-width: 0.8; stroke-linecap: square"/>
     </g>
     <g id="line2d_16">
      <g>
       <use xlink:href="#m13444247b8" x="359.332956" y="307.584" style="stroke: #000000; stroke-width: 0.8"/>
      </g>
     </g>
     <g id="text_8">
      <!-- 175 -->
      <g transform="translate(349.789206 322.182437)scale(0.1 -0.1)">
       <use xlink:href="#DejaVuSans-31"/>
       <use xlink:href="#DejaVuSans-37" x="63.623047"/>
       <use xlink:href="#DejaVuSans-35" x="127.246094"/>
      </g>
     </g>
    </g>
    <g id="xtick_9">
     <g id="line2d_17">
      <path d="M 400.118703 307.584 
L 400.118703 41.472 
" clip-path="url(#p0d1e76c9d5)" style="fill: none; stroke: #b0b0b0; stroke-width: 0.8; stroke-linecap: square"/>
     </g>
     <g id="line2d_18">
      <g>
       <use xlink:href="#m13444247b8" x="400.118703" y="307.584" style="stroke: #000000; stroke-width: 0.8"/>
      </g>
     </g>
     <g id="text_9">
      <!-- 200 -->
      <g transform="translate(390.574953 322.182437)scale(0.1 -0.1)">
       <use xlink:href="#DejaVuSans-32"/>
       <use xlink:href="#DejaVuSans-30" x="63.623047"/>
       <use xlink:href="#DejaVuSans-30" x="127.246094"/>
      </g>
     </g>
    </g>
    <g id="text_10">
     <!-- Training Epoch -->
     <g transform="translate(192.209063 337.38025)scale(0.12 -0.12)">
      <defs>
       <path id="DejaVuSans-54" d="M -19 4666 
L 3928 4666 
L 3928 4134 
L 2272 4134 
L 2272 0 
L 1638 0 
L 1638 4134 
L -19 4134 
L -19 4666 
z
" transform="scale(0.015625)"/>
       <path id="DejaVuSans-72" d="M 2631 2963 
Q 2534 3019 2420 3045 
Q 2306 3072 2169 3072 
Q 1681 3072 1420 2755 
Q 1159 2438 1159 1844 
L 1159 0 
L 581 0 
L 581 3500 
L 1159 3500 
L 1159 2956 
Q 1341 3275 1631 3429 
Q 1922 3584 2338 3584 
Q 2397 3584 2469 3576 
Q 2541 3569 2628 3553 
L 2631 2963 
z
" transform="scale(0.015625)"/>
       <path id="DejaVuSans-61" d="M 2194 1759 
Q 1497 1759 1228 1600 
Q 959 1441 959 1056 
Q 959 750 1161 570 
Q 1363 391 1709 391 
Q 2188 391 2477 730 
Q 2766 1069 2766 1631 
L 2766 1759 
L 2194 1759 
z
M 3341 1997 
L 3341 0 
L 2766 0 
L 2766 531 
Q 2569 213 2275 61 
Q 1981 -91 1556 -91 
Q 1019 -91 701 211 
Q 384 513 384 1019 
Q 384 1609 779 1909 
Q 1175 2209 1959 2209 
L 2766 2209 
L 2766 2266 
Q 2766 2663 2505 2880 
Q 2244 3097 1772 3097 
Q 1472 3097 1187 3025 
Q 903 2953 641 2809 
L 641 3341 
Q 956 3463 1253 3523 
Q 1550 3584 1831 3584 
Q 2591 3584 2966 3190 
Q 3341 2797 3341 1997 
z
" transform="scale(0.015625)"/>
       <path id="DejaVuSans-69" d="M 603 3500 
L 1178 3500 
L 1178 0 
L 603 0 
L 603 3500 
z
M 603 4863 
L 1178 4863 
L 1178 4134 
L 603 4134 
L 603 4863 
z
" transform="scale(0.015625)"/>
       <path id="DejaVuSans-6e" d="M 3513 2113 
L 3513 0 
L 2938 0 
L 2938 2094 
Q 2938 2591 2744 2837 
Q 2550 3084 2163 3084 
Q 1697 3084 1428 2787 
Q 1159 2491 1159 1978 
L 1159 0 
L 581 0 
L 581 3500 
L 1159 3500 
L 1159 2956 
Q 1366 3272 1645 3428 
Q 1925 3584 2291 3584 
Q 2894 3584 3203 3211 
Q 3513 2838 3513 2113 
z
" transform="scale(0.015625)"/>
       <path id="DejaVuSans-67" d="M 2906 1791 
Q 2906 2416 2648 2759 
Q 2391 3103 1925 3103 
Q 1463 3103 1205 2759 
Q 947 2416 947 1791 
Q 947 1169 1205 825 
Q 1463 481 1925 481 
Q 2391 481 2648 825 
Q 2906 1169 2906 1791 
z
M 3481 434 
Q 3481 -459 3084 -895 
Q 2688 -1331 1869 -1331 
Q 1566 -1331 1297 -1286 
Q 1028 -1241 775 -1147 
L 775 -588 
Q 1028 -725 1275 -790 
Q 1522 -856 1778 -856 
Q 2344 -856 2625 -561 
Q 2906 -266 2906 331 
L 2906 616 
Q 2728 306 2450 153 
Q 2172 0 1784 0 
Q 1141 0 747 490 
Q 353 981 353 1791 
Q 353 2603 747 3093 
Q 1141 3584 1784 3584 
Q 2172 3584 2450 3431 
Q 2728 3278 2906 2969 
L 2906 3500 
L 3481 3500 
L 3481 434 
z
" transform="scale(0.015625)"/>
       <path id="DejaVuSans-20" transform="scale(0.015625)"/>
       <path id="DejaVuSans-45" d="M 628 4666 
L 3578 4666 
L 3578 4134 
L 1259 4134 
L 1259 2753 
L 3481 2753 
L 3481 2222 
L 1259 2222 
L 1259 531 
L 3634 531 
L 3634 0 
L 628 0 
L 628 4666 
z
" transform="scale(0.015625)"/>
       <path id="DejaVuSans-70" d="M 1159 525 
L 1159 -1331 
L 581 -1331 
L 581 3500 
L 1159 3500 
L 1159 2969 
Q 1341 3281 1617 3432 
Q 1894 3584 2278 3584 
Q 2916 3584 3314 3078 
Q 3713 2572 3713 1747 
Q 3713 922 3314 415 
Q 2916 -91 2278 -91 
Q 1894 -91 1617 61 
Q 1341 213 1159 525 
z
M 3116 1747 
Q 3116 2381 2855 2742 
Q 2594 3103 2138 3103 
Q 1681 3103 1420 2742 
Q 1159 2381 1159 1747 
Q 1159 1113 1420 752 
Q 1681 391 2138 391 
Q 2594 391 2855 752 
Q 3116 1113 3116 1747 
z
" transform="scale(0.015625)"/>
       <path id="DejaVuSans-6f" d="M 1959 3097 
Q 1497 3097 1228 2736 
Q 959 2375 959 1747 
Q 959 1119 1226 758 
Q 1494 397 1959 397 
Q 2419 397 2687 759 
Q 2956 1122 2956 1747 
Q 2956 2369 2687 2733 
Q 2419 3097 1959 3097 
z
M 1959 3584 
Q 2709 3584 3137 3096 
Q 3566 2609 3566 1747 
Q 3566 888 3137 398 
Q 2709 -91 1959 -91 
Q 1206 -91 779 398 
Q 353 888 353 1747 
Q 353 2609 779 3096 
Q 1206 3584 1959 3584 
z
" transform="scale(0.015625)"/>
       <path id="DejaVuSans-63" d="M 3122 3366 
L 3122 2828 
Q 2878 2963 2633 3030 
Q 2388 3097 2138 3097 
Q 1578 3097 1268 2742 
Q 959 2388 959 1747 
Q 959 1106 1268 751 
Q 1578 397 2138 397 
Q 2388 397 2633 464 
Q 2878 531 3122 666 
L 3122 134 
Q 2881 22 2623 -34 
Q 2366 -91 2075 -91 
Q 1284 -91 818 406 
Q 353 903 353 1747 
Q 353 2603 823 3093 
Q 1294 3584 2113 3584 
Q 2378 3584 2631 3529 
Q 2884 3475 3122 3366 
z
" transform="scale(0.015625)"/>
       <path id="DejaVuSans-68" d="M 3513 2113 
L 3513 0 
L 2938 0 
L 2938 2094 
Q 2938 2591 2744 2837 
Q 2550 3084 2163 3084 
Q 1697 3084 1428 2787 
Q 1159 2491 1159 1978 
L 1159 0 
L 581 0 
L 581 4863 
L 1159 4863 
L 1159 2956 
Q 1366 3272 1645 3428 
Q 1925 3584 2291 3584 
Q 2894 3584 3203 3211 
Q 3513 2838 3513 2113 
z
" transform="scale(0.015625)"/>
      </defs>
      <use xlink:href="#DejaVuSans-54"/>
      <use xlink:href="#DejaVuSans-72" x="46.333984"/>
      <use xlink:href="#DejaVuSans-61" x="87.447266"/>
      <use xlink:href="#DejaVuSans-69" x="148.726562"/>
      <use xlink:href="#DejaVuSans-6e" x="176.509766"/>
      <use xlink:href="#DejaVuSans-69" x="239.888672"/>
      <use xlink:href="#DejaVuSans-6e" x="267.671875"/>
      <use xlink:href="#DejaVuSans-67" x="331.050781"/>
      <use xlink:href="#DejaVuSans-20" x="394.527344"/>
      <use xlink:href="#DejaVuSans-45" x="426.314453"/>
      <use xlink:href="#DejaVuSans-70" x="489.498047"/>
      <use xlink:href="#DejaVuSans-6f" x="552.974609"/>
      <use xlink:href="#DejaVuSans-63" x="614.15625"/>
      <use xlink:href="#DejaVuSans-68" x="669.136719"/>
     </g>
    </g>
   </g>
   <g id="matplotlib.axis_2">
    <g id="ytick_1">
     <g id="line2d_19">
      <path d="M 57.6 280.290462 
L 414.72 280.290462 
" clip-path="url(#p0d1e76c9d5)" style="fill: none; stroke: #b0b0b0; stroke-width: 0.8; stroke-linecap: square"/>
     </g>
     <g id="line2d_20">
      <defs>
       <path id="mf3b765f260" d="M 0 0 
L -3.5 0 
" style="stroke: #000000; stroke-width: 0.8"/>
      </defs>
      <g>
       <use xlink:href="#mf3b765f260" x="57.6" y="280.290462" style="stroke: #000000; stroke-width: 0.8"/>
      </g>
     </g>
     <g id="text_11">
      <!-- 50 -->
      <g transform="translate(37.875 284.08968)scale(0.1 -0.1)">
       <use xlink:href="#DejaVuSans-35"/>
       <use xlink:href="#DejaVuSans-30" x="63.623047"/>
      </g>
     </g>
    </g>
    <g id="ytick_2">
     <g id="line2d_21">
      <path d="M 57.6 246.173538 
L 414.72 246.173538 
" clip-path="url(#p0d1e76c9d5)" style="fill: none; stroke: #b0b0b0; stroke-width: 0.8; stroke-linecap: square"/>
     </g>
     <g id="line2d_22">
      <g>
       <use xlink:href="#mf3b765f260" x="57.6" y="246.173538" style="stroke: #000000; stroke-width: 0.8"/>
      </g>
     </g>
     <g id="text_12">
      <!-- 60 -->
      <g transform="translate(37.875 249.972757)scale(0.1 -0.1)">
       <defs>
        <path id="DejaVuSans-36" d="M 2113 2584 
Q 1688 2584 1439 2293 
Q 1191 2003 1191 1497 
Q 1191 994 1439 701 
Q 1688 409 2113 409 
Q 2538 409 2786 701 
Q 3034 994 3034 1497 
Q 3034 2003 2786 2293 
Q 2538 2584 2113 2584 
z
M 3366 4563 
L 3366 3988 
Q 3128 4100 2886 4159 
Q 2644 4219 2406 4219 
Q 1781 4219 1451 3797 
Q 1122 3375 1075 2522 
Q 1259 2794 1537 2939 
Q 1816 3084 2150 3084 
Q 2853 3084 3261 2657 
Q 3669 2231 3669 1497 
Q 3669 778 3244 343 
Q 2819 -91 2113 -91 
Q 1303 -91 875 529 
Q 447 1150 447 2328 
Q 447 3434 972 4092 
Q 1497 4750 2381 4750 
Q 2619 4750 2861 4703 
Q 3103 4656 3366 4563 
z
" transform="scale(0.015625)"/>
       </defs>
       <use xlink:href="#DejaVuSans-36"/>
       <use xlink:href="#DejaVuSans-30" x="63.623047"/>
      </g>
     </g>
    </g>
    <g id="ytick_3">
     <g id="line2d_23">
      <path d="M 57.6 212.056615 
L 414.72 212.056615 
" clip-path="url(#p0d1e76c9d5)" style="fill: none; stroke: #b0b0b0; stroke-width: 0.8; stroke-linecap: square"/>
     </g>
     <g id="line2d_24">
      <g>
       <use xlink:href="#mf3b765f260" x="57.6" y="212.056615" style="stroke: #000000; stroke-width: 0.8"/>
      </g>
     </g>
     <g id="text_13">
      <!-- 70 -->
      <g transform="translate(37.875 215.855834)scale(0.1 -0.1)">
       <use xlink:href="#DejaVuSans-37"/>
       <use xlink:href="#DejaVuSans-30" x="63.623047"/>
      </g>
     </g>
    </g>
    <g id="ytick_4">
     <g id="line2d_25">
      <path d="M 57.6 177.939692 
L 414.72 177.939692 
" clip-path="url(#p0d1e76c9d5)" style="fill: none; stroke: #b0b0b0; stroke-width: 0.8; stroke-linecap: square"/>
     </g>
     <g id="line2d_26">
      <g>
       <use xlink:href="#mf3b765f260" x="57.6" y="177.939692" style="stroke: #000000; stroke-width: 0.8"/>
      </g>
     </g>
     <g id="text_14">
      <!-- 80 -->
      <g transform="translate(37.875 181.738911)scale(0.1 -0.1)">
       <defs>
        <path id="DejaVuSans-38" d="M 2034 2216 
Q 1584 2216 1326 1975 
Q 1069 1734 1069 1313 
Q 1069 891 1326 650 
Q 1584 409 2034 409 
Q 2484 409 2743 651 
Q 3003 894 3003 1313 
Q 3003 1734 2745 1975 
Q 2488 2216 2034 2216 
z
M 1403 2484 
Q 997 2584 770 2862 
Q 544 3141 544 3541 
Q 544 4100 942 4425 
Q 1341 4750 2034 4750 
Q 2731 4750 3128 4425 
Q 3525 4100 3525 3541 
Q 3525 3141 3298 2862 
Q 3072 2584 2669 2484 
Q 3125 2378 3379 2068 
Q 3634 1759 3634 1313 
Q 3634 634 3220 271 
Q 2806 -91 2034 -91 
Q 1263 -91 848 271 
Q 434 634 434 1313 
Q 434 1759 690 2068 
Q 947 2378 1403 2484 
z
M 1172 3481 
Q 1172 3119 1398 2916 
Q 1625 2713 2034 2713 
Q 2441 2713 2670 2916 
Q 2900 3119 2900 3481 
Q 2900 3844 2670 4047 
Q 2441 4250 2034 4250 
Q 1625 4250 1398 4047 
Q 1172 3844 1172 3481 
z
" transform="scale(0.015625)"/>
       </defs>
       <use xlink:href="#DejaVuSans-38"/>
       <use xlink:href="#DejaVuSans-30" x="63.623047"/>
      </g>
     </g>
    </g>
    <g id="ytick_5">
     <g id="line2d_27">
      <path d="M 57.6 143.822769 
L 414.72 143.822769 
" clip-path="url(#p0d1e76c9d5)" style="fill: none; stroke: #b0b0b0; stroke-width: 0.8; stroke-linecap: square"/>
     </g>
     <g id="line2d_28">
      <g>
       <use xlink:href="#mf3b765f260" x="57.6" y="143.822769" style="stroke: #000000; stroke-width: 0.8"/>
      </g>
     </g>
     <g id="text_15">
      <!-- 90 -->
      <g transform="translate(37.875 147.621988)scale(0.1 -0.1)">
       <defs>
        <path id="DejaVuSans-39" d="M 703 97 
L 703 672 
Q 941 559 1184 500 
Q 1428 441 1663 441 
Q 2288 441 2617 861 
Q 2947 1281 2994 2138 
Q 2813 1869 2534 1725 
Q 2256 1581 1919 1581 
Q 1219 1581 811 2004 
Q 403 2428 403 3163 
Q 403 3881 828 4315 
Q 1253 4750 1959 4750 
Q 2769 4750 3195 4129 
Q 3622 3509 3622 2328 
Q 3622 1225 3098 567 
Q 2575 -91 1691 -91 
Q 1453 -91 1209 -44 
Q 966 3 703 97 
z
M 1959 2075 
Q 2384 2075 2632 2365 
Q 2881 2656 2881 3163 
Q 2881 3666 2632 3958 
Q 2384 4250 1959 4250 
Q 1534 4250 1286 3958 
Q 1038 3666 1038 3163 
Q 1038 2656 1286 2365 
Q 1534 2075 1959 2075 
z
" transform="scale(0.015625)"/>
       </defs>
       <use xlink:href="#DejaVuSans-39"/>
       <use xlink:href="#DejaVuSans-30" x="63.623047"/>
      </g>
     </g>
    </g>
    <g id="ytick_6">
     <g id="line2d_29">
      <path d="M 57.6 109.705846 
L 414.72 109.705846 
" clip-path="url(#p0d1e76c9d5)" style="fill: none; stroke: #b0b0b0; stroke-width: 0.8; stroke-linecap: square"/>
     </g>
     <g id="line2d_30">
      <g>
       <use xlink:href="#mf3b765f260" x="57.6" y="109.705846" style="stroke: #000000; stroke-width: 0.8"/>
      </g>
     </g>
     <g id="text_16">
      <!-- 100 -->
      <g transform="translate(31.5125 113.505065)scale(0.1 -0.1)">
       <use xlink:href="#DejaVuSans-31"/>
       <use xlink:href="#DejaVuSans-30" x="63.623047"/>
       <use xlink:href="#DejaVuSans-30" x="127.246094"/>
      </g>
     </g>
    </g>
    <g id="ytick_7">
     <g id="line2d_31">
      <path d="M 57.6 75.588923 
L 414.72 75.588923 
" clip-path="url(#p0d1e76c9d5)" style="fill: none; stroke: #b0b0b0; stroke-width: 0.8; stroke-linecap: square"/>
     </g>
     <g id="line2d_32">
      <g>
       <use xlink:href="#mf3b765f260" x="57.6" y="75.588923" style="stroke: #000000; stroke-width: 0.8"/>
      </g>
     </g>
     <g id="text_17">
      <!-- 110 -->
      <g transform="translate(31.5125 79.388142)scale(0.1 -0.1)">
       <use xlink:href="#DejaVuSans-31"/>
       <use xlink:href="#DejaVuSans-31" x="63.623047"/>
       <use xlink:href="#DejaVuSans-30" x="127.246094"/>
      </g>
     </g>
    </g>
    <g id="ytick_8">
     <g id="line2d_33">
      <path d="M 57.6 41.472 
L 414.72 41.472 
" clip-path="url(#p0d1e76c9d5)" style="fill: none; stroke: #b0b0b0; stroke-width: 0.8; stroke-linecap: square"/>
     </g>
     <g id="line2d_34">
      <g>
       <use xlink:href="#mf3b765f260" x="57.6" y="41.472" style="stroke: #000000; stroke-width: 0.8"/>
      </g>
     </g>
     <g id="text_18">
      <!-- 120 -->
      <g transform="translate(31.5125 45.271219)scale(0.1 -0.1)">
       <use xlink:href="#DejaVuSans-31"/>
       <use xlink:href="#DejaVuSans-32" x="63.623047"/>
       <use xlink:href="#DejaVuSans-30" x="127.246094"/>
      </g>
     </g>
    </g>
    <g id="text_19">
     <!-- Perplexity -->
     <g transform="translate(25.016875 204.271125)rotate(-90)scale(0.12 -0.12)">
      <defs>
       <path id="DejaVuSans-50" d="M 1259 4147 
L 1259 2394 
L 2053 2394 
Q 2494 2394 2734 2622 
Q 2975 2850 2975 3272 
Q 2975 3691 2734 3919 
Q 2494 4147 2053 4147 
L 1259 4147 
z
M 628 4666 
L 2053 4666 
Q 2838 4666 3239 4311 
Q 3641 3956 3641 3272 
Q 3641 2581 3239 2228 
Q 2838 1875 2053 1875 
L 1259 1875 
L 1259 0 
L 628 0 
L 628 4666 
z
" transform="scale(0.015625)"/>
       <path id="DejaVuSans-65" d="M 3597 1894 
L 3597 1613 
L 953 1613 
Q 991 1019 1311 708 
Q 1631 397 2203 397 
Q 2534 397 2845 478 
Q 3156 559 3463 722 
L 3463 178 
Q 3153 47 2828 -22 
Q 2503 -91 2169 -91 
Q 1331 -91 842 396 
Q 353 884 353 1716 
Q 353 2575 817 3079 
Q 1281 3584 2069 3584 
Q 2775 3584 3186 3129 
Q 3597 2675 3597 1894 
z
M 3022 2063 
Q 3016 2534 2758 2815 
Q 2500 3097 2075 3097 
Q 1594 3097 1305 2825 
Q 1016 2553 972 2059 
L 3022 2063 
z
" transform="scale(0.015625)"/>
       <path id="DejaVuSans-6c" d="M 603 4863 
L 1178 4863 
L 1178 0 
L 603 0 
L 603 4863 
z
" transform="scale(0.015625)"/>
       <path id="DejaVuSans-78" d="M 3513 3500 
L 2247 1797 
L 3578 0 
L 2900 0 
L 1881 1375 
L 863 0 
L 184 0 
L 1544 1831 
L 300 3500 
L 978 3500 
L 1906 2253 
L 2834 3500 
L 3513 3500 
z
" transform="scale(0.015625)"/>
       <path id="DejaVuSans-74" d="M 1172 4494 
L 1172 3500 
L 2356 3500 
L 2356 3053 
L 1172 3053 
L 1172 1153 
Q 1172 725 1289 603 
Q 1406 481 1766 481 
L 2356 481 
L 2356 0 
L 1766 0 
Q 1100 0 847 248 
Q 594 497 594 1153 
L 594 3053 
L 172 3053 
L 172 3500 
L 594 3500 
L 594 4494 
L 1172 4494 
z
" transform="scale(0.015625)"/>
       <path id="DejaVuSans-79" d="M 2059 -325 
Q 1816 -950 1584 -1140 
Q 1353 -1331 966 -1331 
L 506 -1331 
L 506 -850 
L 844 -850 
Q 1081 -850 1212 -737 
Q 1344 -625 1503 -206 
L 1606 56 
L 191 3500 
L 800 3500 
L 1894 763 
L 2988 3500 
L 3597 3500 
L 2059 -325 
z
" transform="scale(0.015625)"/>
      </defs>
      <use xlink:href="#DejaVuSans-50"/>
      <use xlink:href="#DejaVuSans-65" x="56.677734"/>
      <use xlink:href="#DejaVuSans-72" x="118.201172"/>
      <use xlink:href="#DejaVuSans-70" x="159.314453"/>
      <use xlink:href="#DejaVuSans-6c" x="222.791016"/>
      <use xlink:href="#DejaVuSans-65" x="250.574219"/>
      <use xlink:href="#DejaVuSans-78" x="310.347656"/>
      <use xlink:href="#DejaVuSans-69" x="369.527344"/>
      <use xlink:href="#DejaVuSans-74" x="397.310547"/>
      <use xlink:href="#DejaVuSans-79" x="436.519531"/>
     </g>
    </g>
   </g>
   <g id="line2d_35">
    <path d="M 80.122942 -1 
L 80.358447 4.363766 
L 81.989877 34.338713 
L 86.884166 86.673977 
L 88.515596 97.404847 
L 90.147026 105.870308 
L 91.778456 118.581492 
L 93.409886 123.253263 
L 95.041316 132.386691 
L 96.672746 140.364594 
L 98.304175 144.081972 
L 101.567035 155.800995 
L 103.198465 157.806841 
L 104.829895 162.621072 
L 106.461325 166.009675 
L 108.092755 167.951219 
L 109.724185 174.759737 
L 111.355614 176.937411 
L 112.987044 176.823609 
L 114.618474 178.386268 
L 116.249904 183.04608 
L 117.881334 185.211915 
L 119.512764 188.232053 
L 121.144194 188.440126 
L 122.775624 193.359736 
L 124.407053 194.822557 
L 126.038483 196.533107 
L 127.669913 199.975214 
L 129.301343 199.146218 
L 130.932773 198.897809 
L 132.564203 200.414945 
L 134.195633 203.268673 
L 135.827063 203.321335 
L 137.458492 205.132124 
L 139.089922 209.859187 
L 140.721352 206.726344 
L 142.352782 208.546173 
L 145.615642 210.710591 
L 147.247072 212.28435 
L 148.878502 212.661873 
L 150.509931 212.120175 
L 152.141361 214.132191 
L 153.772791 215.726518 
L 155.404221 217.070633 
L 157.035651 216.395388 
L 158.667081 218.859598 
L 160.298511 220.547802 
L 161.929941 220.28934 
L 163.56137 220.756329 
L 165.1928 219.103749 
L 166.82423 220.496555 
L 168.45566 222.89568 
L 170.08709 222.998626 
L 171.71852 221.083423 
L 173.34995 224.57489 
L 174.98138 224.41786 
L 176.61281 226.635633 
L 178.244239 225.730365 
L 179.875669 225.563341 
L 181.507099 227.725159 
L 183.138529 228.702155 
L 184.769959 228.268139 
L 186.401389 229.718208 
L 188.032819 228.157991 
L 189.664249 229.320797 
L 191.295678 231.672652 
L 192.927108 229.06751 
L 194.558538 230.519163 
L 196.189968 231.177403 
L 197.821398 234.147878 
L 199.452828 232.417334 
L 201.084258 233.469281 
L 202.715688 233.390048 
L 204.347117 234.905835 
L 205.978547 234.733745 
L 207.609977 236.22877 
L 209.241407 236.506658 
L 210.872837 237.488647 
L 212.504267 236.071239 
L 214.135697 236.331981 
L 215.767127 240.682877 
L 217.398556 235.736462 
L 219.029986 237.419478 
L 220.661416 237.379803 
L 222.292846 240.314359 
L 223.924276 240.301764 
L 225.555706 239.980467 
L 227.187136 239.959677 
L 228.818566 239.403464 
L 230.449995 238.369206 
L 232.081425 238.37634 
L 233.712855 239.248779 
L 235.344285 241.455626 
L 236.975715 268.247789 
L 240.238575 275.628652 
L 241.870005 275.475308 
L 243.501434 277.848321 
L 245.132864 278.063784 
L 246.764294 279.770231 
L 248.395724 279.007315 
L 250.027154 279.782189 
L 251.658584 283.472151 
L 253.290014 282.244693 
L 254.921444 283.491767 
L 256.552873 285.368823 
L 258.184303 285.612498 
L 259.815733 287.734243 
L 261.447163 288.183495 
L 264.710023 288.031248 
L 266.341453 286.244286 
L 267.972883 288.592093 
L 269.604312 289.79547 
L 271.235742 288.601602 
L 272.867172 289.793013 
L 274.498602 288.064044 
L 276.130032 290.716743 
L 277.761462 291.465923 
L 279.392892 293.170076 
L 281.024322 292.233725 
L 284.287181 290.973578 
L 285.918611 294.475689 
L 287.550041 293.815971 
L 289.181471 293.408609 
L 290.812901 293.253363 
L 292.444331 292.416526 
L 294.075761 294.146775 
L 295.70719 293.294148 
L 297.33862 296.809862 
L 298.97005 293.091608 
L 300.60148 297.541911 
L 302.23291 297.74458 
L 303.86434 295.855861 
L 305.49577 295.475748 
L 307.1272 297.968308 
L 308.75863 296.826176 
L 310.390059 298.108281 
L 312.021489 301.688147 
L 313.652919 299.073531 
L 315.284349 299.046891 
L 316.915779 300.763071 
L 318.547209 300.314328 
L 320.178639 300.592467 
L 321.810069 300.006119 
L 323.441498 300.863225 
L 325.072928 300.777409 
L 326.704358 298.519992 
L 328.335788 302.313982 
L 329.967218 298.693228 
L 331.598648 299.370608 
L 333.230078 301.145239 
L 334.861508 299.999259 
L 336.492937 300.67848 
L 338.124367 301.479664 
L 339.755797 299.85429 
L 343.018657 299.054212 
L 344.650087 299.711396 
L 346.281517 300.814507 
L 347.912947 300.871511 
L 349.544376 300.652489 
L 351.175806 299.586836 
L 352.807236 299.511514 
L 354.438666 300.4275 
L 356.070096 301.107308 
L 357.701526 302.727335 
L 359.332956 301.852004 
L 360.964386 300.066467 
L 362.595815 303.07451 
L 364.227245 300.385943 
L 365.858675 300.897098 
L 367.490105 301.655408 
L 369.121535 300.092008 
L 370.752965 302.13924 
L 372.384395 303.013425 
L 374.015825 302.408435 
L 375.647254 299.994562 
L 377.278684 301.094921 
L 378.910114 301.358842 
L 380.541544 300.737873 
L 382.172974 303.006386 
L 383.804404 301.529761 
L 385.435834 301.268151 
L 387.067264 302.57313 
L 388.698693 301.426768 
L 390.330123 300.587009 
L 391.961553 302.00873 
L 393.592983 302.746051 
L 395.224413 301.684413 
L 396.855843 301.376865 
L 398.487273 301.783725 
L 398.487273 301.783725 
" clip-path="url(#p0d1e76c9d5)" style="fill: none; stroke: #1f77b4; stroke-width: 1.5; stroke-linecap: square"/>
   </g>
   <g id="line2d_36">
    <path d="M 85.372612 -1 
L 86.884166 24.975847 
L 88.515596 49.925513 
L 90.147026 65.342834 
L 91.778456 75.649167 
L 95.041316 99.669745 
L 96.672746 106.812497 
L 98.304175 117.997376 
L 99.935605 124.769076 
L 101.567035 127.419897 
L 103.198465 136.420086 
L 104.829895 140.892717 
L 106.461325 142.242631 
L 108.092755 150.251851 
L 109.724185 155.83233 
L 111.355614 157.102751 
L 112.987044 160.417536 
L 114.618474 164.070211 
L 116.249904 167.423008 
L 117.881334 171.809945 
L 119.512764 173.491276 
L 121.144194 177.597632 
L 122.775624 178.976707 
L 124.407053 176.892849 
L 126.038483 179.818777 
L 127.669913 185.80253 
L 129.301343 184.041962 
L 130.932773 183.384657 
L 134.195633 187.737609 
L 135.827063 190.763964 
L 137.458492 191.432432 
L 139.089922 192.289594 
L 140.721352 193.848164 
L 142.352782 194.882328 
L 143.984212 197.703694 
L 145.615642 197.984076 
L 148.878502 200.659644 
L 150.509931 201.180486 
L 152.141361 204.205922 
L 153.772791 204.054116 
L 155.404221 206.85022 
L 157.035651 204.683246 
L 160.298511 206.668445 
L 161.929941 207.221248 
L 163.56137 211.022028 
L 165.1928 210.682225 
L 166.82423 212.175762 
L 168.45566 211.901196 
L 170.08709 213.536552 
L 171.71852 211.503914 
L 173.34995 215.490591 
L 174.98138 215.915462 
L 176.61281 217.202524 
L 178.244239 215.466382 
L 179.875669 218.254485 
L 181.507099 214.012012 
L 183.138529 218.847632 
L 184.769959 217.707432 
L 186.401389 216.848482 
L 188.032819 218.804647 
L 189.664249 221.274159 
L 191.295678 221.938358 
L 192.927108 220.705479 
L 194.558538 222.245492 
L 196.189968 223.547557 
L 197.821398 224.44101 
L 199.452828 221.489169 
L 201.084258 225.058286 
L 202.715688 222.127826 
L 204.347117 223.714204 
L 205.978547 225.008594 
L 207.609977 223.891396 
L 209.241407 225.49182 
L 212.504267 227.807205 
L 214.135697 226.361393 
L 215.767127 226.695777 
L 217.398556 226.110141 
L 219.029986 228.992225 
L 220.661416 228.603753 
L 222.292846 228.589644 
L 223.924276 229.680544 
L 227.187136 232.255404 
L 228.818566 230.272025 
L 230.449995 227.913444 
L 232.081425 228.506122 
L 233.712855 233.685928 
L 235.344285 232.339451 
L 236.975715 258.686383 
L 238.607145 266.562259 
L 240.238575 268.831831 
L 243.501434 272.017932 
L 245.132864 272.823502 
L 246.764294 275.013882 
L 248.395724 273.680393 
L 250.027154 275.808416 
L 251.658584 278.241841 
L 254.921444 279.041824 
L 256.552873 278.016155 
L 258.184303 279.948721 
L 259.815733 280.141978 
L 261.447163 281.548473 
L 263.078593 281.787556 
L 264.710023 280.152242 
L 266.341453 284.042385 
L 267.972883 282.711116 
L 269.604312 283.760903 
L 271.235742 283.550603 
L 272.867172 284.34972 
L 274.498602 284.847969 
L 276.130032 286.079815 
L 277.761462 283.327 
L 279.392892 287.899699 
L 281.024322 287.728467 
L 282.655751 286.880266 
L 284.287181 285.896954 
L 285.918611 287.674936 
L 287.550041 287.538514 
L 289.181471 288.111239 
L 290.812901 289.409663 
L 292.444331 286.629889 
L 294.075761 290.175207 
L 295.70719 288.249317 
L 297.33862 289.910163 
L 298.97005 289.831499 
L 300.60148 290.729597 
L 302.23291 291.860357 
L 303.86434 291.960535 
L 305.49577 291.708296 
L 307.1272 295.612696 
L 308.75863 293.185765 
L 310.390059 293.053612 
L 312.021489 294.947496 
L 313.652919 295.656092 
L 315.284349 293.147069 
L 316.915779 294.718967 
L 318.547209 294.584474 
L 320.178639 294.912612 
L 321.810069 296.713353 
L 323.441498 296.308599 
L 325.072928 293.910366 
L 326.704358 296.294778 
L 328.335788 292.913394 
L 329.967218 293.373044 
L 331.598648 295.077493 
L 333.230078 295.559524 
L 334.861508 294.882386 
L 336.492937 294.906282 
L 338.124367 296.094536 
L 341.387227 295.284131 
L 343.018657 298.073405 
L 344.650087 295.360607 
L 346.281517 295.330657 
L 349.544376 296.068932 
L 351.175806 295.63468 
L 352.807236 293.527692 
L 354.438666 296.064066 
L 356.070096 297.366381 
L 357.701526 294.10377 
L 359.332956 296.164192 
L 360.964386 296.962591 
L 362.595815 297.042843 
L 364.227245 295.016765 
L 365.858675 297.248797 
L 367.490105 295.673665 
L 370.752965 294.743936 
L 372.384395 294.94012 
L 374.015825 298.014918 
L 375.647254 297.781354 
L 377.278684 296.708883 
L 378.910114 296.336239 
L 380.541544 296.660793 
L 382.172974 296.605908 
L 383.804404 294.690562 
L 385.435834 297.29736 
L 387.067264 295.973141 
L 388.698693 295.422529 
L 390.330123 296.523592 
L 391.961553 297.23309 
L 393.592983 296.60572 
L 395.224413 296.820487 
L 396.855843 295.40042 
L 398.487273 296.564567 
L 398.487273 296.564567 
" clip-path="url(#p0d1e76c9d5)" style="fill: none; stroke-dasharray: 5.55,2.4; stroke-dashoffset: 0; stroke: #ff7f0e; stroke-width: 1.5"/>
   </g>
   <g id="line2d_37">
    <path d="M 88.663995 -1 
L 90.147026 5.978163 
L 91.778456 17.484655 
L 93.409886 17.792051 
L 95.041316 27.713364 
L 96.672746 32.81868 
L 98.304175 36.084046 
L 99.935605 39.729005 
L 101.567035 45.02118 
L 103.198465 42.673273 
L 104.829895 49.171189 
L 106.461325 49.071142 
L 108.092755 51.668404 
L 109.724185 57.821187 
L 111.355614 58.56729 
L 112.987044 54.59587 
L 114.618474 58.559867 
L 116.249904 61.854558 
L 119.512764 64.664309 
L 121.144194 63.871463 
L 122.775624 68.775229 
L 124.407053 69.883374 
L 126.038483 69.336515 
L 127.669913 74.441209 
L 129.301343 70.783861 
L 130.932773 71.870913 
L 132.564203 71.863626 
L 134.195633 73.388141 
L 135.827063 73.3901 
L 137.458492 72.780319 
L 139.089922 78.523748 
L 140.721352 75.368513 
L 142.352782 76.938504 
L 143.984212 78.024567 
L 145.615642 77.020202 
L 147.247072 77.920325 
L 148.878502 79.792902 
L 150.509931 78.68121 
L 152.141361 79.081493 
L 155.404221 81.280447 
L 157.035651 80.767116 
L 158.667081 82.335005 
L 160.298511 86.319918 
L 161.929941 83.431298 
L 163.56137 83.379152 
L 165.1928 80.961561 
L 166.82423 84.941224 
L 168.45566 86.772105 
L 170.08709 85.327636 
L 171.71852 83.556083 
L 173.34995 87.601635 
L 174.98138 87.184887 
L 176.61281 89.184174 
L 179.875669 85.8313 
L 181.507099 87.817752 
L 183.138529 91.043025 
L 184.769959 89.584959 
L 186.401389 90.800148 
L 188.032819 84.428169 
L 189.664249 89.237814 
L 191.295678 92.30354 
L 192.927108 87.772988 
L 194.558538 89.240352 
L 196.189968 89.459575 
L 197.821398 92.159614 
L 199.452828 90.486287 
L 202.715688 90.477268 
L 204.347117 90.931878 
L 205.978547 89.892225 
L 209.241407 93.931396 
L 210.872837 94.371313 
L 212.504267 91.918149 
L 214.135697 91.140634 
L 215.767127 95.518244 
L 217.398556 89.740278 
L 219.029986 91.780972 
L 220.661416 91.343235 
L 222.292846 95.114378 
L 223.924276 94.879899 
L 225.555706 92.563008 
L 227.187136 92.706116 
L 228.818566 90.838826 
L 230.449995 90.822345 
L 232.081425 93.287362 
L 233.712855 91.490779 
L 235.344285 94.54654 
L 236.975715 168.76468 
L 238.607145 182.601728 
L 240.238575 190.233167 
L 241.870005 193.187572 
L 243.501434 197.800099 
L 245.132864 200.374202 
L 246.764294 204.537823 
L 248.395724 204.55158 
L 250.027154 206.878666 
L 251.658584 213.265726 
L 253.290014 212.861923 
L 254.921444 214.194822 
L 256.552873 218.637375 
L 258.184303 220.270481 
L 259.815733 223.097355 
L 261.447163 224.186225 
L 264.710023 225.730984 
L 266.341453 224.642906 
L 267.972883 228.159826 
L 269.604312 229.608034 
L 271.235742 230.126762 
L 272.867172 231.485065 
L 274.498602 230.730353 
L 276.130032 233.244447 
L 277.761462 235.24559 
L 279.392892 238.428278 
L 281.024322 236.965938 
L 282.655751 236.021806 
L 284.287181 236.989437 
L 285.918611 240.434423 
L 287.550041 240.045074 
L 289.181471 241.490262 
L 290.812901 240.390683 
L 292.444331 240.637008 
L 294.075761 242.621724 
L 295.70719 241.765678 
L 297.33862 246.113137 
L 298.97005 242.634879 
L 300.60148 247.851331 
L 302.23291 248.097093 
L 303.86434 246.447989 
L 305.49577 247.028726 
L 307.1272 250.372476 
L 308.75863 249.018164 
L 310.390059 257.686483 
L 312.021489 263.210833 
L 313.652919 260.110297 
L 315.284349 259.413453 
L 316.915779 261.564397 
L 318.547209 261.216399 
L 320.178639 261.982558 
L 321.810069 261.921905 
L 323.441498 263.303588 
L 325.072928 262.699972 
L 326.704358 260.432778 
L 328.335788 264.506838 
L 329.967218 262.136811 
L 331.598648 261.805503 
L 333.230078 263.157048 
L 334.861508 262.709448 
L 336.492937 263.374727 
L 338.124367 264.404036 
L 339.755797 262.918067 
L 341.387227 262.264406 
L 343.018657 262.200504 
L 344.650087 262.403706 
L 346.281517 264.658291 
L 347.912947 264.711589 
L 349.544376 264.278401 
L 351.175806 263.381536 
L 352.807236 262.620477 
L 354.438666 264.460535 
L 356.070096 264.511217 
L 357.701526 266.494693 
L 359.332956 265.85206 
L 360.964386 264.079444 
L 362.595815 267.054949 
L 364.227245 264.595712 
L 365.858675 264.670679 
L 367.490105 265.525237 
L 369.121535 265.08969 
L 370.752965 265.585185 
L 372.384395 267.012591 
L 374.015825 266.975722 
L 375.647254 265.031566 
L 378.910114 266.079077 
L 380.541544 265.184407 
L 382.172974 268.018637 
L 383.804404 266.90741 
L 385.435834 266.059338 
L 387.067264 266.839409 
L 388.698693 266.071802 
L 390.330123 265.96106 
L 391.961553 266.623109 
L 393.592983 268.040287 
L 395.224413 266.702881 
L 396.855843 266.430874 
L 398.487273 266.339158 
L 398.487273 266.339158 
" clip-path="url(#p0d1e76c9d5)" style="fill: none; stroke-dasharray: 5.55,2.4; stroke-dashoffset: 0; stroke: #2ca02c; stroke-width: 1.5"/>
   </g>
   <g id="line2d_38">
    <path d="M 80.23546 -1 
L 80.358447 1.74584 
L 81.989877 29.288758 
L 83.621307 51.084299 
L 85.252736 58.914332 
L 86.884166 76.398229 
L 88.515596 92.183369 
L 90.147026 103.522137 
L 91.778456 111.524756 
L 93.409886 120.661827 
L 95.041316 127.843088 
L 96.672746 132.101588 
L 98.304175 140.363741 
L 99.935605 143.129821 
L 101.567035 146.593912 
L 103.198465 154.120769 
L 104.829895 158.282887 
L 106.461325 158.308066 
L 108.092755 163.497483 
L 109.724185 169.909115 
L 111.355614 171.402394 
L 112.987044 172.709442 
L 114.618474 176.904471 
L 116.249904 178.916044 
L 119.512764 184.923784 
L 121.144194 189.079416 
L 122.775624 188.191813 
L 124.407053 188.114042 
L 126.038483 191.040058 
L 127.669913 195.65372 
L 129.301343 193.924317 
L 134.195633 200.212847 
L 135.827063 201.988731 
L 137.458492 201.8158 
L 139.089922 202.608806 
L 140.721352 204.682645 
L 142.352782 206.173165 
L 143.984212 208.114866 
L 145.615642 207.946117 
L 147.247072 210.866433 
L 148.878502 209.618993 
L 150.509931 211.373776 
L 152.141361 213.560163 
L 153.772791 213.781818 
L 155.404221 217.075556 
L 157.035651 214.474112 
L 158.667081 214.698228 
L 160.298511 217.304834 
L 161.929941 215.819359 
L 163.56137 220.495922 
L 165.1928 221.105231 
L 166.82423 221.322081 
L 168.45566 221.019879 
L 170.08709 223.793635 
L 171.71852 221.878545 
L 173.34995 223.614702 
L 174.98138 224.695923 
L 176.61281 226.184484 
L 178.244239 223.080254 
L 179.875669 226.672173 
L 181.507099 223.231057 
L 183.138529 228.38061 
L 184.769959 227.243855 
L 186.401389 225.596275 
L 188.032819 228.091032 
L 189.664249 229.332765 
L 191.295678 229.841144 
L 192.927108 228.731579 
L 194.558538 231.463103 
L 196.189968 231.693589 
L 197.821398 233.070302 
L 199.452828 230.714363 
L 201.084258 234.058372 
L 202.715688 230.032563 
L 204.347117 233.253745 
L 205.978547 233.331036 
L 207.609977 231.964857 
L 209.241407 234.314486 
L 210.872837 235.013701 
L 212.504267 236.302189 
L 214.135697 234.557293 
L 215.767127 236.047311 
L 217.398556 234.539931 
L 219.029986 236.833313 
L 220.661416 236.104603 
L 222.292846 235.871078 
L 223.924276 237.684699 
L 225.555706 238.364083 
L 227.187136 239.174819 
L 228.818566 238.986086 
L 230.449995 236.799997 
L 232.081425 236.823123 
L 233.712855 240.395629 
L 235.344285 241.279928 
L 236.975715 263.332036 
L 238.607145 271.092879 
L 240.238575 273.339065 
L 241.870005 273.770947 
L 243.501434 276.015213 
L 245.132864 276.877401 
L 246.764294 279.205986 
L 248.395724 277.530099 
L 250.027154 279.744173 
L 251.658584 282.25514 
L 253.290014 282.084313 
L 254.921444 282.644027 
L 256.552873 282.245362 
L 258.184303 284.031285 
L 259.815733 284.860737 
L 261.447163 284.798815 
L 263.078593 285.144059 
L 264.710023 285.749723 
L 266.341453 288.071497 
L 267.972883 287.009837 
L 269.604312 287.909149 
L 271.235742 287.017088 
L 272.867172 289.253384 
L 274.498602 289.078143 
L 276.130032 289.545113 
L 277.761462 287.623779 
L 279.392892 291.060805 
L 281.024322 291.603488 
L 282.655751 290.887231 
L 284.287181 289.858871 
L 285.918611 291.313095 
L 287.550041 291.710239 
L 290.812901 294.148306 
L 292.444331 289.957904 
L 294.075761 294.393812 
L 295.70719 291.813084 
L 297.33862 294.884433 
L 298.97005 293.906534 
L 300.60148 294.06128 
L 302.23291 295.447813 
L 303.86434 294.98732 
L 305.49577 294.920465 
L 307.1272 299.574969 
L 308.75863 296.966818 
L 310.390059 296.686393 
L 312.021489 298.531848 
L 313.652919 299.543799 
L 315.284349 296.732217 
L 316.915779 297.722475 
L 318.547209 298.02714 
L 320.178639 298.83481 
L 321.810069 300.025225 
L 323.441498 299.727818 
L 325.072928 296.338927 
L 326.704358 299.866779 
L 328.335788 296.844133 
L 329.967218 297.017725 
L 331.598648 298.444373 
L 333.230078 300.076546 
L 334.861508 298.038987 
L 336.492937 298.307501 
L 338.124367 299.573492 
L 339.755797 298.480327 
L 341.387227 299.068018 
L 343.018657 301.946841 
L 344.650087 299.403663 
L 346.281517 298.613651 
L 347.912947 299.192358 
L 349.544376 299.586189 
L 351.175806 299.669272 
L 352.807236 297.205752 
L 354.438666 299.061486 
L 356.070096 300.491856 
L 357.701526 297.362587 
L 359.332956 300.083725 
L 360.964386 300.968436 
L 362.595815 300.886616 
L 364.227245 299.424232 
L 365.858675 300.967567 
L 367.490105 299.632906 
L 369.121535 299.54306 
L 370.752965 298.656673 
L 372.384395 298.943021 
L 374.015825 300.753358 
L 375.647254 301.34383 
L 377.278684 300.700389 
L 378.910114 300.262536 
L 380.541544 299.993595 
L 382.172974 300.723118 
L 383.804404 298.401012 
L 385.435834 301.015778 
L 388.698693 299.121657 
L 390.330123 300.493967 
L 391.961553 300.765361 
L 393.592983 299.745529 
L 395.224413 300.321863 
L 396.855843 298.835367 
L 398.487273 300.284459 
L 398.487273 300.284459 
" clip-path="url(#p0d1e76c9d5)" style="fill: none; stroke-dasharray: 5.55,2.4; stroke-dashoffset: 0; stroke: #d62728; stroke-width: 1.5"/>
   </g>
   <g id="line2d_39">
    <path d="M 88.993 -1 
L 91.778456 15.096356 
L 93.409886 21.148823 
L 95.041316 28.973042 
L 96.672746 29.352181 
L 98.304175 36.320691 
L 99.935605 40.986063 
L 101.567035 41.271165 
L 103.198465 48.335235 
L 104.829895 53.362354 
L 106.461325 53.343308 
L 108.092755 56.316413 
L 109.724185 63.337027 
L 111.355614 63.638255 
L 112.987044 64.425211 
L 114.618474 65.955213 
L 116.249904 70.586503 
L 117.881334 70.105848 
L 119.512764 72.599236 
L 121.144194 77.890163 
L 122.775624 77.133706 
L 124.407053 75.585494 
L 126.038483 77.255043 
L 127.669913 83.179132 
L 129.301343 81.068677 
L 130.932773 81.386907 
L 132.564203 84.743619 
L 134.195633 85.648554 
L 135.827063 88.16128 
L 137.458492 87.974827 
L 139.089922 88.207989 
L 140.721352 90.562166 
L 142.352782 90.281222 
L 143.984212 93.450688 
L 145.615642 91.461823 
L 147.247072 93.348687 
L 148.878502 95.914069 
L 150.509931 95.206758 
L 152.141361 98.991825 
L 153.772791 96.972453 
L 155.404221 101.08124 
L 157.035651 97.448856 
L 158.667081 97.431814 
L 160.298511 99.643699 
L 161.929941 98.537073 
L 163.56137 103.920271 
L 165.1928 102.062375 
L 166.82423 103.688205 
L 168.45566 101.920769 
L 170.08709 105.549982 
L 171.71852 103.251829 
L 173.34995 102.879479 
L 174.98138 105.518997 
L 176.61281 106.602014 
L 178.244239 103.099243 
L 179.875669 106.658639 
L 181.507099 101.698982 
L 183.138529 108.726754 
L 184.769959 106.04925 
L 186.401389 104.275958 
L 188.032819 104.995001 
L 189.664249 108.677989 
L 191.295678 107.933009 
L 192.927108 107.047301 
L 194.558538 108.844515 
L 196.189968 111.492754 
L 197.821398 112.8263 
L 199.452828 109.190253 
L 201.084258 113.160284 
L 202.715688 110.3501 
L 204.347117 111.147997 
L 205.978547 110.529211 
L 207.609977 105.84367 
L 209.241407 110.239408 
L 210.872837 111.926647 
L 212.504267 113.008851 
L 214.135697 111.536561 
L 215.767127 112.249429 
L 217.398556 111.687722 
L 219.029986 113.41434 
L 220.661416 111.138044 
L 222.292846 110.079593 
L 223.924276 113.502689 
L 225.555706 112.853328 
L 227.187136 115.862941 
L 228.818566 111.687619 
L 230.449995 113.846496 
L 232.081425 110.302502 
L 233.712855 118.033437 
L 235.344285 115.949933 
L 236.975715 181.055339 
L 238.607145 197.274992 
L 240.238575 204.996046 
L 241.870005 208.122349 
L 245.132864 218.18597 
L 246.764294 221.907894 
L 248.395724 222.199787 
L 250.027154 225.52999 
L 251.658584 230.739288 
L 253.290014 232.178532 
L 254.921444 234.398205 
L 256.552873 234.745222 
L 258.184303 238.331913 
L 259.815733 240.678194 
L 261.447163 240.912457 
L 263.078593 243.555772 
L 264.710023 243.555645 
L 266.341453 248.414489 
L 267.972883 247.58697 
L 269.604312 250.227957 
L 271.235742 250.68069 
L 272.867172 253.311212 
L 274.498602 253.831626 
L 276.130032 255.749789 
L 277.761462 254.539619 
L 279.392892 259.271066 
L 281.024322 259.804239 
L 282.655751 259.564259 
L 284.287181 258.949313 
L 285.918611 261.7198 
L 287.550041 262.505081 
L 289.181471 264.689999 
L 290.812901 266.579301 
L 292.444331 262.963892 
L 294.075761 268.249517 
L 295.70719 266.249481 
L 297.33862 268.832442 
L 298.97005 269.741379 
L 300.60148 269.42641 
L 302.23291 271.935984 
L 303.86434 272.507143 
L 305.49577 272.388166 
L 307.1272 276.964516 
L 308.75863 274.917145 
L 310.390059 281.732024 
L 312.021489 284.122198 
L 313.652919 284.713951 
L 315.284349 281.319452 
L 316.915779 283.712497 
L 318.547209 283.593746 
L 320.178639 284.616765 
L 321.810069 286.167399 
L 323.441498 285.449314 
L 325.072928 283.728158 
L 326.704358 286.563762 
L 328.335788 284.315565 
L 329.967218 284.167178 
L 331.598648 285.184111 
L 333.230078 286.695738 
L 334.861508 285.073489 
L 336.492937 285.639882 
L 338.124367 286.362713 
L 339.755797 285.977037 
L 341.387227 286.58422 
L 343.018657 288.962265 
L 344.650087 287.328176 
L 346.281517 286.030119 
L 347.912947 286.787101 
L 349.544376 287.865029 
L 351.175806 286.9229 
L 352.807236 285.462641 
L 354.438666 287.365605 
L 356.070096 288.745449 
L 357.701526 286.187755 
L 359.332956 288.546375 
L 360.964386 289.549987 
L 362.595815 289.826437 
L 364.227245 287.324732 
L 365.858675 289.412471 
L 367.490105 288.804267 
L 369.121535 288.506095 
L 370.752965 287.101525 
L 372.384395 288.257754 
L 374.015825 291.001342 
L 375.647254 290.057758 
L 380.541544 289.48543 
L 382.172974 289.973863 
L 383.804404 287.932373 
L 385.435834 289.650292 
L 387.067264 290.275809 
L 388.698693 288.349538 
L 390.330123 290.299529 
L 391.961553 290.304625 
L 393.592983 289.602903 
L 395.224413 290.996999 
L 396.855843 288.684431 
L 398.487273 290.568041 
L 398.487273 290.568041 
" clip-path="url(#p0d1e76c9d5)" style="fill: none; stroke-dasharray: 5.55,2.4; stroke-dashoffset: 0; stroke: #9467bd; stroke-width: 1.5"/>
   </g>
   <g id="line2d_40">
    <path d="M 86.211316 -1 
L 86.884166 5.816158 
L 88.515596 16.692089 
L 90.147026 26.647016 
L 91.778456 40.888608 
L 93.409886 44.807223 
L 95.041316 55.130163 
L 96.672746 62.938143 
L 98.304175 69.114173 
L 99.935605 76.282559 
L 101.567035 81.833049 
L 103.198465 82.936226 
L 104.829895 90.445591 
L 106.461325 92.365689 
L 108.092755 95.518244 
L 109.724185 102.907196 
L 111.355614 108.001553 
L 112.987044 105.712868 
L 114.618474 109.978488 
L 117.881334 116.551926 
L 119.512764 118.522264 
L 121.144194 119.834352 
L 122.775624 125.728127 
L 124.407053 126.54958 
L 126.038483 128.557408 
L 127.669913 133.010557 
L 129.301343 131.77504 
L 130.932773 133.809838 
L 132.564203 135.425288 
L 134.195633 138.251484 
L 135.827063 139.055667 
L 137.458492 140.160698 
L 139.089922 147.358574 
L 140.721352 140.617501 
L 142.352782 143.51173 
L 143.984212 145.753491 
L 145.615642 147.760767 
L 147.247072 147.85455 
L 148.878502 149.733057 
L 150.509931 147.599491 
L 152.141361 150.682826 
L 153.772791 152.776688 
L 157.035651 152.829539 
L 158.667081 155.834491 
L 160.298511 158.533779 
L 161.929941 157.886072 
L 163.56137 158.053406 
L 165.1928 157.432128 
L 166.82423 159.285522 
L 168.45566 161.433968 
L 170.08709 159.537777 
L 171.71852 158.587482 
L 173.34995 162.333185 
L 174.98138 164.177848 
L 176.61281 166.261411 
L 178.244239 166.436114 
L 179.875669 165.717427 
L 183.138529 169.580351 
L 184.769959 169.439102 
L 186.401389 170.882249 
L 188.032819 168.142229 
L 189.664249 168.694936 
L 191.295678 172.49238 
L 192.927108 170.877122 
L 194.558538 172.695434 
L 196.189968 171.431902 
L 197.821398 175.629819 
L 199.452828 172.488132 
L 201.084258 174.544697 
L 202.715688 174.520072 
L 205.978547 176.053851 
L 207.609977 175.917698 
L 209.241407 178.027792 
L 210.872837 178.337284 
L 212.504267 178.17039 
L 214.135697 177.161615 
L 215.767127 182.571025 
L 217.398556 178.368389 
L 219.029986 180.965158 
L 220.661416 179.394837 
L 222.292846 181.609592 
L 223.924276 183.018616 
L 225.555706 180.040458 
L 227.187136 181.267616 
L 228.818566 180.168291 
L 230.449995 180.205629 
L 232.081425 180.01748 
L 233.712855 182.642578 
L 235.344285 184.095864 
L 236.975715 232.701754 
L 238.607145 240.827668 
L 240.238575 247.432125 
L 241.870005 248.4586 
L 243.501434 252.042416 
L 245.132864 253.325681 
L 246.764294 256.848018 
L 248.395724 256.851274 
L 250.027154 258.923422 
L 251.658584 261.98273 
L 253.290014 262.354005 
L 254.921444 263.0257 
L 256.552873 266.102423 
L 258.184303 266.238325 
L 259.815733 269.699418 
L 261.447163 269.472807 
L 263.078593 270.382897 
L 264.710023 271.029938 
L 266.341453 269.60717 
L 267.972883 272.333633 
L 269.604312 273.396269 
L 271.235742 272.914276 
L 272.867172 274.728187 
L 274.498602 273.081145 
L 276.130032 276.487158 
L 277.761462 276.646529 
L 279.392892 278.374657 
L 281.024322 278.971646 
L 282.655751 277.879578 
L 284.287181 277.495128 
L 285.918611 280.899598 
L 287.550041 280.579192 
L 289.181471 280.918893 
L 290.812901 279.899681 
L 292.444331 279.853654 
L 294.075761 282.188539 
L 295.70719 280.99569 
L 297.33862 285.166615 
L 298.97005 281.648433 
L 300.60148 286.115166 
L 302.23291 286.387814 
L 303.86434 283.816177 
L 305.49577 284.423392 
L 307.1272 286.951768 
L 308.75863 285.438762 
L 310.390059 291.432693 
L 312.021489 294.423942 
L 313.652919 292.15048 
L 315.284349 290.759015 
L 316.915779 293.669811 
L 318.547209 292.811068 
L 320.178639 292.388814 
L 321.810069 292.993444 
L 323.441498 294.546122 
L 325.072928 294.428 
L 326.704358 291.44257 
L 328.335788 295.60303 
L 329.967218 292.743618 
L 331.598648 292.595203 
L 333.230078 294.132186 
L 336.492937 293.880233 
L 338.124367 295.65145 
L 339.755797 294.008295 
L 341.387227 294.381013 
L 344.650087 293.117319 
L 346.281517 294.785574 
L 347.912947 294.888003 
L 351.175806 294.585905 
L 352.807236 293.698353 
L 354.438666 293.924449 
L 356.070096 294.905139 
L 357.701526 296.72916 
L 359.332956 296.466491 
L 360.964386 293.61055 
L 362.595815 297.068708 
L 364.227245 295.959715 
L 365.858675 295.373183 
L 367.490105 295.438848 
L 369.121535 295.106683 
L 370.752965 296.91801 
L 372.384395 296.850197 
L 374.015825 296.994716 
L 375.647254 295.184006 
L 377.278684 296.168441 
L 378.910114 296.247502 
L 380.541544 294.875007 
L 382.172974 297.608998 
L 383.804404 296.674723 
L 385.435834 296.115554 
L 387.067264 297.532926 
L 388.698693 296.738003 
L 390.330123 296.134161 
L 391.961553 296.798248 
L 393.592983 298.149302 
L 395.224413 296.728172 
L 396.855843 296.036992 
L 398.487273 296.209086 
L 398.487273 296.209086 
" clip-path="url(#p0d1e76c9d5)" style="fill: none; stroke-dasharray: 5.55,2.4; stroke-dashoffset: 0; stroke: #8c564b; stroke-width: 1.5"/>
   </g>
   <g id="line2d_41">
    <path d="M 87.124816 -1 
L 88.515596 7.035923 
L 90.147026 15.665178 
L 91.778456 26.915051 
L 93.409886 32.908105 
L 95.041316 43.516137 
L 96.672746 48.99511 
L 98.304175 55.163494 
L 99.935605 59.199037 
L 101.567035 65.02633 
L 103.198465 65.600883 
L 104.829895 73.171619 
L 106.461325 74.363543 
L 108.092755 77.769601 
L 109.724185 83.494873 
L 111.355614 85.91874 
L 112.987044 85.713974 
L 114.618474 86.601725 
L 116.249904 94.394594 
L 117.881334 95.561403 
L 119.512764 98.177649 
L 121.144194 97.197135 
L 122.775624 102.750953 
L 124.407053 105.193492 
L 126.038483 104.664881 
L 127.669913 113.204701 
L 129.301343 111.402013 
L 130.932773 112.250256 
L 132.564203 113.655238 
L 134.195633 116.980574 
L 135.827063 116.564475 
L 137.458492 117.952675 
L 139.089922 126.716312 
L 140.721352 118.921643 
L 142.352782 122.810143 
L 143.984212 125.037072 
L 145.615642 126.046589 
L 147.247072 128.598915 
L 148.878502 130.512039 
L 150.509931 127.984325 
L 152.141361 131.636338 
L 153.772791 134.766322 
L 155.404221 134.076108 
L 157.035651 132.260118 
L 158.667081 135.993236 
L 160.298511 137.386778 
L 161.929941 137.370131 
L 163.56137 138.398278 
L 165.1928 137.219408 
L 166.82423 141.037987 
L 168.45566 139.587157 
L 170.08709 141.295259 
L 171.71852 138.615624 
L 173.34995 143.9947 
L 174.98138 145.144186 
L 176.61281 146.480509 
L 178.244239 145.922822 
L 179.875669 145.910165 
L 181.507099 148.895409 
L 183.138529 150.811329 
L 184.769959 150.683192 
L 186.401389 153.067749 
L 188.032819 149.223585 
L 189.664249 152.75822 
L 191.295678 154.70179 
L 192.927108 154.47954 
L 194.558538 155.553976 
L 196.189968 156.044658 
L 197.821398 158.234129 
L 199.452828 156.460859 
L 201.084258 159.344247 
L 202.715688 159.569072 
L 204.347117 158.680056 
L 205.978547 159.151122 
L 207.609977 161.545507 
L 209.241407 162.771371 
L 212.504267 163.042571 
L 214.135697 161.354989 
L 215.767127 167.232032 
L 217.398556 161.96514 
L 219.029986 164.004034 
L 220.661416 165.329562 
L 222.292846 168.884582 
L 223.924276 169.27965 
L 225.555706 168.57366 
L 227.187136 167.685422 
L 228.818566 165.310738 
L 230.449995 166.678107 
L 232.081425 166.531149 
L 233.712855 168.995918 
L 235.344285 171.880963 
L 236.975715 187.770773 
L 238.607145 191.193925 
L 240.238575 195.362956 
L 241.870005 193.797096 
L 243.501434 196.390481 
L 245.132864 196.703269 
L 246.764294 197.990868 
L 248.395724 197.685305 
L 251.658584 202.826762 
L 253.290014 201.017058 
L 254.921444 202.591986 
L 256.552873 205.934904 
L 258.184303 205.038888 
L 259.815733 207.988 
L 261.447163 208.2156 
L 263.078593 208.605698 
L 264.710023 208.645546 
L 266.341453 205.404579 
L 267.972883 209.818362 
L 269.604312 209.790332 
L 271.235742 209.472949 
L 272.867172 210.753317 
L 274.498602 209.933463 
L 276.130032 211.543504 
L 277.761462 210.949112 
L 279.392892 214.491858 
L 281.024322 213.500986 
L 282.655751 212.140138 
L 284.287181 211.730992 
L 285.918611 216.222871 
L 287.550041 215.682955 
L 289.181471 214.718192 
L 290.812901 215.323231 
L 292.444331 213.890398 
L 294.075761 215.853574 
L 295.70719 214.318446 
L 297.33862 219.157144 
L 298.97005 215.098268 
L 300.60148 219.648796 
L 302.23291 220.149826 
L 303.86434 217.199387 
L 305.49577 217.770113 
L 307.1272 220.819454 
L 308.75863 219.37661 
L 310.390059 220.686092 
L 312.021489 226.398937 
L 313.652919 222.739503 
L 315.284349 219.690637 
L 316.915779 223.860361 
L 318.547209 223.313505 
L 320.178639 222.442165 
L 321.810069 222.309743 
L 323.441498 224.795503 
L 325.072928 224.080701 
L 326.704358 220.274633 
L 328.335788 225.27884 
L 329.967218 221.925572 
L 331.598648 220.698806 
L 333.230078 223.46228 
L 334.861508 222.909455 
L 336.492937 223.565663 
L 338.124367 223.698744 
L 339.755797 223.091307 
L 341.387227 223.069201 
L 343.018657 222.125103 
L 344.650087 221.683765 
L 346.281517 223.493577 
L 347.912947 223.953246 
L 349.544376 224.052253 
L 352.807236 221.873373 
L 354.438666 222.080212 
L 356.070096 224.777219 
L 357.701526 225.85641 
L 359.332956 224.615357 
L 360.964386 221.988866 
L 362.595815 227.756211 
L 364.227245 223.147885 
L 365.858675 223.422787 
L 367.490105 223.932539 
L 369.121535 222.174174 
L 370.752965 224.110184 
L 372.384395 225.765404 
L 374.015825 225.826743 
L 375.647254 222.855185 
L 377.278684 223.276556 
L 378.910114 224.143191 
L 380.541544 222.173895 
L 382.172974 226.596691 
L 383.804404 224.102571 
L 385.435834 223.582866 
L 387.067264 224.058068 
L 388.698693 224.218392 
L 390.330123 223.889595 
L 391.961553 223.862093 
L 393.592983 226.159248 
L 395.224413 224.538009 
L 396.855843 224.745615 
L 398.487273 224.470515 
L 398.487273 224.470515 
" clip-path="url(#p0d1e76c9d5)" style="fill: none; stroke-dasharray: 5.55,2.4; stroke-dashoffset: 0; stroke: #e377c2; stroke-width: 1.5"/>
   </g>
   <g id="patch_3">
    <path d="M 57.6 307.584 
L 57.6 41.472 
" style="fill: none; stroke: #000000; stroke-width: 0.8; stroke-linejoin: miter; stroke-linecap: square"/>
   </g>
   <g id="patch_4">
    <path d="M 414.72 307.584 
L 414.72 41.472 
" style="fill: none; stroke: #000000; stroke-width: 0.8; stroke-linejoin: miter; stroke-linecap: square"/>
   </g>
   <g id="patch_5">
    <path d="M 57.6 307.584 
L 414.72 307.584 
" style="fill: none; stroke: #000000; stroke-width: 0.8; stroke-linejoin: miter; stroke-linecap: square"/>
   </g>
   <g id="patch_6">
    <path d="M 57.6 41.472 
L 414.72 41.472 
" style="fill: none; stroke: #000000; stroke-width: 0.8; stroke-linejoin: miter; stroke-linecap: square"/>
   </g>
   <g id="text_20">
    <!-- Train set perplexity ~ training epoch -->
    <g transform="translate(126.366563 35.472)scale(0.12 -0.12)">
     <defs>
      <path id="DejaVuSans-73" d="M 2834 3397 
L 2834 2853 
Q 2591 2978 2328 3040 
Q 2066 3103 1784 3103 
Q 1356 3103 1142 2972 
Q 928 2841 928 2578 
Q 928 2378 1081 2264 
Q 1234 2150 1697 2047 
L 1894 2003 
Q 2506 1872 2764 1633 
Q 3022 1394 3022 966 
Q 3022 478 2636 193 
Q 2250 -91 1575 -91 
Q 1294 -91 989 -36 
Q 684 19 347 128 
L 347 722 
Q 666 556 975 473 
Q 1284 391 1588 391 
Q 1994 391 2212 530 
Q 2431 669 2431 922 
Q 2431 1156 2273 1281 
Q 2116 1406 1581 1522 
L 1381 1569 
Q 847 1681 609 1914 
Q 372 2147 372 2553 
Q 372 3047 722 3315 
Q 1072 3584 1716 3584 
Q 2034 3584 2315 3537 
Q 2597 3491 2834 3397 
z
" transform="scale(0.015625)"/>
      <path id="DejaVuSans-7e" d="M 4684 2553 
L 4684 1997 
Q 4356 1750 4076 1644 
Q 3797 1538 3494 1538 
Q 3150 1538 2694 1722 
Q 2659 1734 2644 1741 
Q 2622 1750 2575 1766 
Q 2091 1959 1797 1959 
Q 1522 1959 1253 1839 
Q 984 1719 678 1459 
L 678 2016 
Q 1006 2263 1286 2370 
Q 1566 2478 1869 2478 
Q 2213 2478 2672 2291 
Q 2703 2278 2719 2272 
Q 2744 2263 2788 2247 
Q 3272 2053 3566 2053 
Q 3834 2053 4098 2172 
Q 4363 2291 4684 2553 
z
" transform="scale(0.015625)"/>
     </defs>
     <use xlink:href="#DejaVuSans-54"/>
     <use xlink:href="#DejaVuSans-72" x="46.333984"/>
     <use xlink:href="#DejaVuSans-61" x="87.447266"/>
     <use xlink:href="#DejaVuSans-69" x="148.726562"/>
     <use xlink:href="#DejaVuSans-6e" x="176.509766"/>
     <use xlink:href="#DejaVuSans-20" x="239.888672"/>
     <use xlink:href="#DejaVuSans-73" x="271.675781"/>
     <use xlink:href="#DejaVuSans-65" x="323.775391"/>
     <use xlink:href="#DejaVuSans-74" x="385.298828"/>
     <use xlink:href="#DejaVuSans-20" x="424.507812"/>
     <use xlink:href="#DejaVuSans-70" x="456.294922"/>
     <use xlink:href="#DejaVuSans-65" x="519.771484"/>
     <use xlink:href="#DejaVuSans-72" x="581.294922"/>
     <use xlink:href="#DejaVuSans-70" x="622.408203"/>
     <use xlink:href="#DejaVuSans-6c" x="685.884766"/>
     <use xlink:href="#DejaVuSans-65" x="713.667969"/>
     <use xlink:href="#DejaVuSans-78" x="773.441406"/>
     <use xlink:href="#DejaVuSans-69" x="832.621094"/>
     <use xlink:href="#DejaVuSans-74" x="860.404297"/>
     <use xlink:href="#DejaVuSans-79" x="899.613281"/>
     <use xlink:href="#DejaVuSans-20" x="958.792969"/>
     <use xlink:href="#DejaVuSans-7e" x="990.580078"/>
     <use xlink:href="#DejaVuSans-20" x="1074.369141"/>
     <use xlink:href="#DejaVuSans-74" x="1106.15625"/>
     <use xlink:href="#DejaVuSans-72" x="1145.365234"/>
     <use xlink:href="#DejaVuSans-61" x="1186.478516"/>
     <use xlink:href="#DejaVuSans-69" x="1247.757812"/>
     <use xlink:href="#DejaVuSans-6e" x="1275.541016"/>
     <use xlink:href="#DejaVuSans-69" x="1338.919922"/>
     <use xlink:href="#DejaVuSans-6e" x="1366.703125"/>
     <use xlink:href="#DejaVuSans-67" x="1430.082031"/>
     <use xlink:href="#DejaVuSans-20" x="1493.558594"/>
     <use xlink:href="#DejaVuSans-65" x="1525.345703"/>
     <use xlink:href="#DejaVuSans-70" x="1586.869141"/>
     <use xlink:href="#DejaVuSans-6f" x="1650.345703"/>
     <use xlink:href="#DejaVuSans-63" x="1711.527344"/>
     <use xlink:href="#DejaVuSans-68" x="1766.507812"/>
    </g>
   </g>
   <g id="legend_1">
    <g id="patch_7">
     <path d="M 298.648125 174.36825 
L 406.32 174.36825 
Q 408.72 174.36825 408.72 171.96825 
L 408.72 49.872 
Q 408.72 47.472 406.32 47.472 
L 298.648125 47.472 
Q 296.248125 47.472 296.248125 49.872 
L 296.248125 171.96825 
Q 296.248125 174.36825 298.648125 174.36825 
z
" style="fill: #ffffff; opacity: 0.8; stroke: #cccccc; stroke-linejoin: miter"/>
    </g>
    <g id="line2d_42">
     <path d="M 301.048125 57.190125 
L 313.048125 57.190125 
L 325.048125 57.190125 
" style="fill: none; stroke: #1f77b4; stroke-width: 1.5; stroke-linecap: square"/>
    </g>
    <g id="text_21">
     <!-- AdaSmooth -->
     <g transform="translate(334.648125 61.390125)scale(0.12 -0.12)">
      <defs>
       <path id="DejaVuSans-41" d="M 2188 4044 
L 1331 1722 
L 3047 1722 
L 2188 4044 
z
M 1831 4666 
L 2547 4666 
L 4325 0 
L 3669 0 
L 3244 1197 
L 1141 1197 
L 716 0 
L 50 0 
L 1831 4666 
z
" transform="scale(0.015625)"/>
       <path id="DejaVuSans-64" d="M 2906 2969 
L 2906 4863 
L 3481 4863 
L 3481 0 
L 2906 0 
L 2906 525 
Q 2725 213 2448 61 
Q 2172 -91 1784 -91 
Q 1150 -91 751 415 
Q 353 922 353 1747 
Q 353 2572 751 3078 
Q 1150 3584 1784 3584 
Q 2172 3584 2448 3432 
Q 2725 3281 2906 2969 
z
M 947 1747 
Q 947 1113 1208 752 
Q 1469 391 1925 391 
Q 2381 391 2643 752 
Q 2906 1113 2906 1747 
Q 2906 2381 2643 2742 
Q 2381 3103 1925 3103 
Q 1469 3103 1208 2742 
Q 947 2381 947 1747 
z
" transform="scale(0.015625)"/>
       <path id="DejaVuSans-53" d="M 3425 4513 
L 3425 3897 
Q 3066 4069 2747 4153 
Q 2428 4238 2131 4238 
Q 1616 4238 1336 4038 
Q 1056 3838 1056 3469 
Q 1056 3159 1242 3001 
Q 1428 2844 1947 2747 
L 2328 2669 
Q 3034 2534 3370 2195 
Q 3706 1856 3706 1288 
Q 3706 609 3251 259 
Q 2797 -91 1919 -91 
Q 1588 -91 1214 -16 
Q 841 59 441 206 
L 441 856 
Q 825 641 1194 531 
Q 1563 422 1919 422 
Q 2459 422 2753 634 
Q 3047 847 3047 1241 
Q 3047 1584 2836 1778 
Q 2625 1972 2144 2069 
L 1759 2144 
Q 1053 2284 737 2584 
Q 422 2884 422 3419 
Q 422 4038 858 4394 
Q 1294 4750 2059 4750 
Q 2388 4750 2728 4690 
Q 3069 4631 3425 4513 
z
" transform="scale(0.015625)"/>
       <path id="DejaVuSans-6d" d="M 3328 2828 
Q 3544 3216 3844 3400 
Q 4144 3584 4550 3584 
Q 5097 3584 5394 3201 
Q 5691 2819 5691 2113 
L 5691 0 
L 5113 0 
L 5113 2094 
Q 5113 2597 4934 2840 
Q 4756 3084 4391 3084 
Q 3944 3084 3684 2787 
Q 3425 2491 3425 1978 
L 3425 0 
L 2847 0 
L 2847 2094 
Q 2847 2600 2669 2842 
Q 2491 3084 2119 3084 
Q 1678 3084 1418 2786 
Q 1159 2488 1159 1978 
L 1159 0 
L 581 0 
L 581 3500 
L 1159 3500 
L 1159 2956 
Q 1356 3278 1631 3431 
Q 1906 3584 2284 3584 
Q 2666 3584 2933 3390 
Q 3200 3197 3328 2828 
z
" transform="scale(0.015625)"/>
      </defs>
      <use xlink:href="#DejaVuSans-41"/>
      <use xlink:href="#DejaVuSans-64" x="66.658203"/>
      <use xlink:href="#DejaVuSans-61" x="130.134766"/>
      <use xlink:href="#DejaVuSans-53" x="191.414062"/>
      <use xlink:href="#DejaVuSans-6d" x="254.890625"/>
      <use xlink:href="#DejaVuSans-6f" x="352.302734"/>
      <use xlink:href="#DejaVuSans-6f" x="413.484375"/>
      <use xlink:href="#DejaVuSans-74" x="474.666016"/>
      <use xlink:href="#DejaVuSans-68" x="513.875"/>
     </g>
    </g>
    <g id="line2d_43">
     <path d="M 301.048125 74.803875 
L 313.048125 74.803875 
L 325.048125 74.803875 
" style="fill: none; stroke-dasharray: 5.55,2.4; stroke-dashoffset: 0; stroke: #ff7f0e; stroke-width: 1.5"/>
    </g>
    <g id="text_22">
     <!-- SGD -->
     <g transform="translate(334.648125 79.003875)scale(0.12 -0.12)">
      <defs>
       <path id="DejaVuSans-47" d="M 3809 666 
L 3809 1919 
L 2778 1919 
L 2778 2438 
L 4434 2438 
L 4434 434 
Q 4069 175 3628 42 
Q 3188 -91 2688 -91 
Q 1594 -91 976 548 
Q 359 1188 359 2328 
Q 359 3472 976 4111 
Q 1594 4750 2688 4750 
Q 3144 4750 3555 4637 
Q 3966 4525 4313 4306 
L 4313 3634 
Q 3963 3931 3569 4081 
Q 3175 4231 2741 4231 
Q 1884 4231 1454 3753 
Q 1025 3275 1025 2328 
Q 1025 1384 1454 906 
Q 1884 428 2741 428 
Q 3075 428 3337 486 
Q 3600 544 3809 666 
z
" transform="scale(0.015625)"/>
       <path id="DejaVuSans-44" d="M 1259 4147 
L 1259 519 
L 2022 519 
Q 2988 519 3436 956 
Q 3884 1394 3884 2338 
Q 3884 3275 3436 3711 
Q 2988 4147 2022 4147 
L 1259 4147 
z
M 628 4666 
L 1925 4666 
Q 3281 4666 3915 4102 
Q 4550 3538 4550 2338 
Q 4550 1131 3912 565 
Q 3275 0 1925 0 
L 628 0 
L 628 4666 
z
" transform="scale(0.015625)"/>
      </defs>
      <use xlink:href="#DejaVuSans-53"/>
      <use xlink:href="#DejaVuSans-47" x="63.476562"/>
      <use xlink:href="#DejaVuSans-44" x="140.966797"/>
     </g>
    </g>
    <g id="line2d_44">
     <path d="M 301.048125 92.417625 
L 313.048125 92.417625 
L 325.048125 92.417625 
" style="fill: none; stroke-dasharray: 5.55,2.4; stroke-dashoffset: 0; stroke: #2ca02c; stroke-width: 1.5"/>
    </g>
    <g id="text_23">
     <!-- RMSProp -->
     <g transform="translate(334.648125 96.617625)scale(0.12 -0.12)">
      <defs>
       <path id="DejaVuSans-52" d="M 2841 2188 
Q 3044 2119 3236 1894 
Q 3428 1669 3622 1275 
L 4263 0 
L 3584 0 
L 2988 1197 
Q 2756 1666 2539 1819 
Q 2322 1972 1947 1972 
L 1259 1972 
L 1259 0 
L 628 0 
L 628 4666 
L 2053 4666 
Q 2853 4666 3247 4331 
Q 3641 3997 3641 3322 
Q 3641 2881 3436 2590 
Q 3231 2300 2841 2188 
z
M 1259 4147 
L 1259 2491 
L 2053 2491 
Q 2509 2491 2742 2702 
Q 2975 2913 2975 3322 
Q 2975 3731 2742 3939 
Q 2509 4147 2053 4147 
L 1259 4147 
z
" transform="scale(0.015625)"/>
       <path id="DejaVuSans-4d" d="M 628 4666 
L 1569 4666 
L 2759 1491 
L 3956 4666 
L 4897 4666 
L 4897 0 
L 4281 0 
L 4281 4097 
L 3078 897 
L 2444 897 
L 1241 4097 
L 1241 0 
L 628 0 
L 628 4666 
z
" transform="scale(0.015625)"/>
      </defs>
      <use xlink:href="#DejaVuSans-52"/>
      <use xlink:href="#DejaVuSans-4d" x="69.482422"/>
      <use xlink:href="#DejaVuSans-53" x="155.761719"/>
      <use xlink:href="#DejaVuSans-50" x="219.238281"/>
      <use xlink:href="#DejaVuSans-72" x="277.791016"/>
      <use xlink:href="#DejaVuSans-6f" x="316.654297"/>
      <use xlink:href="#DejaVuSans-70" x="377.835938"/>
     </g>
    </g>
    <g id="line2d_45">
     <path d="M 301.048125 110.031375 
L 313.048125 110.031375 
L 325.048125 110.031375 
" style="fill: none; stroke-dasharray: 5.55,2.4; stroke-dashoffset: 0; stroke: #d62728; stroke-width: 1.5"/>
    </g>
    <g id="text_24">
     <!-- AdaBound -->
     <g transform="translate(334.648125 114.231375)scale(0.12 -0.12)">
      <defs>
       <path id="DejaVuSans-42" d="M 1259 2228 
L 1259 519 
L 2272 519 
Q 2781 519 3026 730 
Q 3272 941 3272 1375 
Q 3272 1813 3026 2020 
Q 2781 2228 2272 2228 
L 1259 2228 
z
M 1259 4147 
L 1259 2741 
L 2194 2741 
Q 2656 2741 2882 2914 
Q 3109 3088 3109 3444 
Q 3109 3797 2882 3972 
Q 2656 4147 2194 4147 
L 1259 4147 
z
M 628 4666 
L 2241 4666 
Q 2963 4666 3353 4366 
Q 3744 4066 3744 3513 
Q 3744 3084 3544 2831 
Q 3344 2578 2956 2516 
Q 3422 2416 3680 2098 
Q 3938 1781 3938 1306 
Q 3938 681 3513 340 
Q 3088 0 2303 0 
L 628 0 
L 628 4666 
z
" transform="scale(0.015625)"/>
       <path id="DejaVuSans-75" d="M 544 1381 
L 544 3500 
L 1119 3500 
L 1119 1403 
Q 1119 906 1312 657 
Q 1506 409 1894 409 
Q 2359 409 2629 706 
Q 2900 1003 2900 1516 
L 2900 3500 
L 3475 3500 
L 3475 0 
L 2900 0 
L 2900 538 
Q 2691 219 2414 64 
Q 2138 -91 1772 -91 
Q 1169 -91 856 284 
Q 544 659 544 1381 
z
M 1991 3584 
L 1991 3584 
z
" transform="scale(0.015625)"/>
      </defs>
      <use xlink:href="#DejaVuSans-41"/>
      <use xlink:href="#DejaVuSans-64" x="66.658203"/>
      <use xlink:href="#DejaVuSans-61" x="130.134766"/>
      <use xlink:href="#DejaVuSans-42" x="191.414062"/>
      <use xlink:href="#DejaVuSans-6f" x="260.017578"/>
      <use xlink:href="#DejaVuSans-75" x="321.199219"/>
      <use xlink:href="#DejaVuSans-6e" x="384.578125"/>
      <use xlink:href="#DejaVuSans-64" x="447.957031"/>
     </g>
    </g>
    <g id="line2d_46">
     <path d="M 301.048125 127.645125 
L 313.048125 127.645125 
L 325.048125 127.645125 
" style="fill: none; stroke-dasharray: 5.55,2.4; stroke-dashoffset: 0; stroke: #9467bd; stroke-width: 1.5"/>
    </g>
    <g id="text_25">
     <!-- Adam -->
     <g transform="translate(334.648125 131.845125)scale(0.12 -0.12)">
      <use xlink:href="#DejaVuSans-41"/>
      <use xlink:href="#DejaVuSans-64" x="66.658203"/>
      <use xlink:href="#DejaVuSans-61" x="130.134766"/>
      <use xlink:href="#DejaVuSans-6d" x="191.414062"/>
     </g>
    </g>
    <g id="line2d_47">
     <path d="M 301.048125 145.258875 
L 313.048125 145.258875 
L 325.048125 145.258875 
" style="fill: none; stroke-dasharray: 5.55,2.4; stroke-dashoffset: 0; stroke: #8c564b; stroke-width: 1.5"/>
    </g>
    <g id="text_26">
     <!-- AMSGrad -->
     <g transform="translate(334.648125 149.458875)scale(0.12 -0.12)">
      <use xlink:href="#DejaVuSans-41"/>
      <use xlink:href="#DejaVuSans-4d" x="68.408203"/>
      <use xlink:href="#DejaVuSans-53" x="154.6875"/>
      <use xlink:href="#DejaVuSans-47" x="218.164062"/>
      <use xlink:href="#DejaVuSans-72" x="295.654297"/>
      <use xlink:href="#DejaVuSans-61" x="336.767578"/>
      <use xlink:href="#DejaVuSans-64" x="398.046875"/>
     </g>
    </g>
    <g id="line2d_48">
     <path d="M 301.048125 162.872625 
L 313.048125 162.872625 
L 325.048125 162.872625 
" style="fill: none; stroke-dasharray: 5.55,2.4; stroke-dashoffset: 0; stroke: #e377c2; stroke-width: 1.5"/>
    </g>
    <g id="text_27">
     <!-- AdaMod -->
     <g transform="translate(334.648125 167.072625)scale(0.12 -0.12)">
      <use xlink:href="#DejaVuSans-41"/>
      <use xlink:href="#DejaVuSans-64" x="66.658203"/>
      <use xlink:href="#DejaVuSans-61" x="130.134766"/>
      <use xlink:href="#DejaVuSans-4d" x="191.414062"/>
      <use xlink:href="#DejaVuSans-6f" x="277.693359"/>
      <use xlink:href="#DejaVuSans-64" x="338.875"/>
     </g>
    </g>
   </g>
  </g>
 </g>
 <defs>
  <clipPath id="p0d1e76c9d5">
   <rect x="57.6" y="41.472" width="357.12" height="266.112"/>
  </clipPath>
 </defs>
</svg>
