<?xml version="1.0" encoding="utf-8" standalone="no"?>
<!DOCTYPE svg PUBLIC "-//W3C//DTD SVG 1.1//EN"
  "http://www.w3.org/Graphics/SVG/1.1/DTD/svg11.dtd">
<svg xmlns:xlink="http://www.w3.org/1999/xlink" width="460.8pt" height="345.6pt" viewBox="0 0 460.8 345.6" xmlns="http://www.w3.org/2000/svg" version="1.1">
 <metadata>
  <rdf:RDF xmlns:dc="http://purl.org/dc/elements/1.1/" xmlns:cc="http://creativecommons.org/ns#" xmlns:rdf="http://www.w3.org/1999/02/22-rdf-syntax-ns#">
   <cc:Work>
    <dc:type rdf:resource="http://purl.org/dc/dcmitype/StillImage"/>
    <dc:date>2023-03-06T15:17:36.307621</dc:date>
    <dc:format>image/svg+xml</dc:format>
    <dc:creator>
     <cc:Agent>
      <dc:title>Matplotlib v3.5.2, https://matplotlib.org/</dc:title>
     </cc:Agent>
    </dc:creator>
   </cc:Work>
  </rdf:RDF>
 </metadata>
 <defs>
  <style type="text/css">*{stroke-linejoin: round; stroke-linecap: butt}</style>
 </defs>
 <g id="figure_1">
  <g id="patch_1">
   <path d="M 0 345.6 
L 460.8 345.6 
L 460.8 0 
L 0 0 
z
" style="fill: #ffffff"/>
  </g>
  <g id="axes_1">
   <g id="patch_2">
    <path d="M 57.6 307.584 
L 414.72 307.584 
L 414.72 41.472 
L 57.6 41.472 
z
" style="fill: #ffffff"/>
   </g>
   <g id="matplotlib.axis_1">
    <g id="xtick_1">
     <g id="line2d_1">
      <path d="M 73.832727 307.584 
L 73.832727 41.472 
" clip-path="url(#pdead5d3c3f)" style="fill: none; stroke: #b0b0b0; stroke-width: 0.8; stroke-linecap: square"/>
     </g>
     <g id="line2d_2">
      <defs>
       <path id="m9015f9609f" d="M 0 0 
L 0 3.5 
" style="stroke: #000000; stroke-width: 0.8"/>
      </defs>
      <g>
       <use xlink:href="#m9015f9609f" x="73.832727" y="307.584" style="stroke: #000000; stroke-width: 0.8"/>
      </g>
     </g>
     <g id="text_1">
      <!-- 0 -->
      <g transform="translate(70.651477 322.182437)scale(0.1 -0.1)">
       <defs>
        <path id="DejaVuSans-30" d="M 2034 4250 
Q 1547 4250 1301 3770 
Q 1056 3291 1056 2328 
Q 1056 1369 1301 889 
Q 1547 409 2034 409 
Q 2525 409 2770 889 
Q 3016 1369 3016 2328 
Q 3016 3291 2770 3770 
Q 2525 4250 2034 4250 
z
M 2034 4750 
Q 2819 4750 3233 4129 
Q 3647 3509 3647 2328 
Q 3647 1150 3233 529 
Q 2819 -91 2034 -91 
Q 1250 -91 836 529 
Q 422 1150 422 2328 
Q 422 3509 836 4129 
Q 1250 4750 2034 4750 
z
" transform="scale(0.015625)"/>
       </defs>
       <use xlink:href="#DejaVuSans-30"/>
      </g>
     </g>
    </g>
    <g id="xtick_2">
     <g id="line2d_3">
      <path d="M 114.618474 307.584 
L 114.618474 41.472 
" clip-path="url(#pdead5d3c3f)" style="fill: none; stroke: #b0b0b0; stroke-width: 0.8; stroke-linecap: square"/>
     </g>
     <g id="line2d_4">
      <g>
       <use xlink:href="#m9015f9609f" x="114.618474" y="307.584" style="stroke: #000000; stroke-width: 0.8"/>
      </g>
     </g>
     <g id="text_2">
      <!-- 25 -->
      <g transform="translate(108.255974 322.182437)scale(0.1 -0.1)">
       <defs>
        <path id="DejaVuSans-32" d="M 1228 531 
L 3431 531 
L 3431 0 
L 469 0 
L 469 531 
Q 828 903 1448 1529 
Q 2069 2156 2228 2338 
Q 2531 2678 2651 2914 
Q 2772 3150 2772 3378 
Q 2772 3750 2511 3984 
Q 2250 4219 1831 4219 
Q 1534 4219 1204 4116 
Q 875 4013 500 3803 
L 500 4441 
Q 881 4594 1212 4672 
Q 1544 4750 1819 4750 
Q 2544 4750 2975 4387 
Q 3406 4025 3406 3419 
Q 3406 3131 3298 2873 
Q 3191 2616 2906 2266 
Q 2828 2175 2409 1742 
Q 1991 1309 1228 531 
z
" transform="scale(0.015625)"/>
        <path id="DejaVuSans-35" d="M 691 4666 
L 3169 4666 
L 3169 4134 
L 1269 4134 
L 1269 2991 
Q 1406 3038 1543 3061 
Q 1681 3084 1819 3084 
Q 2600 3084 3056 2656 
Q 3513 2228 3513 1497 
Q 3513 744 3044 326 
Q 2575 -91 1722 -91 
Q 1428 -91 1123 -41 
Q 819 9 494 109 
L 494 744 
Q 775 591 1075 516 
Q 1375 441 1709 441 
Q 2250 441 2565 725 
Q 2881 1009 2881 1497 
Q 2881 1984 2565 2268 
Q 2250 2553 1709 2553 
Q 1456 2553 1204 2497 
Q 953 2441 691 2322 
L 691 4666 
z
" transform="scale(0.015625)"/>
       </defs>
       <use xlink:href="#DejaVuSans-32"/>
       <use xlink:href="#DejaVuSans-35" x="63.623047"/>
      </g>
     </g>
    </g>
    <g id="xtick_3">
     <g id="line2d_5">
      <path d="M 155.404221 307.584 
L 155.404221 41.472 
" clip-path="url(#pdead5d3c3f)" style="fill: none; stroke: #b0b0b0; stroke-width: 0.8; stroke-linecap: square"/>
     </g>
     <g id="line2d_6">
      <g>
       <use xlink:href="#m9015f9609f" x="155.404221" y="307.584" style="stroke: #000000; stroke-width: 0.8"/>
      </g>
     </g>
     <g id="text_3">
      <!-- 50 -->
      <g transform="translate(149.041721 322.182437)scale(0.1 -0.1)">
       <use xlink:href="#DejaVuSans-35"/>
       <use xlink:href="#DejaVuSans-30" x="63.623047"/>
      </g>
     </g>
    </g>
    <g id="xtick_4">
     <g id="line2d_7">
      <path d="M 196.189968 307.584 
L 196.189968 41.472 
" clip-path="url(#pdead5d3c3f)" style="fill: none; stroke: #b0b0b0; stroke-width: 0.8; stroke-linecap: square"/>
     </g>
     <g id="line2d_8">
      <g>
       <use xlink:href="#m9015f9609f" x="196.189968" y="307.584" style="stroke: #000000; stroke-width: 0.8"/>
      </g>
     </g>
     <g id="text_4">
      <!-- 75 -->
      <g transform="translate(189.827468 322.182437)scale(0.1 -0.1)">
       <defs>
        <path id="DejaVuSans-37" d="M 525 4666 
L 3525 4666 
L 3525 4397 
L 1831 0 
L 1172 0 
L 2766 4134 
L 525 4134 
L 525 4666 
z
" transform="scale(0.015625)"/>
       </defs>
       <use xlink:href="#DejaVuSans-37"/>
       <use xlink:href="#DejaVuSans-35" x="63.623047"/>
      </g>
     </g>
    </g>
    <g id="xtick_5">
     <g id="line2d_9">
      <path d="M 236.975715 307.584 
L 236.975715 41.472 
" clip-path="url(#pdead5d3c3f)" style="fill: none; stroke: #b0b0b0; stroke-width: 0.8; stroke-linecap: square"/>
     </g>
     <g id="line2d_10">
      <g>
       <use xlink:href="#m9015f9609f" x="236.975715" y="307.584" style="stroke: #000000; stroke-width: 0.8"/>
      </g>
     </g>
     <g id="text_5">
      <!-- 100 -->
      <g transform="translate(227.431965 322.182437)scale(0.1 -0.1)">
       <defs>
        <path id="DejaVuSans-31" d="M 794 531 
L 1825 531 
L 1825 4091 
L 703 3866 
L 703 4441 
L 1819 4666 
L 2450 4666 
L 2450 531 
L 3481 531 
L 3481 0 
L 794 0 
L 794 531 
z
" transform="scale(0.015625)"/>
       </defs>
       <use xlink:href="#DejaVuSans-31"/>
       <use xlink:href="#DejaVuSans-30" x="63.623047"/>
       <use xlink:href="#DejaVuSans-30" x="127.246094"/>
      </g>
     </g>
    </g>
    <g id="xtick_6">
     <g id="line2d_11">
      <path d="M 277.761462 307.584 
L 277.761462 41.472 
" clip-path="url(#pdead5d3c3f)" style="fill: none; stroke: #b0b0b0; stroke-width: 0.8; stroke-linecap: square"/>
     </g>
     <g id="line2d_12">
      <g>
       <use xlink:href="#m9015f9609f" x="277.761462" y="307.584" style="stroke: #000000; stroke-width: 0.8"/>
      </g>
     </g>
     <g id="text_6">
      <!-- 125 -->
      <g transform="translate(268.217712 322.182437)scale(0.1 -0.1)">
       <use xlink:href="#DejaVuSans-31"/>
       <use xlink:href="#DejaVuSans-32" x="63.623047"/>
       <use xlink:href="#DejaVuSans-35" x="127.246094"/>
      </g>
     </g>
    </g>
    <g id="xtick_7">
     <g id="line2d_13">
      <path d="M 318.547209 307.584 
L 318.547209 41.472 
" clip-path="url(#pdead5d3c3f)" style="fill: none; stroke: #b0b0b0; stroke-width: 0.8; stroke-linecap: square"/>
     </g>
     <g id="line2d_14">
      <g>
       <use xlink:href="#m9015f9609f" x="318.547209" y="307.584" style="stroke: #000000; stroke-width: 0.8"/>
      </g>
     </g>
     <g id="text_7">
      <!-- 150 -->
      <g transform="translate(309.003459 322.182437)scale(0.1 -0.1)">
       <use xlink:href="#DejaVuSans-31"/>
       <use xlink:href="#DejaVuSans-35" x="63.623047"/>
       <use xlink:href="#DejaVuSans-30" x="127.246094"/>
      </g>
     </g>
    </g>
    <g id="xtick_8">
     <g id="line2d_15">
      <path d="M 359.332956 307.584 
L 359.332956 41.472 
" clip-path="url(#pdead5d3c3f)" style="fill: none; stroke: #b0b0b0; stroke-width: 0.8; stroke-linecap: square"/>
     </g>
     <g id="line2d_16">
      <g>
       <use xlink:href="#m9015f9609f" x="359.332956" y="307.584" style="stroke: #000000; stroke-width: 0.8"/>
      </g>
     </g>
     <g id="text_8">
      <!-- 175 -->
      <g transform="translate(349.789206 322.182437)scale(0.1 -0.1)">
       <use xlink:href="#DejaVuSans-31"/>
       <use xlink:href="#DejaVuSans-37" x="63.623047"/>
       <use xlink:href="#DejaVuSans-35" x="127.246094"/>
      </g>
     </g>
    </g>
    <g id="xtick_9">
     <g id="line2d_17">
      <path d="M 400.118703 307.584 
L 400.118703 41.472 
" clip-path="url(#pdead5d3c3f)" style="fill: none; stroke: #b0b0b0; stroke-width: 0.8; stroke-linecap: square"/>
     </g>
     <g id="line2d_18">
      <g>
       <use xlink:href="#m9015f9609f" x="400.118703" y="307.584" style="stroke: #000000; stroke-width: 0.8"/>
      </g>
     </g>
     <g id="text_9">
      <!-- 200 -->
      <g transform="translate(390.574953 322.182437)scale(0.1 -0.1)">
       <use xlink:href="#DejaVuSans-32"/>
       <use xlink:href="#DejaVuSans-30" x="63.623047"/>
       <use xlink:href="#DejaVuSans-30" x="127.246094"/>
      </g>
     </g>
    </g>
    <g id="text_10">
     <!-- Training Epoch -->
     <g transform="translate(192.209063 337.38025)scale(0.12 -0.12)">
      <defs>
       <path id="DejaVuSans-54" d="M -19 4666 
L 3928 4666 
L 3928 4134 
L 2272 4134 
L 2272 0 
L 1638 0 
L 1638 4134 
L -19 4134 
L -19 4666 
z
" transform="scale(0.015625)"/>
       <path id="DejaVuSans-72" d="M 2631 2963 
Q 2534 3019 2420 3045 
Q 2306 3072 2169 3072 
Q 1681 3072 1420 2755 
Q 1159 2438 1159 1844 
L 1159 0 
L 581 0 
L 581 3500 
L 1159 3500 
L 1159 2956 
Q 1341 3275 1631 3429 
Q 1922 3584 2338 3584 
Q 2397 3584 2469 3576 
Q 2541 3569 2628 3553 
L 2631 2963 
z
" transform="scale(0.015625)"/>
       <path id="DejaVuSans-61" d="M 2194 1759 
Q 1497 1759 1228 1600 
Q 959 1441 959 1056 
Q 959 750 1161 570 
Q 1363 391 1709 391 
Q 2188 391 2477 730 
Q 2766 1069 2766 1631 
L 2766 1759 
L 2194 1759 
z
M 3341 1997 
L 3341 0 
L 2766 0 
L 2766 531 
Q 2569 213 2275 61 
Q 1981 -91 1556 -91 
Q 1019 -91 701 211 
Q 384 513 384 1019 
Q 384 1609 779 1909 
Q 1175 2209 1959 2209 
L 2766 2209 
L 2766 2266 
Q 2766 2663 2505 2880 
Q 2244 3097 1772 3097 
Q 1472 3097 1187 3025 
Q 903 2953 641 2809 
L 641 3341 
Q 956 3463 1253 3523 
Q 1550 3584 1831 3584 
Q 2591 3584 2966 3190 
Q 3341 2797 3341 1997 
z
" transform="scale(0.015625)"/>
       <path id="DejaVuSans-69" d="M 603 3500 
L 1178 3500 
L 1178 0 
L 603 0 
L 603 3500 
z
M 603 4863 
L 1178 4863 
L 1178 4134 
L 603 4134 
L 603 4863 
z
" transform="scale(0.015625)"/>
       <path id="DejaVuSans-6e" d="M 3513 2113 
L 3513 0 
L 2938 0 
L 2938 2094 
Q 2938 2591 2744 2837 
Q 2550 3084 2163 3084 
Q 1697 3084 1428 2787 
Q 1159 2491 1159 1978 
L 1159 0 
L 581 0 
L 581 3500 
L 1159 3500 
L 1159 2956 
Q 1366 3272 1645 3428 
Q 1925 3584 2291 3584 
Q 2894 3584 3203 3211 
Q 3513 2838 3513 2113 
z
" transform="scale(0.015625)"/>
       <path id="DejaVuSans-67" d="M 2906 1791 
Q 2906 2416 2648 2759 
Q 2391 3103 1925 3103 
Q 1463 3103 1205 2759 
Q 947 2416 947 1791 
Q 947 1169 1205 825 
Q 1463 481 1925 481 
Q 2391 481 2648 825 
Q 2906 1169 2906 1791 
z
M 3481 434 
Q 3481 -459 3084 -895 
Q 2688 -1331 1869 -1331 
Q 1566 -1331 1297 -1286 
Q 1028 -1241 775 -1147 
L 775 -588 
Q 1028 -725 1275 -790 
Q 1522 -856 1778 -856 
Q 2344 -856 2625 -561 
Q 2906 -266 2906 331 
L 2906 616 
Q 2728 306 2450 153 
Q 2172 0 1784 0 
Q 1141 0 747 490 
Q 353 981 353 1791 
Q 353 2603 747 3093 
Q 1141 3584 1784 3584 
Q 2172 3584 2450 3431 
Q 2728 3278 2906 2969 
L 2906 3500 
L 3481 3500 
L 3481 434 
z
" transform="scale(0.015625)"/>
       <path id="DejaVuSans-20" transform="scale(0.015625)"/>
       <path id="DejaVuSans-45" d="M 628 4666 
L 3578 4666 
L 3578 4134 
L 1259 4134 
L 1259 2753 
L 3481 2753 
L 3481 2222 
L 1259 2222 
L 1259 531 
L 3634 531 
L 3634 0 
L 628 0 
L 628 4666 
z
" transform="scale(0.015625)"/>
       <path id="DejaVuSans-70" d="M 1159 525 
L 1159 -1331 
L 581 -1331 
L 581 3500 
L 1159 3500 
L 1159 2969 
Q 1341 3281 1617 3432 
Q 1894 3584 2278 3584 
Q 2916 3584 3314 3078 
Q 3713 2572 3713 1747 
Q 3713 922 3314 415 
Q 2916 -91 2278 -91 
Q 1894 -91 1617 61 
Q 1341 213 1159 525 
z
M 3116 1747 
Q 3116 2381 2855 2742 
Q 2594 3103 2138 3103 
Q 1681 3103 1420 2742 
Q 1159 2381 1159 1747 
Q 1159 1113 1420 752 
Q 1681 391 2138 391 
Q 2594 391 2855 752 
Q 3116 1113 3116 1747 
z
" transform="scale(0.015625)"/>
       <path id="DejaVuSans-6f" d="M 1959 3097 
Q 1497 3097 1228 2736 
Q 959 2375 959 1747 
Q 959 1119 1226 758 
Q 1494 397 1959 397 
Q 2419 397 2687 759 
Q 2956 1122 2956 1747 
Q 2956 2369 2687 2733 
Q 2419 3097 1959 3097 
z
M 1959 3584 
Q 2709 3584 3137 3096 
Q 3566 2609 3566 1747 
Q 3566 888 3137 398 
Q 2709 -91 1959 -91 
Q 1206 -91 779 398 
Q 353 888 353 1747 
Q 353 2609 779 3096 
Q 1206 3584 1959 3584 
z
" transform="scale(0.015625)"/>
       <path id="DejaVuSans-63" d="M 3122 3366 
L 3122 2828 
Q 2878 2963 2633 3030 
Q 2388 3097 2138 3097 
Q 1578 3097 1268 2742 
Q 959 2388 959 1747 
Q 959 1106 1268 751 
Q 1578 397 2138 397 
Q 2388 397 2633 464 
Q 2878 531 3122 666 
L 3122 134 
Q 2881 22 2623 -34 
Q 2366 -91 2075 -91 
Q 1284 -91 818 406 
Q 353 903 353 1747 
Q 353 2603 823 3093 
Q 1294 3584 2113 3584 
Q 2378 3584 2631 3529 
Q 2884 3475 3122 3366 
z
" transform="scale(0.015625)"/>
       <path id="DejaVuSans-68" d="M 3513 2113 
L 3513 0 
L 2938 0 
L 2938 2094 
Q 2938 2591 2744 2837 
Q 2550 3084 2163 3084 
Q 1697 3084 1428 2787 
Q 1159 2491 1159 1978 
L 1159 0 
L 581 0 
L 581 4863 
L 1159 4863 
L 1159 2956 
Q 1366 3272 1645 3428 
Q 1925 3584 2291 3584 
Q 2894 3584 3203 3211 
Q 3513 2838 3513 2113 
z
" transform="scale(0.015625)"/>
      </defs>
      <use xlink:href="#DejaVuSans-54"/>
      <use xlink:href="#DejaVuSans-72" x="46.333984"/>
      <use xlink:href="#DejaVuSans-61" x="87.447266"/>
      <use xlink:href="#DejaVuSans-69" x="148.726562"/>
      <use xlink:href="#DejaVuSans-6e" x="176.509766"/>
      <use xlink:href="#DejaVuSans-69" x="239.888672"/>
      <use xlink:href="#DejaVuSans-6e" x="267.671875"/>
      <use xlink:href="#DejaVuSans-67" x="331.050781"/>
      <use xlink:href="#DejaVuSans-20" x="394.527344"/>
      <use xlink:href="#DejaVuSans-45" x="426.314453"/>
      <use xlink:href="#DejaVuSans-70" x="489.498047"/>
      <use xlink:href="#DejaVuSans-6f" x="552.974609"/>
      <use xlink:href="#DejaVuSans-63" x="614.15625"/>
      <use xlink:href="#DejaVuSans-68" x="669.136719"/>
     </g>
    </g>
   </g>
   <g id="matplotlib.axis_2">
    <g id="ytick_1">
     <g id="line2d_19">
      <path d="M 57.6 287.113846 
L 414.72 287.113846 
" clip-path="url(#pdead5d3c3f)" style="fill: none; stroke: #b0b0b0; stroke-width: 0.8; stroke-linecap: square"/>
     </g>
     <g id="line2d_20">
      <defs>
       <path id="m2f7f5167e7" d="M 0 0 
L -3.5 0 
" style="stroke: #000000; stroke-width: 0.8"/>
      </defs>
      <g>
       <use xlink:href="#m2f7f5167e7" x="57.6" y="287.113846" style="stroke: #000000; stroke-width: 0.8"/>
      </g>
     </g>
     <g id="text_11">
      <!-- 60 -->
      <g transform="translate(37.875 290.913065)scale(0.1 -0.1)">
       <defs>
        <path id="DejaVuSans-36" d="M 2113 2584 
Q 1688 2584 1439 2293 
Q 1191 2003 1191 1497 
Q 1191 994 1439 701 
Q 1688 409 2113 409 
Q 2538 409 2786 701 
Q 3034 994 3034 1497 
Q 3034 2003 2786 2293 
Q 2538 2584 2113 2584 
z
M 3366 4563 
L 3366 3988 
Q 3128 4100 2886 4159 
Q 2644 4219 2406 4219 
Q 1781 4219 1451 3797 
Q 1122 3375 1075 2522 
Q 1259 2794 1537 2939 
Q 1816 3084 2150 3084 
Q 2853 3084 3261 2657 
Q 3669 2231 3669 1497 
Q 3669 778 3244 343 
Q 2819 -91 2113 -91 
Q 1303 -91 875 529 
Q 447 1150 447 2328 
Q 447 3434 972 4092 
Q 1497 4750 2381 4750 
Q 2619 4750 2861 4703 
Q 3103 4656 3366 4563 
z
" transform="scale(0.015625)"/>
       </defs>
       <use xlink:href="#DejaVuSans-36"/>
       <use xlink:href="#DejaVuSans-30" x="63.623047"/>
      </g>
     </g>
    </g>
    <g id="ytick_2">
     <g id="line2d_21">
      <path d="M 57.6 246.173538 
L 414.72 246.173538 
" clip-path="url(#pdead5d3c3f)" style="fill: none; stroke: #b0b0b0; stroke-width: 0.8; stroke-linecap: square"/>
     </g>
     <g id="line2d_22">
      <g>
       <use xlink:href="#m2f7f5167e7" x="57.6" y="246.173538" style="stroke: #000000; stroke-width: 0.8"/>
      </g>
     </g>
     <g id="text_12">
      <!-- 70 -->
      <g transform="translate(37.875 249.972757)scale(0.1 -0.1)">
       <use xlink:href="#DejaVuSans-37"/>
       <use xlink:href="#DejaVuSans-30" x="63.623047"/>
      </g>
     </g>
    </g>
    <g id="ytick_3">
     <g id="line2d_23">
      <path d="M 57.6 205.233231 
L 414.72 205.233231 
" clip-path="url(#pdead5d3c3f)" style="fill: none; stroke: #b0b0b0; stroke-width: 0.8; stroke-linecap: square"/>
     </g>
     <g id="line2d_24">
      <g>
       <use xlink:href="#m2f7f5167e7" x="57.6" y="205.233231" style="stroke: #000000; stroke-width: 0.8"/>
      </g>
     </g>
     <g id="text_13">
      <!-- 80 -->
      <g transform="translate(37.875 209.03245)scale(0.1 -0.1)">
       <defs>
        <path id="DejaVuSans-38" d="M 2034 2216 
Q 1584 2216 1326 1975 
Q 1069 1734 1069 1313 
Q 1069 891 1326 650 
Q 1584 409 2034 409 
Q 2484 409 2743 651 
Q 3003 894 3003 1313 
Q 3003 1734 2745 1975 
Q 2488 2216 2034 2216 
z
M 1403 2484 
Q 997 2584 770 2862 
Q 544 3141 544 3541 
Q 544 4100 942 4425 
Q 1341 4750 2034 4750 
Q 2731 4750 3128 4425 
Q 3525 4100 3525 3541 
Q 3525 3141 3298 2862 
Q 3072 2584 2669 2484 
Q 3125 2378 3379 2068 
Q 3634 1759 3634 1313 
Q 3634 634 3220 271 
Q 2806 -91 2034 -91 
Q 1263 -91 848 271 
Q 434 634 434 1313 
Q 434 1759 690 2068 
Q 947 2378 1403 2484 
z
M 1172 3481 
Q 1172 3119 1398 2916 
Q 1625 2713 2034 2713 
Q 2441 2713 2670 2916 
Q 2900 3119 2900 3481 
Q 2900 3844 2670 4047 
Q 2441 4250 2034 4250 
Q 1625 4250 1398 4047 
Q 1172 3844 1172 3481 
z
" transform="scale(0.015625)"/>
       </defs>
       <use xlink:href="#DejaVuSans-38"/>
       <use xlink:href="#DejaVuSans-30" x="63.623047"/>
      </g>
     </g>
    </g>
    <g id="ytick_4">
     <g id="line2d_25">
      <path d="M 57.6 164.292923 
L 414.72 164.292923 
" clip-path="url(#pdead5d3c3f)" style="fill: none; stroke: #b0b0b0; stroke-width: 0.8; stroke-linecap: square"/>
     </g>
     <g id="line2d_26">
      <g>
       <use xlink:href="#m2f7f5167e7" x="57.6" y="164.292923" style="stroke: #000000; stroke-width: 0.8"/>
      </g>
     </g>
     <g id="text_14">
      <!-- 90 -->
      <g transform="translate(37.875 168.092142)scale(0.1 -0.1)">
       <defs>
        <path id="DejaVuSans-39" d="M 703 97 
L 703 672 
Q 941 559 1184 500 
Q 1428 441 1663 441 
Q 2288 441 2617 861 
Q 2947 1281 2994 2138 
Q 2813 1869 2534 1725 
Q 2256 1581 1919 1581 
Q 1219 1581 811 2004 
Q 403 2428 403 3163 
Q 403 3881 828 4315 
Q 1253 4750 1959 4750 
Q 2769 4750 3195 4129 
Q 3622 3509 3622 2328 
Q 3622 1225 3098 567 
Q 2575 -91 1691 -91 
Q 1453 -91 1209 -44 
Q 966 3 703 97 
z
M 1959 2075 
Q 2384 2075 2632 2365 
Q 2881 2656 2881 3163 
Q 2881 3666 2632 3958 
Q 2384 4250 1959 4250 
Q 1534 4250 1286 3958 
Q 1038 3666 1038 3163 
Q 1038 2656 1286 2365 
Q 1534 2075 1959 2075 
z
" transform="scale(0.015625)"/>
       </defs>
       <use xlink:href="#DejaVuSans-39"/>
       <use xlink:href="#DejaVuSans-30" x="63.623047"/>
      </g>
     </g>
    </g>
    <g id="ytick_5">
     <g id="line2d_27">
      <path d="M 57.6 123.352615 
L 414.72 123.352615 
" clip-path="url(#pdead5d3c3f)" style="fill: none; stroke: #b0b0b0; stroke-width: 0.8; stroke-linecap: square"/>
     </g>
     <g id="line2d_28">
      <g>
       <use xlink:href="#m2f7f5167e7" x="57.6" y="123.352615" style="stroke: #000000; stroke-width: 0.8"/>
      </g>
     </g>
     <g id="text_15">
      <!-- 100 -->
      <g transform="translate(31.5125 127.151834)scale(0.1 -0.1)">
       <use xlink:href="#DejaVuSans-31"/>
       <use xlink:href="#DejaVuSans-30" x="63.623047"/>
       <use xlink:href="#DejaVuSans-30" x="127.246094"/>
      </g>
     </g>
    </g>
    <g id="ytick_6">
     <g id="line2d_29">
      <path d="M 57.6 82.412308 
L 414.72 82.412308 
" clip-path="url(#pdead5d3c3f)" style="fill: none; stroke: #b0b0b0; stroke-width: 0.8; stroke-linecap: square"/>
     </g>
     <g id="line2d_30">
      <g>
       <use xlink:href="#m2f7f5167e7" x="57.6" y="82.412308" style="stroke: #000000; stroke-width: 0.8"/>
      </g>
     </g>
     <g id="text_16">
      <!-- 110 -->
      <g transform="translate(31.5125 86.211526)scale(0.1 -0.1)">
       <use xlink:href="#DejaVuSans-31"/>
       <use xlink:href="#DejaVuSans-31" x="63.623047"/>
       <use xlink:href="#DejaVuSans-30" x="127.246094"/>
      </g>
     </g>
    </g>
    <g id="ytick_7">
     <g id="line2d_31">
      <path d="M 57.6 41.472 
L 414.72 41.472 
" clip-path="url(#pdead5d3c3f)" style="fill: none; stroke: #b0b0b0; stroke-width: 0.8; stroke-linecap: square"/>
     </g>
     <g id="line2d_32">
      <g>
       <use xlink:href="#m2f7f5167e7" x="57.6" y="41.472" style="stroke: #000000; stroke-width: 0.8"/>
      </g>
     </g>
     <g id="text_17">
      <!-- 120 -->
      <g transform="translate(31.5125 45.271219)scale(0.1 -0.1)">
       <use xlink:href="#DejaVuSans-31"/>
       <use xlink:href="#DejaVuSans-32" x="63.623047"/>
       <use xlink:href="#DejaVuSans-30" x="127.246094"/>
      </g>
     </g>
    </g>
    <g id="text_18">
     <!-- Perplexity -->
     <g transform="translate(25.016875 204.271125)rotate(-90)scale(0.12 -0.12)">
      <defs>
       <path id="DejaVuSans-50" d="M 1259 4147 
L 1259 2394 
L 2053 2394 
Q 2494 2394 2734 2622 
Q 2975 2850 2975 3272 
Q 2975 3691 2734 3919 
Q 2494 4147 2053 4147 
L 1259 4147 
z
M 628 4666 
L 2053 4666 
Q 2838 4666 3239 4311 
Q 3641 3956 3641 3272 
Q 3641 2581 3239 2228 
Q 2838 1875 2053 1875 
L 1259 1875 
L 1259 0 
L 628 0 
L 628 4666 
z
" transform="scale(0.015625)"/>
       <path id="DejaVuSans-65" d="M 3597 1894 
L 3597 1613 
L 953 1613 
Q 991 1019 1311 708 
Q 1631 397 2203 397 
Q 2534 397 2845 478 
Q 3156 559 3463 722 
L 3463 178 
Q 3153 47 2828 -22 
Q 2503 -91 2169 -91 
Q 1331 -91 842 396 
Q 353 884 353 1716 
Q 353 2575 817 3079 
Q 1281 3584 2069 3584 
Q 2775 3584 3186 3129 
Q 3597 2675 3597 1894 
z
M 3022 2063 
Q 3016 2534 2758 2815 
Q 2500 3097 2075 3097 
Q 1594 3097 1305 2825 
Q 1016 2553 972 2059 
L 3022 2063 
z
" transform="scale(0.015625)"/>
       <path id="DejaVuSans-6c" d="M 603 4863 
L 1178 4863 
L 1178 0 
L 603 0 
L 603 4863 
z
" transform="scale(0.015625)"/>
       <path id="DejaVuSans-78" d="M 3513 3500 
L 2247 1797 
L 3578 0 
L 2900 0 
L 1881 1375 
L 863 0 
L 184 0 
L 1544 1831 
L 300 3500 
L 978 3500 
L 1906 2253 
L 2834 3500 
L 3513 3500 
z
" transform="scale(0.015625)"/>
       <path id="DejaVuSans-74" d="M 1172 4494 
L 1172 3500 
L 2356 3500 
L 2356 3053 
L 1172 3053 
L 1172 1153 
Q 1172 725 1289 603 
Q 1406 481 1766 481 
L 2356 481 
L 2356 0 
L 1766 0 
Q 1100 0 847 248 
Q 594 497 594 1153 
L 594 3053 
L 172 3053 
L 172 3500 
L 594 3500 
L 594 4494 
L 1172 4494 
z
" transform="scale(0.015625)"/>
       <path id="DejaVuSans-79" d="M 2059 -325 
Q 1816 -950 1584 -1140 
Q 1353 -1331 966 -1331 
L 506 -1331 
L 506 -850 
L 844 -850 
Q 1081 -850 1212 -737 
Q 1344 -625 1503 -206 
L 1606 56 
L 191 3500 
L 800 3500 
L 1894 763 
L 2988 3500 
L 3597 3500 
L 2059 -325 
z
" transform="scale(0.015625)"/>
      </defs>
      <use xlink:href="#DejaVuSans-50"/>
      <use xlink:href="#DejaVuSans-65" x="56.677734"/>
      <use xlink:href="#DejaVuSans-72" x="118.201172"/>
      <use xlink:href="#DejaVuSans-70" x="159.314453"/>
      <use xlink:href="#DejaVuSans-6c" x="222.791016"/>
      <use xlink:href="#DejaVuSans-65" x="250.574219"/>
      <use xlink:href="#DejaVuSans-78" x="310.347656"/>
      <use xlink:href="#DejaVuSans-69" x="369.527344"/>
      <use xlink:href="#DejaVuSans-74" x="397.310547"/>
      <use xlink:href="#DejaVuSans-79" x="436.519531"/>
     </g>
    </g>
   </g>
   <g id="line2d_33">
    <path d="M 87.818618 -1 
L 88.515596 5.147227 
L 90.147026 14.022304 
L 91.778456 35.03243 
L 93.409886 44.229643 
L 95.041316 49.850705 
L 96.672746 53.981866 
L 99.935605 71.753694 
L 101.567035 73.559519 
L 103.198465 84.047415 
L 104.829895 90.59222 
L 106.461325 89.184474 
L 108.092755 93.888943 
L 109.724185 98.145801 
L 111.355614 103.218205 
L 112.987044 104.150774 
L 114.618474 103.513306 
L 116.249904 111.568117 
L 117.881334 117.591415 
L 119.512764 113.163052 
L 121.144194 115.549358 
L 122.775624 119.559551 
L 124.407053 119.639489 
L 126.038483 121.864465 
L 127.669913 125.283699 
L 129.301343 126.938792 
L 130.932773 124.208141 
L 132.564203 129.260667 
L 134.195633 131.877669 
L 135.827063 134.139781 
L 137.458492 133.475029 
L 139.089922 138.707924 
L 140.721352 133.870118 
L 143.984212 140.336035 
L 145.615642 140.519939 
L 147.247072 141.74054 
L 148.878502 139.136636 
L 150.509931 141.907326 
L 152.141361 147.998103 
L 153.772791 141.6163 
L 155.404221 148.4757 
L 157.035651 148.849619 
L 158.667081 146.434086 
L 160.298511 148.560948 
L 161.929941 149.323819 
L 163.56137 153.175868 
L 165.1928 151.622314 
L 166.82423 152.238389 
L 168.45566 150.163294 
L 170.08709 156.025864 
L 171.71852 152.896247 
L 173.34995 151.399278 
L 174.98138 155.893167 
L 176.61281 156.030118 
L 178.244239 158.094089 
L 179.875669 157.848525 
L 181.507099 158.335035 
L 183.138529 159.025353 
L 184.769959 162.424334 
L 186.401389 160.679789 
L 188.032819 159.102673 
L 189.664249 159.270032 
L 191.295678 160.671159 
L 192.927108 164.494183 
L 194.558538 159.702103 
L 196.189968 162.028453 
L 197.821398 166.262005 
L 199.452828 163.338071 
L 201.084258 164.602843 
L 202.715688 164.523851 
L 204.347117 164.89731 
L 205.978547 162.166568 
L 207.609977 163.406722 
L 209.241407 164.064286 
L 210.872837 165.213639 
L 212.504267 168.226646 
L 214.135697 167.910016 
L 215.767127 165.766981 
L 217.398556 166.015416 
L 219.029986 165.485314 
L 220.661416 167.620523 
L 222.292846 169.28827 
L 223.924276 165.517144 
L 225.555706 171.619099 
L 227.187136 170.238731 
L 228.818566 168.638355 
L 230.449995 173.364235 
L 232.081425 172.701062 
L 233.712855 171.878771 
L 235.344285 173.410406 
L 236.975715 228.440327 
L 238.607145 231.067166 
L 240.238575 237.3895 
L 241.870005 240.210174 
L 243.501434 245.256934 
L 245.132864 247.61899 
L 248.395724 249.514328 
L 250.027154 252.415197 
L 251.658584 253.369455 
L 254.921444 256.196409 
L 256.552873 256.399314 
L 258.184303 256.947384 
L 259.815733 258.024503 
L 261.447163 261.794728 
L 263.078593 259.979984 
L 264.710023 257.456815 
L 266.341453 260.483897 
L 267.972883 260.768749 
L 269.604312 263.517547 
L 271.235742 263.119986 
L 272.867172 260.991357 
L 274.498602 263.138582 
L 276.130032 263.491006 
L 277.761462 262.701812 
L 279.392892 265.897066 
L 281.024322 266.268657 
L 282.655751 263.92773 
L 284.287181 265.474716 
L 285.918611 268.09851 
L 287.550041 266.240516 
L 289.181471 265.746443 
L 290.812901 267.322658 
L 292.444331 264.823749 
L 294.075761 266.633557 
L 295.70719 267.74233 
L 297.33862 268.492359 
L 298.97005 267.311398 
L 300.60148 269.229972 
L 302.23291 268.500585 
L 303.86434 269.672402 
L 305.49577 268.612173 
L 307.1272 269.313195 
L 308.75863 269.874566 
L 310.390059 276.151272 
L 312.021489 274.87456 
L 315.284349 272.904792 
L 316.915779 274.461058 
L 318.547209 275.528348 
L 320.178639 278.704761 
L 321.810069 275.600087 
L 323.441498 275.93152 
L 325.072928 276.108981 
L 326.704358 276.940511 
L 329.967218 276.026651 
L 331.598648 277.16135 
L 333.230078 276.235989 
L 334.861508 277.007485 
L 336.492937 273.337807 
L 338.124367 275.942806 
L 339.755797 276.927786 
L 341.387227 273.740854 
L 343.018657 279.312181 
L 346.281517 276.495289 
L 347.912947 274.537665 
L 349.544376 278.109408 
L 351.175806 278.868065 
L 352.807236 276.345562 
L 354.438666 275.900559 
L 356.070096 278.078632 
L 359.332956 280.986401 
L 360.964386 276.791669 
L 362.595815 278.648933 
L 364.227245 278.02772 
L 365.858675 277.806307 
L 367.490105 275.822318 
L 369.121535 277.128197 
L 370.752965 278.818085 
L 372.384395 277.850418 
L 374.015825 279.370878 
L 375.647254 276.040597 
L 377.278684 276.489111 
L 378.910114 278.025465 
L 380.541544 276.987192 
L 382.172974 278.564238 
L 383.804404 277.585169 
L 385.435834 276.885935 
L 387.067264 275.846389 
L 388.698693 278.090601 
L 390.330123 279.55145 
L 391.961553 278.098684 
L 393.592983 278.94623 
L 395.224413 278.083762 
L 396.855843 277.699226 
L 398.487273 278.641954 
L 398.487273 278.641954 
" clip-path="url(#pdead5d3c3f)" style="fill: none; stroke: #1f77b4; stroke-width: 1.5; stroke-linecap: square"/>
   </g>
   <g id="line2d_34">
    <path d="M 88.756835 -1 
L 90.147026 11.020104 
L 91.778456 21.673185 
L 93.409886 37.266911 
L 95.041316 37.4639 
L 96.672746 47.876331 
L 98.304175 61.832311 
L 99.935605 65.514748 
L 101.567035 70.93121 
L 103.198465 74.558018 
L 104.829895 82.190031 
L 106.461325 77.63816 
L 108.092755 89.723178 
L 111.355614 93.935147 
L 112.987044 92.072296 
L 114.618474 99.1578 
L 116.249904 98.959799 
L 117.881334 105.287093 
L 119.512764 100.778243 
L 121.144194 109.358846 
L 122.775624 109.444246 
L 124.407053 112.052548 
L 126.038483 112.318228 
L 127.669913 112.78065 
L 129.301343 120.167524 
L 130.932773 119.060914 
L 132.564203 120.622822 
L 134.195633 123.922153 
L 135.827063 123.53507 
L 137.458492 127.072771 
L 139.089922 126.510556 
L 140.721352 129.568515 
L 142.352782 131.946906 
L 143.984212 126.910059 
L 145.615642 135.456144 
L 147.247072 130.366151 
L 148.878502 138.015255 
L 150.509931 134.689858 
L 152.141361 142.28561 
L 153.772791 136.812629 
L 155.404221 138.548796 
L 157.035651 138.751934 
L 158.667081 137.838131 
L 160.298511 139.298048 
L 161.929941 139.894123 
L 163.56137 142.463716 
L 165.1928 140.511559 
L 166.82423 145.800583 
L 168.45566 147.543189 
L 170.08709 144.257275 
L 171.71852 140.382857 
L 173.34995 144.360764 
L 176.61281 148.27781 
L 178.244239 145.606514 
L 179.875669 147.457009 
L 181.507099 150.495559 
L 183.138529 148.228761 
L 184.769959 147.002515 
L 186.401389 150.741509 
L 188.032819 148.299633 
L 189.664249 150.706416 
L 191.295678 154.699093 
L 192.927108 150.429526 
L 194.558538 154.91109 
L 196.189968 157.789598 
L 197.821398 154.447494 
L 199.452828 151.43547 
L 201.084258 159.879207 
L 202.715688 151.834293 
L 204.347117 153.809092 
L 205.978547 157.36505 
L 207.609977 157.390481 
L 209.241407 160.476936 
L 210.872837 157.974244 
L 212.504267 155.222296 
L 214.135697 161.274081 
L 215.767127 159.571839 
L 217.398556 160.012093 
L 219.029986 161.693643 
L 220.661416 161.160357 
L 222.292846 158.635315 
L 223.924276 161.314098 
L 225.555706 159.499514 
L 227.187136 163.302783 
L 228.818566 160.962531 
L 230.449995 165.004953 
L 232.081425 162.322041 
L 233.712855 158.539055 
L 235.344285 163.326121 
L 236.975715 219.340641 
L 238.607145 227.185399 
L 240.238575 231.382518 
L 241.870005 233.636735 
L 243.501434 232.58815 
L 246.764294 240.519714 
L 248.395724 242.656368 
L 250.027154 242.978973 
L 251.658584 245.212887 
L 253.290014 246.953144 
L 254.921444 247.831319 
L 256.552873 244.357711 
L 258.184303 247.520644 
L 259.815733 248.482106 
L 261.447163 254.267351 
L 263.078593 251.87338 
L 264.710023 252.194897 
L 266.341453 252.89269 
L 267.972883 251.578182 
L 269.604312 255.258243 
L 271.235742 255.228263 
L 272.867172 254.471503 
L 274.498602 254.006827 
L 276.130032 255.412582 
L 277.761462 258.608089 
L 279.392892 261.013002 
L 281.024322 259.611712 
L 282.655751 258.028025 
L 284.287181 257.059223 
L 285.918611 258.302548 
L 287.550041 256.645385 
L 289.181471 257.926978 
L 290.812901 257.02868 
L 292.444331 257.311179 
L 294.075761 259.10109 
L 295.70719 258.001194 
L 297.33862 265.031437 
L 298.97005 260.21929 
L 300.60148 260.067793 
L 302.23291 264.746877 
L 303.86434 261.111505 
L 305.49577 260.406861 
L 307.1272 265.178462 
L 308.75863 262.290914 
L 310.390059 267.155171 
L 312.021489 267.992361 
L 313.652919 268.287034 
L 315.284349 266.694461 
L 316.915779 266.979629 
L 318.547209 271.739726 
L 320.178639 271.395227 
L 321.810069 266.790904 
L 323.441498 267.312776 
L 325.072928 266.218149 
L 326.704358 272.187406 
L 328.335788 266.954727 
L 329.967218 267.28353 
L 331.598648 270.012517 
L 333.230078 269.90898 
L 334.861508 269.023931 
L 336.492937 271.074312 
L 338.124367 267.636119 
L 339.755797 266.685935 
L 341.387227 267.007042 
L 343.018657 267.550586 
L 344.650087 267.550748 
L 346.281517 271.891506 
L 347.912947 269.218391 
L 349.544376 271.377918 
L 351.175806 269.887642 
L 352.807236 269.451119 
L 354.438666 267.275915 
L 356.070096 270.562316 
L 357.701526 268.893111 
L 359.332956 269.772099 
L 360.964386 267.608609 
L 362.595815 270.528387 
L 364.227245 268.964769 
L 365.858675 270.68439 
L 367.490105 270.781465 
L 369.121535 271.26287 
L 370.752965 271.463175 
L 372.384395 269.462529 
L 374.015825 271.550077 
L 375.647254 270.276346 
L 377.278684 267.713294 
L 378.910114 271.570004 
L 380.541544 271.344095 
L 382.172974 268.738781 
L 383.804404 269.744329 
L 385.435834 267.220412 
L 387.067264 268.253376 
L 388.698693 268.991736 
L 390.330123 271.944123 
L 391.961553 271.623483 
L 393.592983 270.748445 
L 395.224413 270.6332 
L 398.487273 268.767302 
L 398.487273 268.767302 
" clip-path="url(#pdead5d3c3f)" style="fill: none; stroke-dasharray: 5.55,2.4; stroke-dashoffset: 0; stroke: #ff7f0e; stroke-width: 1.5"/>
   </g>
   <g id="line2d_35">
    <path d="M 95.497268 -1 
L 98.304175 16.114977 
L 99.935605 30.695629 
L 101.567035 34.897531 
L 103.198465 50.406857 
L 104.829895 56.717967 
L 106.461325 59.965796 
L 109.724185 77.671631 
L 111.355614 82.525273 
L 112.987044 86.212048 
L 114.618474 88.601335 
L 116.249904 97.717586 
L 117.881334 103.309692 
L 119.512764 103.679243 
L 121.144194 106.266325 
L 122.775624 111.558477 
L 124.407053 113.374793 
L 126.038483 117.692255 
L 127.669913 122.748544 
L 129.301343 124.905871 
L 130.932773 123.59064 
L 132.564203 132.396781 
L 134.195633 133.128701 
L 135.827063 136.94975 
L 137.458492 137.058447 
L 139.089922 144.056619 
L 140.721352 142.30396 
L 142.352782 144.192298 
L 143.984212 146.945416 
L 145.615642 149.951787 
L 147.247072 150.62316 
L 148.878502 149.635418 
L 150.509931 154.005176 
L 152.141361 159.028432 
L 153.772791 156.358782 
L 155.404221 162.789422 
L 157.035651 163.513111 
L 158.667081 163.205694 
L 160.298511 164.10344 
L 161.929941 165.384763 
L 163.56137 171.069946 
L 165.1928 169.133834 
L 166.82423 170.137932 
L 168.45566 171.541062 
L 170.08709 175.173076 
L 171.71852 172.715675 
L 173.34995 171.987564 
L 174.98138 177.801046 
L 176.61281 176.605419 
L 178.244239 180.72322 
L 179.875669 180.531617 
L 181.507099 182.109897 
L 183.138529 182.995877 
L 184.769959 184.683593 
L 186.401389 185.796092 
L 189.664249 184.436642 
L 191.295678 185.835267 
L 192.927108 188.369428 
L 194.558538 187.710251 
L 196.189968 189.289593 
L 197.821398 193.758924 
L 199.452828 191.818291 
L 201.084258 192.521642 
L 202.715688 194.256171 
L 204.347117 194.108727 
L 205.978547 191.482057 
L 207.609977 193.718368 
L 209.241407 194.774452 
L 210.872837 196.237875 
L 212.504267 199.361607 
L 214.135697 197.975118 
L 215.767127 198.596227 
L 217.398556 199.375342 
L 219.029986 198.767709 
L 220.661416 200.914456 
L 222.292846 201.016419 
L 223.924276 198.996146 
L 225.555706 203.75691 
L 227.187136 204.60582 
L 228.818566 202.415718 
L 230.449995 207.568129 
L 232.081425 206.819301 
L 233.712855 205.682494 
L 235.344285 207.366809 
L 236.975715 224.958564 
L 238.607145 220.660076 
L 240.238575 222.797428 
L 241.870005 223.785469 
L 243.501434 225.642944 
L 245.132864 226.146107 
L 246.764294 225.196966 
L 248.395724 225.522204 
L 250.027154 226.341979 
L 251.658584 226.798156 
L 253.290014 226.933793 
L 254.921444 227.833656 
L 256.552873 228.360542 
L 258.184303 227.626539 
L 259.815733 226.640318 
L 261.447163 230.183494 
L 263.078593 227.459439 
L 264.710023 225.112105 
L 266.341453 228.055883 
L 267.972883 227.41984 
L 269.604312 228.686982 
L 271.235742 231.073703 
L 272.867172 226.013583 
L 274.498602 227.695997 
L 276.130032 227.213187 
L 277.761462 227.965207 
L 279.392892 229.912085 
L 281.024322 229.731996 
L 282.655751 227.953208 
L 284.287181 229.573544 
L 285.918611 230.509455 
L 287.550041 228.678352 
L 290.812901 229.986197 
L 292.444331 227.794849 
L 294.075761 228.436334 
L 295.70719 228.8497 
L 297.33862 228.315392 
L 298.97005 229.086478 
L 300.60148 230.476063 
L 302.23291 228.481744 
L 303.86434 230.937322 
L 305.49577 229.906262 
L 307.1272 229.787199 
L 308.75863 228.59668 
L 310.390059 232.955165 
L 312.021489 233.759852 
L 313.652919 230.785767 
L 315.284349 229.152639 
L 316.915779 230.590245 
L 318.547209 231.234315 
L 320.178639 235.119514 
L 321.810069 231.782606 
L 323.441498 233.084964 
L 326.704358 233.180151 
L 328.335788 233.726272 
L 329.967218 233.576847 
L 331.598648 233.176311 
L 333.230078 233.028624 
L 334.861508 233.660833 
L 336.492937 229.881677 
L 338.124367 232.472065 
L 339.755797 233.045271 
L 341.387227 229.752802 
L 343.018657 234.645543 
L 344.650087 233.225493 
L 346.281517 231.513366 
L 347.912947 230.994424 
L 349.544376 233.262512 
L 351.175806 234.538627 
L 352.807236 231.105648 
L 354.438666 231.87591 
L 356.070096 234.664647 
L 357.701526 235.24193 
L 359.332956 236.613832 
L 360.964386 231.83367 
L 362.595815 235.704347 
L 364.227245 233.388249 
L 365.858675 232.431191 
L 367.490105 231.332389 
L 369.121535 231.641308 
L 370.752965 233.796713 
L 372.384395 233.065575 
L 374.015825 233.888846 
L 375.647254 231.065969 
L 377.278684 231.094141 
L 378.910114 232.8945 
L 380.541544 230.910426 
L 382.172974 234.586858 
L 383.804404 233.478133 
L 385.435834 232.080052 
L 387.067264 230.935756 
L 388.698693 233.785765 
L 390.330123 235.40114 
L 391.961553 233.228235 
L 393.592983 233.873797 
L 395.224413 232.007186 
L 396.855843 232.900448 
L 398.487273 234.775974 
L 398.487273 234.775974 
" clip-path="url(#pdead5d3c3f)" style="fill: none; stroke-dasharray: 5.55,2.4; stroke-dashoffset: 0; stroke: #2ca02c; stroke-width: 1.5"/>
   </g>
   <g id="line2d_36">
    <path d="M 85.752276 -1 
L 86.884166 11.622567 
L 88.515596 19.433867 
L 90.147026 27.793934 
L 91.778456 44.839174 
L 93.409886 52.483944 
L 95.041316 56.507708 
L 96.672746 61.527394 
L 98.304175 65.845013 
L 99.935605 72.923002 
L 101.567035 73.94767 
L 103.198465 86.051897 
L 104.829895 88.769379 
L 106.461325 88.371662 
L 108.092755 93.317353 
L 109.724185 100.838089 
L 111.355614 103.857421 
L 112.987044 104.610681 
L 114.618474 102.966318 
L 116.249904 111.451261 
L 117.881334 116.233149 
L 119.512764 113.136929 
L 121.144194 115.153711 
L 122.775624 118.703346 
L 124.407053 118.047658 
L 126.038483 119.846575 
L 127.669913 125.169778 
L 129.301343 127.539369 
L 130.932773 122.401803 
L 132.564203 128.576555 
L 134.195633 131.150688 
L 135.827063 132.227037 
L 137.458492 132.399835 
L 139.089922 139.416663 
L 140.721352 134.466515 
L 142.352782 135.382177 
L 143.984212 137.4863 
L 145.615642 139.122221 
L 147.247072 139.984511 
L 148.878502 137.193068 
L 150.509931 140.371002 
L 152.141361 145.895279 
L 153.772791 141.431477 
L 155.404221 146.368058 
L 157.035651 147.420439 
L 158.667081 145.784523 
L 160.298511 147.295298 
L 161.929941 148.262439 
L 163.56137 153.234594 
L 165.1928 150.349828 
L 166.82423 148.927053 
L 168.45566 150.903523 
L 170.08709 152.104706 
L 171.71852 151.52774 
L 173.34995 149.474503 
L 174.98138 155.190496 
L 176.61281 153.045412 
L 178.244239 157.685338 
L 179.875669 155.021194 
L 181.507099 157.960175 
L 183.138529 157.814314 
L 184.769959 159.315506 
L 186.401389 158.697191 
L 188.032819 159.416466 
L 189.664249 158.251842 
L 191.295678 157.687856 
L 192.927108 161.896965 
L 194.558538 158.706894 
L 196.189968 161.688094 
L 197.821398 166.75625 
L 199.452828 161.225104 
L 201.084258 164.282615 
L 202.715688 162.66995 
L 204.347117 164.85027 
L 205.978547 160.306254 
L 207.609977 162.642391 
L 209.241407 162.245613 
L 212.504267 167.290205 
L 214.135697 165.909076 
L 215.767127 165.397992 
L 217.398556 164.087351 
L 219.029986 164.750331 
L 220.661416 166.293991 
L 222.292846 165.013707 
L 223.924276 165.575978 
L 225.555706 167.461477 
L 227.187136 168.261464 
L 228.818566 167.512977 
L 230.449995 174.276689 
L 233.712855 167.880731 
L 235.344285 171.716732 
L 236.975715 227.006488 
L 238.607145 230.301479 
L 240.238575 236.776192 
L 241.870005 238.935643 
L 243.501434 243.376207 
L 245.132864 246.229087 
L 246.764294 247.05247 
L 248.395724 248.251595 
L 251.658584 251.987705 
L 253.290014 252.168182 
L 254.921444 254.517698 
L 256.552873 254.36558 
L 258.184303 253.87009 
L 259.815733 255.427562 
L 261.447163 260.014778 
L 263.078593 256.16366 
L 264.710023 255.88573 
L 267.972883 258.638373 
L 269.604312 259.740051 
L 271.235742 261.929646 
L 272.867172 259.561276 
L 274.498602 260.795807 
L 276.130032 260.77929 
L 277.761462 259.658221 
L 279.392892 263.871691 
L 281.024322 263.587378 
L 282.655751 260.951545 
L 284.287181 262.764192 
L 285.918611 265.267617 
L 287.550041 263.515904 
L 289.181471 264.992543 
L 290.812901 265.919705 
L 292.444331 262.476729 
L 294.075761 266.24621 
L 295.70719 263.60586 
L 297.33862 265.853818 
L 298.97005 263.930438 
L 300.60148 268.219471 
L 302.23291 265.116721 
L 303.86434 267.831117 
L 305.49577 267.019126 
L 307.1272 266.548025 
L 308.75863 267.391745 
L 310.390059 273.756031 
L 312.021489 273.591337 
L 313.652919 272.11559 
L 315.284349 270.383021 
L 316.915779 270.948584 
L 318.547209 273.079352 
L 320.178639 276.940043 
L 321.810069 272.56596 
L 323.441498 273.506221 
L 325.072928 272.773676 
L 326.704358 274.437173 
L 328.335788 273.958611 
L 329.967218 272.89821 
L 331.598648 274.976061 
L 333.230078 273.675792 
L 334.861508 274.899978 
L 336.492937 271.725707 
L 338.124367 272.881794 
L 339.755797 274.687818 
L 341.387227 271.277154 
L 343.018657 276.773624 
L 344.650087 275.28567 
L 346.281517 274.151799 
L 347.912947 273.992885 
L 349.544376 275.386618 
L 351.175806 276.218844 
L 352.807236 273.492138 
L 354.438666 275.535178 
L 356.070096 275.755426 
L 357.701526 275.639401 
L 359.332956 277.427663 
L 360.964386 273.460567 
L 362.595815 276.625701 
L 364.227245 275.209364 
L 365.858675 274.513866 
L 367.490105 273.602647 
L 369.121535 273.734135 
L 370.752965 275.868968 
L 372.384395 274.734122 
L 374.015825 276.268083 
L 375.647254 274.162611 
L 377.278684 274.481316 
L 380.541544 273.812064 
L 383.804404 275.656114 
L 385.435834 274.93224 
L 387.067264 273.290618 
L 388.698693 275.827571 
L 390.330123 277.322372 
L 391.961553 276.45681 
L 393.592983 276.254698 
L 395.224413 275.072176 
L 396.855843 275.365253 
L 398.487273 277.192939 
L 398.487273 277.192939 
" clip-path="url(#pdead5d3c3f)" style="fill: none; stroke-dasharray: 5.55,2.4; stroke-dashoffset: 0; stroke: #d62728; stroke-width: 1.5"/>
   </g>
   <g id="line2d_37">
    <path d="M 90.181076 -1 
L 93.409886 34.119172 
L 95.041316 43.299802 
L 96.672746 61.237101 
L 98.304175 75.478019 
L 99.935605 83.472057 
L 101.567035 93.137346 
L 103.198465 101.185403 
L 104.829895 111.769228 
L 106.461325 112.552837 
L 108.092755 126.592496 
L 111.355614 135.70765 
L 112.987044 141.601856 
L 114.618474 150.745356 
L 116.249904 150.6073 
L 117.881334 158.661345 
L 119.512764 161.50052 
L 121.144194 168.983885 
L 122.775624 170.366267 
L 124.407053 175.220761 
L 126.038483 178.091234 
L 127.669913 180.374538 
L 129.301343 186.502674 
L 130.932773 188.222469 
L 132.564203 190.22204 
L 134.195633 194.970575 
L 135.827063 196.626872 
L 137.458492 198.707771 
L 139.089922 199.374528 
L 140.721352 204.273576 
L 142.352782 205.746868 
L 143.984212 206.118294 
L 145.615642 212.655025 
L 147.247072 211.559843 
L 148.878502 215.748477 
L 150.509931 215.229026 
L 152.141361 219.911036 
L 153.772791 218.408712 
L 155.404221 220.274862 
L 157.035651 222.401972 
L 158.667081 222.503108 
L 160.298511 223.275882 
L 163.56137 228.303128 
L 165.1928 228.74052 
L 166.82423 230.754341 
L 168.45566 234.990233 
L 170.08709 233.844061 
L 171.71852 230.713602 
L 173.34995 233.630985 
L 174.98138 234.905075 
L 176.61281 236.913185 
L 178.244239 236.257539 
L 179.875669 237.779993 
L 181.507099 243.196878 
L 183.138529 239.778286 
L 184.769959 241.605995 
L 186.401389 245.212974 
L 188.032819 242.371246 
L 189.664249 244.044923 
L 191.295678 248.462239 
L 192.927108 244.654863 
L 194.558538 247.461359 
L 196.189968 249.991152 
L 197.821398 250.003492 
L 199.452828 246.950178 
L 201.084258 253.031016 
L 202.715688 250.741507 
L 204.347117 250.696578 
L 205.978547 254.455706 
L 207.609977 255.239866 
L 209.241407 256.740164 
L 210.872837 254.715132 
L 212.504267 253.000539 
L 214.135697 258.034648 
L 215.767127 257.759101 
L 217.398556 257.615137 
L 219.029986 260.078694 
L 220.661416 260.476834 
L 222.292846 259.210303 
L 223.924276 260.716451 
L 225.555706 259.412416 
L 227.187136 263.110441 
L 228.818566 261.62549 
L 230.449995 264.517359 
L 232.081425 263.803822 
L 233.712855 260.713463 
L 235.344285 264.82612 
L 236.975715 281.395593 
L 238.607145 281.070674 
L 240.238575 281.478732 
L 241.870005 280.843142 
L 243.501434 278.988828 
L 245.132864 280.114443 
L 246.764294 281.552107 
L 248.395724 283.195538 
L 250.027154 282.328021 
L 251.658584 285.620863 
L 253.290014 282.49419 
L 254.921444 283.287674 
L 256.552873 281.260088 
L 258.184303 283.624785 
L 259.815733 282.250362 
L 261.447163 287.477846 
L 263.078593 284.599084 
L 264.710023 284.277017 
L 266.341453 285.670409 
L 267.972883 282.557724 
L 269.604312 286.008818 
L 271.235742 286.016574 
L 272.867172 285.644619 
L 274.498602 284.541824 
L 276.130032 285.560218 
L 277.761462 287.100447 
L 279.392892 290.501153 
L 281.024322 288.462127 
L 282.655751 287.108993 
L 284.287181 286.403156 
L 285.918611 286.688302 
L 287.550041 285.03446 
L 289.181471 286.603582 
L 290.812901 285.651331 
L 292.444331 286.307733 
L 294.075761 286.68237 
L 295.70719 284.369436 
L 297.33862 290.199108 
L 298.97005 287.74171 
L 300.60148 286.245978 
L 302.23291 290.861148 
L 303.86434 287.710901 
L 305.49577 286.5413 
L 307.1272 290.719445 
L 308.75863 288.157017 
L 310.390059 290.316257 
L 312.021489 291.304328 
L 313.652919 290.673941 
L 315.284349 288.844133 
L 316.915779 289.784377 
L 318.547209 292.553218 
L 320.178639 292.902404 
L 321.810069 288.886185 
L 323.441498 289.383494 
L 325.072928 289.159017 
L 326.704358 294.233815 
L 328.335788 289.326967 
L 329.967218 289.024499 
L 331.598648 290.722621 
L 333.230078 291.041645 
L 334.861508 290.308119 
L 336.492937 292.655455 
L 338.124367 290.236783 
L 339.755797 286.960892 
L 341.387227 289.162139 
L 343.018657 289.571179 
L 344.650087 289.307279 
L 346.281517 293.539252 
L 347.912947 290.690489 
L 349.544376 292.15426 
L 351.175806 290.11456 
L 352.807236 291.422637 
L 354.438666 289.157976 
L 356.070096 291.464319 
L 357.701526 290.030649 
L 359.332956 291.10065 
L 360.964386 289.368936 
L 362.595815 291.748608 
L 364.227245 289.007316 
L 365.858675 291.540815 
L 367.490105 292.013829 
L 369.121535 291.355165 
L 370.752965 292.061652 
L 372.384395 288.764324 
L 374.015825 291.55826 
L 375.647254 291.440238 
L 377.278684 289.407631 
L 378.910114 290.871187 
L 380.541544 291.985982 
L 382.172974 290.755414 
L 383.804404 291.111712 
L 385.435834 288.73506 
L 387.067264 289.227102 
L 388.698693 288.607535 
L 390.330123 291.58439 
L 391.961553 291.034563 
L 393.592983 292.057024 
L 395.224413 291.251342 
L 396.855843 291.923151 
L 398.487273 289.280012 
L 398.487273 289.280012 
" clip-path="url(#pdead5d3c3f)" style="fill: none; stroke-dasharray: 5.55,2.4; stroke-dashoffset: 0; stroke: #9467bd; stroke-width: 1.5"/>
   </g>
   <g id="line2d_38">
    <path d="M 90.678292 -1 
L 91.778456 16.969452 
L 93.409886 31.689785 
L 95.041316 45.250264 
L 96.672746 54.895351 
L 98.304175 66.740841 
L 99.935605 80.280911 
L 101.567035 83.190481 
L 103.198465 101.014811 
L 104.829895 105.690785 
L 106.461325 110.01434 
L 108.092755 119.665207 
L 109.724185 128.024329 
L 111.355614 134.468216 
L 112.987044 137.831021 
L 114.618474 139.455433 
L 116.249904 148.930918 
L 117.881334 154.980154 
L 119.512764 156.479143 
L 121.144194 158.931817 
L 122.775624 165.070826 
L 124.407053 167.941635 
L 126.038483 171.308063 
L 127.669913 176.480949 
L 129.301343 178.466287 
L 130.932773 177.736262 
L 132.564203 186.679518 
L 134.195633 188.079444 
L 135.827063 190.433236 
L 137.458492 191.820788 
L 139.089922 198.352514 
L 140.721352 196.758762 
L 143.984212 201.393522 
L 145.615642 204.783826 
L 147.247072 206.094469 
L 148.878502 205.665924 
L 150.509931 209.107942 
L 152.141361 215.075594 
L 153.772791 211.559647 
L 155.404221 217.607627 
L 157.035651 219.067259 
L 158.667081 218.480843 
L 160.298511 219.841334 
L 161.929941 223.4818 
L 163.56137 226.154247 
L 165.1928 225.45347 
L 166.82423 225.203911 
L 168.45566 227.865107 
L 170.08709 230.969834 
L 171.71852 229.029201 
L 173.34995 228.649584 
L 174.98138 232.609493 
L 176.61281 232.863842 
L 178.244239 236.807534 
L 179.875669 237.092434 
L 181.507099 238.321232 
L 183.138529 239.397243 
L 186.401389 241.288176 
L 188.032819 241.943259 
L 189.664249 241.652372 
L 191.295678 242.45356 
L 192.927108 245.73059 
L 194.558538 244.799545 
L 196.189968 245.017486 
L 197.821398 250.159719 
L 199.452828 249.796409 
L 201.084258 248.985437 
L 202.715688 249.552617 
L 204.347117 250.268707 
L 205.978547 249.769984 
L 207.609977 250.096496 
L 209.241407 251.542827 
L 210.872837 252.157222 
L 212.504267 254.808877 
L 214.135697 254.887666 
L 215.767127 255.090261 
L 217.398556 253.983517 
L 219.029986 254.444155 
L 220.661416 256.228057 
L 222.292846 255.965227 
L 223.924276 255.023735 
L 225.555706 259.463463 
L 227.187136 259.222157 
L 228.818566 259.780707 
L 230.449995 262.918556 
L 232.081425 262.402072 
L 233.712855 261.462273 
L 235.344285 263.258192 
L 236.975715 277.366801 
L 238.607145 273.34224 
L 240.238575 274.622048 
L 241.870005 274.456013 
L 243.501434 276.952143 
L 245.132864 278.9044 
L 246.764294 277.528316 
L 248.395724 277.875854 
L 250.027154 277.989548 
L 251.658584 278.649554 
L 253.290014 278.209326 
L 254.921444 279.849929 
L 256.552873 279.405751 
L 258.184303 278.605348 
L 259.815733 279.043574 
L 261.447163 281.226546 
L 263.078593 278.804755 
L 264.710023 277.398442 
L 266.341453 278.81421 
L 267.972883 280.452301 
L 269.604312 280.771251 
L 271.235742 282.326034 
L 272.867172 277.86582 
L 274.498602 280.383225 
L 276.130032 279.388276 
L 277.761462 279.55145 
L 279.392892 281.47367 
L 281.024322 281.493378 
L 282.655751 279.959965 
L 284.287181 280.535136 
L 285.918611 282.510228 
L 287.550041 280.864974 
L 289.181471 281.104544 
L 290.812901 281.476968 
L 292.444331 278.665838 
L 294.075761 281.535394 
L 295.70719 280.780863 
L 297.33862 280.785323 
L 298.97005 279.476872 
L 300.60148 282.05871 
L 302.23291 281.17227 
L 303.86434 283.214882 
L 305.49577 280.586932 
L 307.1272 282.000022 
L 308.75863 281.076665 
L 310.390059 283.752861 
L 312.021489 283.777556 
L 313.652919 281.538921 
L 315.284349 280.572464 
L 316.915779 282.275512 
L 318.547209 282.995386 
L 320.178639 286.925559 
L 321.810069 281.941168 
L 323.441498 283.997959 
L 325.072928 283.885655 
L 326.704358 284.922322 
L 328.335788 285.029773 
L 329.967218 284.220593 
L 331.598648 285.073995 
L 333.230078 282.597273 
L 334.861508 284.515311 
L 336.492937 282.121131 
L 338.124367 283.742374 
L 339.755797 284.696228 
L 341.387227 280.997388 
L 343.018657 286.03984 
L 344.650087 284.249792 
L 347.912947 282.705884 
L 349.544376 285.048067 
L 351.175806 284.801204 
L 352.807236 282.569254 
L 354.438666 284.299537 
L 357.701526 286.174274 
L 359.332956 286.651128 
L 360.964386 282.973052 
L 362.595815 285.794569 
L 364.227245 285.04081 
L 365.858675 282.700695 
L 367.490105 283.59536 
L 369.121535 283.607374 
L 370.752965 285.486806 
L 372.384395 285.663471 
L 374.015825 285.338859 
L 375.647254 283.216405 
L 377.278684 282.683372 
L 378.910114 283.871984 
L 380.541544 283.175659 
L 382.172974 285.414202 
L 383.804404 285.404842 
L 385.435834 283.061308 
L 387.067264 282.21764 
L 388.698693 284.267538 
L 390.330123 286.765261 
L 391.961553 284.506371 
L 393.592983 285.19649 
L 395.224413 282.960398 
L 396.855843 283.844867 
L 398.487273 285.766003 
L 398.487273 285.766003 
" clip-path="url(#pdead5d3c3f)" style="fill: none; stroke-dasharray: 5.55,2.4; stroke-dashoffset: 0; stroke: #8c564b; stroke-width: 1.5"/>
   </g>
   <g id="line2d_39">
    <path d="M 90.229714 -1 
L 91.778456 23.609462 
L 93.409886 40.322651 
L 95.041316 54.311232 
L 96.672746 63.439881 
L 99.935605 89.807807 
L 101.567035 92.967331 
L 103.198465 110.13082 
L 104.829895 117.366972 
L 106.461325 120.459536 
L 108.092755 130.011104 
L 109.724185 138.88021 
L 111.355614 144.617768 
L 112.987044 148.397588 
L 114.618474 151.857542 
L 116.249904 161.470268 
L 117.881334 167.758336 
L 119.512764 167.390569 
L 121.144194 170.889102 
L 122.775624 176.39809 
L 126.038483 183.264114 
L 127.669913 189.110204 
L 129.301343 191.547664 
L 130.932773 190.368668 
L 132.564203 199.063161 
L 134.195633 200.960227 
L 135.827063 204.289615 
L 137.458492 204.572971 
L 139.089922 210.668478 
L 140.721352 209.600327 
L 142.352782 211.981547 
L 143.984212 213.850721 
L 145.615642 216.592015 
L 147.247072 220.569771 
L 148.878502 219.893278 
L 150.509931 221.475535 
L 152.141361 228.767981 
L 153.772791 223.963909 
L 155.404221 229.983517 
L 157.035651 232.276902 
L 158.667081 231.116695 
L 160.298511 232.768464 
L 161.929941 234.806254 
L 163.56137 239.168236 
L 165.1928 237.510081 
L 166.82423 238.845155 
L 168.45566 240.58178 
L 170.08709 243.561249 
L 171.71852 241.988517 
L 173.34995 241.038212 
L 174.98138 245.509332 
L 176.61281 245.702471 
L 178.244239 249.487876 
L 179.875669 249.862461 
L 181.507099 250.933623 
L 183.138529 251.059506 
L 184.769959 252.19464 
L 186.401389 253.59437 
L 188.032819 254.808962 
L 189.664249 254.519227 
L 191.295678 255.739855 
L 192.927108 258.64791 
L 194.558538 255.853282 
L 196.189968 258.550104 
L 197.821398 262.168233 
L 199.452828 261.661977 
L 201.084258 261.676041 
L 202.715688 263.524859 
L 204.347117 263.624669 
L 205.978547 261.088541 
L 209.241407 264.051828 
L 212.504267 266.410694 
L 214.135697 266.132076 
L 215.767127 267.590969 
L 217.398556 266.194396 
L 219.029986 267.179972 
L 220.661416 269.56841 
L 222.292846 269.304512 
L 223.924276 267.806295 
L 225.555706 272.074305 
L 227.187136 272.251331 
L 228.818566 271.482471 
L 230.449995 275.829375 
L 232.081425 274.763176 
L 233.712855 273.505668 
L 235.344285 275.295649 
L 236.975715 287.979968 
L 238.607145 285.041037 
L 240.238575 286.52041 
L 241.870005 287.561891 
L 243.501434 288.468613 
L 245.132864 289.732986 
L 246.764294 288.42865 
L 248.395724 289.060124 
L 250.027154 291.0038 
L 251.658584 291.385589 
L 253.290014 290.884031 
L 254.921444 292.595584 
L 256.552873 292.209102 
L 258.184303 290.969639 
L 259.815733 291.388388 
L 261.447163 295.304999 
L 263.078593 291.305875 
L 264.710023 290.716195 
L 266.341453 291.854717 
L 267.972883 292.30114 
L 269.604312 293.166574 
L 271.235742 295.129136 
L 272.867172 290.908536 
L 274.498602 292.924289 
L 276.130032 292.073331 
L 277.761462 292.701393 
L 279.392892 293.857043 
L 281.024322 294.432161 
L 282.655751 292.464723 
L 284.287181 293.350246 
L 285.918611 295.704303 
L 287.550041 294.342468 
L 289.181471 293.978473 
L 290.812901 295.631732 
L 292.444331 291.959603 
L 294.075761 294.898852 
L 295.70719 294.869089 
L 297.33862 294.509389 
L 298.97005 293.966158 
L 300.60148 295.864487 
L 302.23291 295.200047 
L 303.86434 296.781629 
L 305.49577 294.652651 
L 307.1272 295.170685 
L 308.75863 294.056285 
L 310.390059 297.851765 
L 312.021489 296.901861 
L 313.652919 295.772439 
L 315.284349 293.892983 
L 316.915779 296.000432 
L 318.547209 296.957133 
L 320.178639 298.771425 
L 321.810069 296.406933 
L 323.441498 297.747724 
L 325.072928 296.322529 
L 326.704358 297.622398 
L 328.335788 298.01931 
L 329.967218 297.031959 
L 331.598648 298.792632 
L 333.230078 296.706579 
L 334.861508 298.863878 
L 336.492937 294.79728 
L 338.124367 297.598072 
L 339.755797 298.57326 
L 341.387227 295.393823 
L 343.018657 299.753551 
L 344.650087 298.498136 
L 346.281517 296.907835 
L 347.912947 296.137526 
L 349.544376 298.801485 
L 351.175806 298.970778 
L 352.807236 296.082713 
L 354.438666 297.173777 
L 356.070096 299.224345 
L 357.701526 299.436414 
L 359.332956 300.249347 
L 360.964386 296.857879 
L 362.595815 299.028133 
L 364.227245 298.051257 
L 365.858675 297.218203 
L 369.121535 296.248487 
L 370.752965 297.699883 
L 372.384395 298.706936 
L 374.015825 298.96928 
L 375.647254 296.334145 
L 377.278684 296.054759 
L 378.910114 298.199906 
L 380.541544 296.240476 
L 382.172974 299.179299 
L 383.804404 297.697444 
L 387.067264 296.110229 
L 388.698693 298.186448 
L 390.330123 300.653016 
L 391.961553 297.84137 
L 393.592983 297.948165 
L 395.224413 296.959579 
L 398.487273 298.457312 
L 398.487273 298.457312 
" clip-path="url(#pdead5d3c3f)" style="fill: none; stroke-dasharray: 5.55,2.4; stroke-dashoffset: 0; stroke: #e377c2; stroke-width: 1.5"/>
   </g>
   <g id="patch_3">
    <path d="M 57.6 307.584 
L 57.6 41.472 
" style="fill: none; stroke: #000000; stroke-width: 0.8; stroke-linejoin: miter; stroke-linecap: square"/>
   </g>
   <g id="patch_4">
    <path d="M 414.72 307.584 
L 414.72 41.472 
" style="fill: none; stroke: #000000; stroke-width: 0.8; stroke-linejoin: miter; stroke-linecap: square"/>
   </g>
   <g id="patch_5">
    <path d="M 57.6 307.584 
L 414.72 307.584 
" style="fill: none; stroke: #000000; stroke-width: 0.8; stroke-linejoin: miter; stroke-linecap: square"/>
   </g>
   <g id="patch_6">
    <path d="M 57.6 41.472 
L 414.72 41.472 
" style="fill: none; stroke: #000000; stroke-width: 0.8; stroke-linejoin: miter; stroke-linecap: square"/>
   </g>
   <g id="text_19">
    <!-- Train set perplexity ~ training epoch -->
    <g transform="translate(126.366563 35.472)scale(0.12 -0.12)">
     <defs>
      <path id="DejaVuSans-73" d="M 2834 3397 
L 2834 2853 
Q 2591 2978 2328 3040 
Q 2066 3103 1784 3103 
Q 1356 3103 1142 2972 
Q 928 2841 928 2578 
Q 928 2378 1081 2264 
Q 1234 2150 1697 2047 
L 1894 2003 
Q 2506 1872 2764 1633 
Q 3022 1394 3022 966 
Q 3022 478 2636 193 
Q 2250 -91 1575 -91 
Q 1294 -91 989 -36 
Q 684 19 347 128 
L 347 722 
Q 666 556 975 473 
Q 1284 391 1588 391 
Q 1994 391 2212 530 
Q 2431 669 2431 922 
Q 2431 1156 2273 1281 
Q 2116 1406 1581 1522 
L 1381 1569 
Q 847 1681 609 1914 
Q 372 2147 372 2553 
Q 372 3047 722 3315 
Q 1072 3584 1716 3584 
Q 2034 3584 2315 3537 
Q 2597 3491 2834 3397 
z
" transform="scale(0.015625)"/>
      <path id="DejaVuSans-7e" d="M 4684 2553 
L 4684 1997 
Q 4356 1750 4076 1644 
Q 3797 1538 3494 1538 
Q 3150 1538 2694 1722 
Q 2659 1734 2644 1741 
Q 2622 1750 2575 1766 
Q 2091 1959 1797 1959 
Q 1522 1959 1253 1839 
Q 984 1719 678 1459 
L 678 2016 
Q 1006 2263 1286 2370 
Q 1566 2478 1869 2478 
Q 2213 2478 2672 2291 
Q 2703 2278 2719 2272 
Q 2744 2263 2788 2247 
Q 3272 2053 3566 2053 
Q 3834 2053 4098 2172 
Q 4363 2291 4684 2553 
z
" transform="scale(0.015625)"/>
     </defs>
     <use xlink:href="#DejaVuSans-54"/>
     <use xlink:href="#DejaVuSans-72" x="46.333984"/>
     <use xlink:href="#DejaVuSans-61" x="87.447266"/>
     <use xlink:href="#DejaVuSans-69" x="148.726562"/>
     <use xlink:href="#DejaVuSans-6e" x="176.509766"/>
     <use xlink:href="#DejaVuSans-20" x="239.888672"/>
     <use xlink:href="#DejaVuSans-73" x="271.675781"/>
     <use xlink:href="#DejaVuSans-65" x="323.775391"/>
     <use xlink:href="#DejaVuSans-74" x="385.298828"/>
     <use xlink:href="#DejaVuSans-20" x="424.507812"/>
     <use xlink:href="#DejaVuSans-70" x="456.294922"/>
     <use xlink:href="#DejaVuSans-65" x="519.771484"/>
     <use xlink:href="#DejaVuSans-72" x="581.294922"/>
     <use xlink:href="#DejaVuSans-70" x="622.408203"/>
     <use xlink:href="#DejaVuSans-6c" x="685.884766"/>
     <use xlink:href="#DejaVuSans-65" x="713.667969"/>
     <use xlink:href="#DejaVuSans-78" x="773.441406"/>
     <use xlink:href="#DejaVuSans-69" x="832.621094"/>
     <use xlink:href="#DejaVuSans-74" x="860.404297"/>
     <use xlink:href="#DejaVuSans-79" x="899.613281"/>
     <use xlink:href="#DejaVuSans-20" x="958.792969"/>
     <use xlink:href="#DejaVuSans-7e" x="990.580078"/>
     <use xlink:href="#DejaVuSans-20" x="1074.369141"/>
     <use xlink:href="#DejaVuSans-74" x="1106.15625"/>
     <use xlink:href="#DejaVuSans-72" x="1145.365234"/>
     <use xlink:href="#DejaVuSans-61" x="1186.478516"/>
     <use xlink:href="#DejaVuSans-69" x="1247.757812"/>
     <use xlink:href="#DejaVuSans-6e" x="1275.541016"/>
     <use xlink:href="#DejaVuSans-69" x="1338.919922"/>
     <use xlink:href="#DejaVuSans-6e" x="1366.703125"/>
     <use xlink:href="#DejaVuSans-67" x="1430.082031"/>
     <use xlink:href="#DejaVuSans-20" x="1493.558594"/>
     <use xlink:href="#DejaVuSans-65" x="1525.345703"/>
     <use xlink:href="#DejaVuSans-70" x="1586.869141"/>
     <use xlink:href="#DejaVuSans-6f" x="1650.345703"/>
     <use xlink:href="#DejaVuSans-63" x="1711.527344"/>
     <use xlink:href="#DejaVuSans-68" x="1766.507812"/>
    </g>
   </g>
   <g id="legend_1">
    <g id="patch_7">
     <path d="M 298.648125 174.36825 
L 406.32 174.36825 
Q 408.72 174.36825 408.72 171.96825 
L 408.72 49.872 
Q 408.72 47.472 406.32 47.472 
L 298.648125 47.472 
Q 296.248125 47.472 296.248125 49.872 
L 296.248125 171.96825 
Q 296.248125 174.36825 298.648125 174.36825 
z
" style="fill: #ffffff; opacity: 0.8; stroke: #cccccc; stroke-linejoin: miter"/>
    </g>
    <g id="line2d_40">
     <path d="M 301.048125 57.190125 
L 313.048125 57.190125 
L 325.048125 57.190125 
" style="fill: none; stroke: #1f77b4; stroke-width: 1.5; stroke-linecap: square"/>
    </g>
    <g id="text_20">
     <!-- AdaSmooth -->
     <g transform="translate(334.648125 61.390125)scale(0.12 -0.12)">
      <defs>
       <path id="DejaVuSans-41" d="M 2188 4044 
L 1331 1722 
L 3047 1722 
L 2188 4044 
z
M 1831 4666 
L 2547 4666 
L 4325 0 
L 3669 0 
L 3244 1197 
L 1141 1197 
L 716 0 
L 50 0 
L 1831 4666 
z
" transform="scale(0.015625)"/>
       <path id="DejaVuSans-64" d="M 2906 2969 
L 2906 4863 
L 3481 4863 
L 3481 0 
L 2906 0 
L 2906 525 
Q 2725 213 2448 61 
Q 2172 -91 1784 -91 
Q 1150 -91 751 415 
Q 353 922 353 1747 
Q 353 2572 751 3078 
Q 1150 3584 1784 3584 
Q 2172 3584 2448 3432 
Q 2725 3281 2906 2969 
z
M 947 1747 
Q 947 1113 1208 752 
Q 1469 391 1925 391 
Q 2381 391 2643 752 
Q 2906 1113 2906 1747 
Q 2906 2381 2643 2742 
Q 2381 3103 1925 3103 
Q 1469 3103 1208 2742 
Q 947 2381 947 1747 
z
" transform="scale(0.015625)"/>
       <path id="DejaVuSans-53" d="M 3425 4513 
L 3425 3897 
Q 3066 4069 2747 4153 
Q 2428 4238 2131 4238 
Q 1616 4238 1336 4038 
Q 1056 3838 1056 3469 
Q 1056 3159 1242 3001 
Q 1428 2844 1947 2747 
L 2328 2669 
Q 3034 2534 3370 2195 
Q 3706 1856 3706 1288 
Q 3706 609 3251 259 
Q 2797 -91 1919 -91 
Q 1588 -91 1214 -16 
Q 841 59 441 206 
L 441 856 
Q 825 641 1194 531 
Q 1563 422 1919 422 
Q 2459 422 2753 634 
Q 3047 847 3047 1241 
Q 3047 1584 2836 1778 
Q 2625 1972 2144 2069 
L 1759 2144 
Q 1053 2284 737 2584 
Q 422 2884 422 3419 
Q 422 4038 858 4394 
Q 1294 4750 2059 4750 
Q 2388 4750 2728 4690 
Q 3069 4631 3425 4513 
z
" transform="scale(0.015625)"/>
       <path id="DejaVuSans-6d" d="M 3328 2828 
Q 3544 3216 3844 3400 
Q 4144 3584 4550 3584 
Q 5097 3584 5394 3201 
Q 5691 2819 5691 2113 
L 5691 0 
L 5113 0 
L 5113 2094 
Q 5113 2597 4934 2840 
Q 4756 3084 4391 3084 
Q 3944 3084 3684 2787 
Q 3425 2491 3425 1978 
L 3425 0 
L 2847 0 
L 2847 2094 
Q 2847 2600 2669 2842 
Q 2491 3084 2119 3084 
Q 1678 3084 1418 2786 
Q 1159 2488 1159 1978 
L 1159 0 
L 581 0 
L 581 3500 
L 1159 3500 
L 1159 2956 
Q 1356 3278 1631 3431 
Q 1906 3584 2284 3584 
Q 2666 3584 2933 3390 
Q 3200 3197 3328 2828 
z
" transform="scale(0.015625)"/>
      </defs>
      <use xlink:href="#DejaVuSans-41"/>
      <use xlink:href="#DejaVuSans-64" x="66.658203"/>
      <use xlink:href="#DejaVuSans-61" x="130.134766"/>
      <use xlink:href="#DejaVuSans-53" x="191.414062"/>
      <use xlink:href="#DejaVuSans-6d" x="254.890625"/>
      <use xlink:href="#DejaVuSans-6f" x="352.302734"/>
      <use xlink:href="#DejaVuSans-6f" x="413.484375"/>
      <use xlink:href="#DejaVuSans-74" x="474.666016"/>
      <use xlink:href="#DejaVuSans-68" x="513.875"/>
     </g>
    </g>
    <g id="line2d_41">
     <path d="M 301.048125 74.803875 
L 313.048125 74.803875 
L 325.048125 74.803875 
" style="fill: none; stroke-dasharray: 5.55,2.4; stroke-dashoffset: 0; stroke: #ff7f0e; stroke-width: 1.5"/>
    </g>
    <g id="text_21">
     <!-- SGD -->
     <g transform="translate(334.648125 79.003875)scale(0.12 -0.12)">
      <defs>
       <path id="DejaVuSans-47" d="M 3809 666 
L 3809 1919 
L 2778 1919 
L 2778 2438 
L 4434 2438 
L 4434 434 
Q 4069 175 3628 42 
Q 3188 -91 2688 -91 
Q 1594 -91 976 548 
Q 359 1188 359 2328 
Q 359 3472 976 4111 
Q 1594 4750 2688 4750 
Q 3144 4750 3555 4637 
Q 3966 4525 4313 4306 
L 4313 3634 
Q 3963 3931 3569 4081 
Q 3175 4231 2741 4231 
Q 1884 4231 1454 3753 
Q 1025 3275 1025 2328 
Q 1025 1384 1454 906 
Q 1884 428 2741 428 
Q 3075 428 3337 486 
Q 3600 544 3809 666 
z
" transform="scale(0.015625)"/>
       <path id="DejaVuSans-44" d="M 1259 4147 
L 1259 519 
L 2022 519 
Q 2988 519 3436 956 
Q 3884 1394 3884 2338 
Q 3884 3275 3436 3711 
Q 2988 4147 2022 4147 
L 1259 4147 
z
M 628 4666 
L 1925 4666 
Q 3281 4666 3915 4102 
Q 4550 3538 4550 2338 
Q 4550 1131 3912 565 
Q 3275 0 1925 0 
L 628 0 
L 628 4666 
z
" transform="scale(0.015625)"/>
      </defs>
      <use xlink:href="#DejaVuSans-53"/>
      <use xlink:href="#DejaVuSans-47" x="63.476562"/>
      <use xlink:href="#DejaVuSans-44" x="140.966797"/>
     </g>
    </g>
    <g id="line2d_42">
     <path d="M 301.048125 92.417625 
L 313.048125 92.417625 
L 325.048125 92.417625 
" style="fill: none; stroke-dasharray: 5.55,2.4; stroke-dashoffset: 0; stroke: #2ca02c; stroke-width: 1.5"/>
    </g>
    <g id="text_22">
     <!-- RMSProp -->
     <g transform="translate(334.648125 96.617625)scale(0.12 -0.12)">
      <defs>
       <path id="DejaVuSans-52" d="M 2841 2188 
Q 3044 2119 3236 1894 
Q 3428 1669 3622 1275 
L 4263 0 
L 3584 0 
L 2988 1197 
Q 2756 1666 2539 1819 
Q 2322 1972 1947 1972 
L 1259 1972 
L 1259 0 
L 628 0 
L 628 4666 
L 2053 4666 
Q 2853 4666 3247 4331 
Q 3641 3997 3641 3322 
Q 3641 2881 3436 2590 
Q 3231 2300 2841 2188 
z
M 1259 4147 
L 1259 2491 
L 2053 2491 
Q 2509 2491 2742 2702 
Q 2975 2913 2975 3322 
Q 2975 3731 2742 3939 
Q 2509 4147 2053 4147 
L 1259 4147 
z
" transform="scale(0.015625)"/>
       <path id="DejaVuSans-4d" d="M 628 4666 
L 1569 4666 
L 2759 1491 
L 3956 4666 
L 4897 4666 
L 4897 0 
L 4281 0 
L 4281 4097 
L 3078 897 
L 2444 897 
L 1241 4097 
L 1241 0 
L 628 0 
L 628 4666 
z
" transform="scale(0.015625)"/>
      </defs>
      <use xlink:href="#DejaVuSans-52"/>
      <use xlink:href="#DejaVuSans-4d" x="69.482422"/>
      <use xlink:href="#DejaVuSans-53" x="155.761719"/>
      <use xlink:href="#DejaVuSans-50" x="219.238281"/>
      <use xlink:href="#DejaVuSans-72" x="277.791016"/>
      <use xlink:href="#DejaVuSans-6f" x="316.654297"/>
      <use xlink:href="#DejaVuSans-70" x="377.835938"/>
     </g>
    </g>
    <g id="line2d_43">
     <path d="M 301.048125 110.031375 
L 313.048125 110.031375 
L 325.048125 110.031375 
" style="fill: none; stroke-dasharray: 5.55,2.4; stroke-dashoffset: 0; stroke: #d62728; stroke-width: 1.5"/>
    </g>
    <g id="text_23">
     <!-- AdaBound -->
     <g transform="translate(334.648125 114.231375)scale(0.12 -0.12)">
      <defs>
       <path id="DejaVuSans-42" d="M 1259 2228 
L 1259 519 
L 2272 519 
Q 2781 519 3026 730 
Q 3272 941 3272 1375 
Q 3272 1813 3026 2020 
Q 2781 2228 2272 2228 
L 1259 2228 
z
M 1259 4147 
L 1259 2741 
L 2194 2741 
Q 2656 2741 2882 2914 
Q 3109 3088 3109 3444 
Q 3109 3797 2882 3972 
Q 2656 4147 2194 4147 
L 1259 4147 
z
M 628 4666 
L 2241 4666 
Q 2963 4666 3353 4366 
Q 3744 4066 3744 3513 
Q 3744 3084 3544 2831 
Q 3344 2578 2956 2516 
Q 3422 2416 3680 2098 
Q 3938 1781 3938 1306 
Q 3938 681 3513 340 
Q 3088 0 2303 0 
L 628 0 
L 628 4666 
z
" transform="scale(0.015625)"/>
       <path id="DejaVuSans-75" d="M 544 1381 
L 544 3500 
L 1119 3500 
L 1119 1403 
Q 1119 906 1312 657 
Q 1506 409 1894 409 
Q 2359 409 2629 706 
Q 2900 1003 2900 1516 
L 2900 3500 
L 3475 3500 
L 3475 0 
L 2900 0 
L 2900 538 
Q 2691 219 2414 64 
Q 2138 -91 1772 -91 
Q 1169 -91 856 284 
Q 544 659 544 1381 
z
M 1991 3584 
L 1991 3584 
z
" transform="scale(0.015625)"/>
      </defs>
      <use xlink:href="#DejaVuSans-41"/>
      <use xlink:href="#DejaVuSans-64" x="66.658203"/>
      <use xlink:href="#DejaVuSans-61" x="130.134766"/>
      <use xlink:href="#DejaVuSans-42" x="191.414062"/>
      <use xlink:href="#DejaVuSans-6f" x="260.017578"/>
      <use xlink:href="#DejaVuSans-75" x="321.199219"/>
      <use xlink:href="#DejaVuSans-6e" x="384.578125"/>
      <use xlink:href="#DejaVuSans-64" x="447.957031"/>
     </g>
    </g>
    <g id="line2d_44">
     <path d="M 301.048125 127.645125 
L 313.048125 127.645125 
L 325.048125 127.645125 
" style="fill: none; stroke-dasharray: 5.55,2.4; stroke-dashoffset: 0; stroke: #9467bd; stroke-width: 1.5"/>
    </g>
    <g id="text_24">
     <!-- Adam -->
     <g transform="translate(334.648125 131.845125)scale(0.12 -0.12)">
      <use xlink:href="#DejaVuSans-41"/>
      <use xlink:href="#DejaVuSans-64" x="66.658203"/>
      <use xlink:href="#DejaVuSans-61" x="130.134766"/>
      <use xlink:href="#DejaVuSans-6d" x="191.414062"/>
     </g>
    </g>
    <g id="line2d_45">
     <path d="M 301.048125 145.258875 
L 313.048125 145.258875 
L 325.048125 145.258875 
" style="fill: none; stroke-dasharray: 5.55,2.4; stroke-dashoffset: 0; stroke: #8c564b; stroke-width: 1.5"/>
    </g>
    <g id="text_25">
     <!-- AMSGrad -->
     <g transform="translate(334.648125 149.458875)scale(0.12 -0.12)">
      <use xlink:href="#DejaVuSans-41"/>
      <use xlink:href="#DejaVuSans-4d" x="68.408203"/>
      <use xlink:href="#DejaVuSans-53" x="154.6875"/>
      <use xlink:href="#DejaVuSans-47" x="218.164062"/>
      <use xlink:href="#DejaVuSans-72" x="295.654297"/>
      <use xlink:href="#DejaVuSans-61" x="336.767578"/>
      <use xlink:href="#DejaVuSans-64" x="398.046875"/>
     </g>
    </g>
    <g id="line2d_46">
     <path d="M 301.048125 162.872625 
L 313.048125 162.872625 
L 325.048125 162.872625 
" style="fill: none; stroke-dasharray: 5.55,2.4; stroke-dashoffset: 0; stroke: #e377c2; stroke-width: 1.5"/>
    </g>
    <g id="text_26">
     <!-- AdaMod -->
     <g transform="translate(334.648125 167.072625)scale(0.12 -0.12)">
      <use xlink:href="#DejaVuSans-41"/>
      <use xlink:href="#DejaVuSans-64" x="66.658203"/>
      <use xlink:href="#DejaVuSans-61" x="130.134766"/>
      <use xlink:href="#DejaVuSans-4d" x="191.414062"/>
      <use xlink:href="#DejaVuSans-6f" x="277.693359"/>
      <use xlink:href="#DejaVuSans-64" x="338.875"/>
     </g>
    </g>
   </g>
  </g>
 </g>
 <defs>
  <clipPath id="pdead5d3c3f">
   <rect x="57.6" y="41.472" width="357.12" height="266.112"/>
  </clipPath>
 </defs>
</svg>
